solid cable_fix_x4
facet normal 1.0 -1.675452228541624e-09 3.243309720892673e-10
  outer loop
    vertex 3.0000000008579777 12.538220739514292 -3.0868356372473484e-08
    vertex 2.9999999851128134 5.076441466575167 9.99999992007585
    vertex 2.999999988356123 5.076441466514289 -7.99241522732218e-08
  endloop
endfacet
facet normal 1.0 -1.675452228541624e-09 3.243309720892673e-10
  outer loop
    vertex 2.9999999851128134 5.076441466575167 9.99999992007585
    vertex 3.0000000008579777 12.538220739514292 -3.0868356372473484e-08
    vertex 2.999999997614668 12.53822073957517 9.999999969131645
  endloop
endfacet
facet normal -6.706775450704362e-29 -1.0 6.087743642524401e-12
  outer loop
    vertex 22.99999999761467 12.53822073957517 9.999999969131645
    vertex 3.0000000008579777 12.538220739514292 -3.0868356372473484e-08
    vertex 23.000000000857973 12.538220739514292 -3.0868356372473484e-08
  endloop
endfacet
facet normal -6.706775450704362e-29 -1.0 6.087743642524401e-12
  outer loop
    vertex 3.0000000008579777 12.538220739514292 -3.0868356372473484e-08
    vertex 22.99999999761467 12.53822073957517 9.999999969131645
    vertex 2.999999997614668 12.53822073957517 9.999999969131645
  endloop
endfacet
facet normal 1.0 -3.5472453035660243e-10 2.5031432527771185e-10
  outer loop
    vertex 26.00000000588989 15.538220741287494 -3.135405283111158e-08
    vertex 25.999999997874962 1.2575158314653833e-08 9.999999944369103
    vertex 25.999999999637936 1.0209463052746058e-09 -4.031692856502273e-08
  endloop
endfacet
facet normal 1.0 -3.5472453035660243e-10 2.5031432527771185e-10
  outer loop
    vertex 25.999999997874962 1.2575158314653833e-08 9.999999944369103
    vertex 26.00000000588989 15.538220741287494 -3.135405283111158e-08
    vertex 26.00000000264658 15.538220741348372 9.999999968645941
  endloop
endfacet
facet normal -1.0746501810513253e-10 1.0 -6.087743677378653e-12
  outer loop
    vertex 9.692892427581866e-09 15.538220738493402 4.902075509686815e-09
    vertex 26.00000000264658 15.538220741348372 9.999999968645941
    vertex 26.00000000588989 15.538220741287494 -3.135405283111158e-08
  endloop
endfacet
facet normal -1.0746501810513253e-10 1.0 -6.087743677378653e-12
  outer loop
    vertex 26.00000000264658 15.538220741348372 9.999999968645941
    vertex 9.692892427581866e-09 15.538220738493402 4.902075509686815e-09
    vertex 6.449583411782811e-09 15.53822073855428 10.00000000490207
  endloop
endfacet
facet normal -1.0 1.6754440989658516e-09 -3.2433083109094316e-10
  outer loop
    vertex 22.999999985112872 5.076441466575167 10.00000001818744
    vertex 23.000000000857973 12.538220739514292 -3.0868356372473484e-08
    vertex 22.999999988356183 5.076441466514289 1.8187438989489546e-08
  endloop
endfacet
facet normal -1.0 1.6754440989658516e-09 -3.2433083109094316e-10
  outer loop
    vertex 23.000000000857973 12.538220739514292 -3.0868356372473484e-08
    vertex 22.999999985112872 5.076441466575167 10.00000001818744
    vertex 22.99999999761467 12.53822073957517 9.999999969131645
  endloop
endfacet
facet normal 9.661536986198419e-10 -2.053163528165123e-09 1.0
  outer loop
    vertex 3.000000010116524 1.2575158314653833e-08 10.00000001818744
    vertex 6.449583411782811e-09 15.53822073855428 10.00000000490207
    vertex -1.7629521009698834e-09 1.1554212009379227e-08 9.999999984686026
  endloop
endfacet
facet normal 9.661536986198419e-10 -2.053163528165123e-09 1.0
  outer loop
    vertex 6.449583411782811e-09 15.53822073855428 10.00000000490207
    vertex 3.000000010116524 1.2575158314653833e-08 10.00000001818744
    vertex 2.9999999851128134 5.076441466575167 9.99999992007585
  endloop
endfacet
facet normal 9.661536986198419e-10 -2.053163528165123e-09 1.0
  outer loop
    vertex 2.9999999851128134 5.076441466575167 9.99999992007585
    vertex 3.000000010116524 1.2575158314653833e-08 10.00000001818744
    vertex 4.999999988592081 4.843108163053642 9.999999935301219
  endloop
endfacet
facet normal 9.661536986198419e-10 -2.053163528165123e-09 1.0
  outer loop
    vertex 4.999999988592081 4.843108163053642 9.999999935301219
    vertex 3.000000010116524 1.2575158314653833e-08 10.00000001818744
    vertex 5.000000056144194 0.30977482972025516 9.999999935302842
  endloop
endfacet
facet normal 9.661536986198419e-10 -2.053163528165123e-09 1.0
  outer loop
    vertex 21.000000006637194 0.23333331609673427 9.999999904850657
    vertex 22.999999985112872 5.076441466575167 10.00000001818744
    vertex 20.999999939085196 4.766666649430118 9.999999904852283
  endloop
endfacet
facet normal 9.661536986198419e-10 -2.053163528165123e-09 1.0
  outer loop
    vertex 22.999999985112872 5.076441466575167 10.00000001818744
    vertex 21.000000006637194 0.23333331609673427 9.999999904850657
    vertex 23.000000010116462 1.2575158314653833e-08 9.99999992007585
  endloop
endfacet
facet normal 9.661536986198419e-10 -2.053163528165123e-09 1.0
  outer loop
    vertex 22.999999985112872 5.076441466575167 10.00000001818744
    vertex 23.000000010116462 1.2575158314653833e-08 9.99999992007585
    vertex 22.99999999761467 12.53822073957517 9.999999969131645
  endloop
endfacet
facet normal 9.661536986198419e-10 -2.053163528165123e-09 1.0
  outer loop
    vertex 6.449583411782811e-09 15.53822073855428 10.00000000490207
    vertex 2.999999997614668 12.53822073957517 9.999999969131645
    vertex 26.00000000264658 15.538220741348372 9.999999968645941
  endloop
endfacet
facet normal 9.661536986198419e-10 -2.053163528165123e-09 1.0
  outer loop
    vertex 2.999999997614668 12.53822073957517 9.999999969131645
    vertex 6.449583411782811e-09 15.53822073855428 10.00000000490207
    vertex 2.9999999851128134 5.076441466575167 9.99999992007585
  endloop
endfacet
facet normal 9.661536986198419e-10 -2.053163528165123e-09 1.0
  outer loop
    vertex 26.00000000264658 15.538220741348372 9.999999968645941
    vertex 2.999999997614668 12.53822073957517 9.999999969131645
    vertex 22.99999999761467 12.53822073957517 9.999999969131645
  endloop
endfacet
facet normal 9.661536986198419e-10 -2.053163528165123e-09 1.0
  outer loop
    vertex 26.00000000264658 15.538220741348372 9.999999968645941
    vertex 22.99999999761467 12.53822073957517 9.999999969131645
    vertex 23.000000010116462 1.2575158314653833e-08 9.99999992007585
  endloop
endfacet
facet normal 9.661536986198419e-10 -2.053163528165123e-09 1.0
  outer loop
    vertex 26.00000000264658 15.538220741348372 9.999999968645941
    vertex 23.000000010116462 1.2575158314653833e-08 9.99999992007585
    vertex 25.999999997874962 1.2575158314653833e-08 9.999999944369103
  endloop
endfacet
facet normal 2.2558711832306232e-09 -1.0 5.807544728595591e-10
  outer loop
    vertex 3.0000000133598337 1.2514280878228589e-08 1.818743952827486e-08
    vertex -1.7629521009698834e-09 1.1554212009379227e-08 9.999999984686026
    vertex 0.0 0.0 0.0
  endloop
endfacet
facet normal 2.2558711832306232e-09 -1.0 5.807544728595591e-10
  outer loop
    vertex -1.7629521009698834e-09 1.1554212009379227e-08 9.999999984686026
    vertex 3.0000000133598337 1.2514280878228589e-08 1.818743952827486e-08
    vertex 3.000000010116524 1.2575158314653833e-08 10.00000001818744
  endloop
endfacet
facet normal -1.915555776160504e-09 -1.0 5.807544718153943e-10
  outer loop
    vertex 25.999999999637936 1.0209463052746058e-09 -4.031692856502273e-08
    vertex 23.000000010116462 1.2575158314653833e-08 9.99999992007585
    vertex 23.000000013359767 1.2514280878228589e-08 -7.992415206685102e-08
  endloop
endfacet
facet normal -1.915555776160504e-09 -1.0 5.807544718153943e-10
  outer loop
    vertex 23.000000010116462 1.2575158314653833e-08 9.99999992007585
    vertex 25.999999999637936 1.0209463052746058e-09 -4.031692856502273e-08
    vertex 25.999999997874962 1.2575158314653833e-08 9.999999944369103
  endloop
endfacet
facet normal -1.0 5.761736898689384e-10 -2.5031305642140214e-10
  outer loop
    vertex -1.7629521009698834e-09 1.1554212009379227e-08 9.999999984686026
    vertex 9.692892427581866e-09 15.538220738493402 4.902075509686815e-09
    vertex 0.0 0.0 0.0
  endloop
endfacet
facet normal -1.0 5.761736898689384e-10 -2.5031305642140214e-10
  outer loop
    vertex 9.692892427581866e-09 15.538220738493402 4.902075509686815e-09
    vertex -1.7629521009698834e-09 1.1554212009379227e-08 9.999999984686026
    vertex 6.449583411782811e-09 15.53822073855428 10.00000000490207
  endloop
endfacet
facet normal 1.0 1.490120157167939e-08 3.243308309900292e-10
  outer loop
    vertex 4.999999991835389 4.843108162992764 -6.469878192583303e-08
    vertex 5.000000056144194 0.30977482972025516 9.999999935302842
    vertex 5.000000059387503 0.30977482965937775 -6.469715661854851e-08
  endloop
endfacet
facet normal 1.0 1.490120157167939e-08 3.243308309900292e-10
  outer loop
    vertex 5.000000056144194 0.30977482972025516 9.999999935302842
    vertex 4.999999991835389 4.843108162992764 -6.469878192583303e-08
    vertex 4.999999988592081 4.843108163053642 9.999999935301219
  endloop
endfacet
facet normal -1.0 -1.4901176067570543e-08 -3.2433054899338047e-10
  outer loop
    vertex 21.000000006637194 0.23333331609673427 9.999999904850657
    vertex 20.999999942328504 4.766666649369241 -9.51477185717806e-08
    vertex 21.0000000098805 0.23333331603585683 -9.51493418658857e-08
  endloop
endfacet
facet normal -1.0 -1.4901176067570543e-08 -3.2433054899338047e-10
  outer loop
    vertex 20.999999942328504 4.766666649369241 -9.51477185717806e-08
    vertex 21.000000006637194 0.23333331609673427 9.999999904850657
    vertex 20.999999939085196 4.766666649430118 9.999999904852283
  endloop
endfacet
facet normal -9.664333749521918e-10 1.7029254158027051e-09 -1.0
  outer loop
    vertex 9.692892427581866e-09 15.538220738493402 4.902075509686815e-09
    vertex 3.0000000133598337 1.2514280878228589e-08 1.818743952827486e-08
    vertex 0.0 0.0 0.0
  endloop
endfacet
facet normal -9.664333749521918e-10 1.7029254158027051e-09 -1.0
  outer loop
    vertex 3.0000000133598337 1.2514280878228589e-08 1.818743952827486e-08
    vertex 9.692892427581866e-09 15.538220738493402 4.902075509686815e-09
    vertex 2.999999988356123 5.076441466514289 -7.99241522732218e-08
  endloop
endfacet
facet normal -9.664333749521918e-10 1.7029254158027051e-09 -1.0
  outer loop
    vertex 3.0000000133598337 1.2514280878228589e-08 1.818743952827486e-08
    vertex 2.999999988356123 5.076441466514289 -7.99241522732218e-08
    vertex 4.999999991835389 4.843108162992764 -6.469878192583303e-08
  endloop
endfacet
facet normal -9.664333749521918e-10 1.7029254158027051e-09 -1.0
  outer loop
    vertex 3.0000000133598337 1.2514280878228589e-08 1.818743952827486e-08
    vertex 4.999999991835389 4.843108162992764 -6.469878192583303e-08
    vertex 5.000000059387503 0.30977482965937775 -6.469715661854851e-08
  endloop
endfacet
facet normal -9.664333749521918e-10 1.7029254158027051e-09 -1.0
  outer loop
    vertex 9.692892427581866e-09 15.538220738493402 4.902075509686815e-09
    vertex 3.0000000008579777 12.538220739514292 -3.0868356372473484e-08
    vertex 2.999999988356123 5.076441466514289 -7.99241522732218e-08
  endloop
endfacet
facet normal -9.664333749521918e-10 1.7029254158027051e-09 -1.0
  outer loop
    vertex 3.0000000008579777 12.538220739514292 -3.0868356372473484e-08
    vertex 9.692892427581866e-09 15.538220738493402 4.902075509686815e-09
    vertex 26.00000000588989 15.538220741287494 -3.135405283111158e-08
  endloop
endfacet
facet normal -9.664333749521918e-10 1.7029254158027051e-09 -1.0
  outer loop
    vertex 3.0000000008579777 12.538220739514292 -3.0868356372473484e-08
    vertex 26.00000000588989 15.538220741287494 -3.135405283111158e-08
    vertex 23.000000000857973 12.538220739514292 -3.0868356372473484e-08
  endloop
endfacet
facet normal -9.664333749521918e-10 1.7029254158027051e-09 -1.0
  outer loop
    vertex 23.000000000857973 12.538220739514292 -3.0868356372473484e-08
    vertex 26.00000000588989 15.538220741287494 -3.135405283111158e-08
    vertex 23.000000013359767 1.2514280878228589e-08 -7.992415206685102e-08
  endloop
endfacet
facet normal -9.664333749521918e-10 1.7029254158027051e-09 -1.0
  outer loop
    vertex 23.000000013359767 1.2514280878228589e-08 -7.992415206685102e-08
    vertex 26.00000000588989 15.538220741287494 -3.135405283111158e-08
    vertex 25.999999999637936 1.0209463052746058e-09 -4.031692856502273e-08
  endloop
endfacet
facet normal -9.664333749521918e-10 1.7029254158027051e-09 -1.0
  outer loop
    vertex 22.999999988356183 5.076441466514289 1.8187438989489546e-08
    vertex 21.0000000098805 0.23333331603585683 -9.51493418658857e-08
    vertex 20.999999942328504 4.766666649369241 -9.51477185717806e-08
  endloop
endfacet
facet normal -9.664333749521918e-10 1.7029254158027051e-09 -1.0
  outer loop
    vertex 21.0000000098805 0.23333331603585683 -9.51493418658857e-08
    vertex 22.999999988356183 5.076441466514289 1.8187438989489546e-08
    vertex 23.000000013359767 1.2514280878228589e-08 -7.992415206685102e-08
  endloop
endfacet
facet normal -9.664333749521918e-10 1.7029254158027051e-09 -1.0
  outer loop
    vertex 23.000000013359767 1.2514280878228589e-08 -7.992415206685102e-08
    vertex 22.999999988356183 5.076441466514289 1.8187438989489546e-08
    vertex 23.000000000857973 12.538220739514292 -3.0868356372473484e-08
  endloop
endfacet
facet normal 0.1530622957556326 -0.9882165418662122 5.56588416739224e-11
  outer loop
    vertex 5.000000056144194 0.30977482972025516 9.999999935302842
    vertex 3.0000000133598337 1.2514280878228589e-08 1.818743952827486e-08
    vertex 5.000000059387503 0.30977482965937775 -6.469715661854851e-08
  endloop
endfacet
facet normal 0.1530622957556326 -0.9882165418662122 5.56588416739224e-11
  outer loop
    vertex 3.0000000133598337 1.2514280878228589e-08 1.818743952827486e-08
    vertex 5.000000056144194 0.30977482972025516 9.999999935302842
    vertex 3.000000010116524 1.2575158314653833e-08 10.00000001818744
  endloop
endfacet
facet normal 0.1158806847546234 0.9932631408145576 3.153695573788498e-11
  outer loop
    vertex 2.9999999851128134 5.076441466575167 9.99999992007585
    vertex 4.999999991835389 4.843108162992764 -6.469878192583303e-08
    vertex 2.999999988356123 5.076441466514289 -7.99241522732218e-08
  endloop
endfacet
facet normal 0.1158806847546234 0.9932631408145576 3.153695573788498e-11
  outer loop
    vertex 4.999999991835389 4.843108162992764 -6.469878192583303e-08
    vertex 2.9999999851128134 5.076441466575167 9.99999992007585
    vertex 4.999999988592081 4.843108163053642 9.999999935301219
  endloop
endfacet
facet normal -0.1530622957556088 0.9882165418662161 -5.5658833006164534e-11
  outer loop
    vertex 20.999999939085196 4.766666649430118 9.999999904852283
    vertex 22.999999988356183 5.076441466514289 1.8187438989489546e-08
    vertex 20.999999942328504 4.766666649369241 -9.51477185717806e-08
  endloop
endfacet
facet normal -0.1530622957556088 0.9882165418662161 -5.5658833006164534e-11
  outer loop
    vertex 22.999999988356183 5.076441466514289 1.8187438989489546e-08
    vertex 20.999999939085196 4.766666649430118 9.999999904852283
    vertex 22.999999985112872 5.076441466575167 10.00000001818744
  endloop
endfacet
facet normal -0.11588068475464837 -0.9932631408145548 -3.153691571899552e-11
  outer loop
    vertex 23.000000013359767 1.2514280878228589e-08 -7.992415206685102e-08
    vertex 21.000000006637194 0.23333331609673427 9.999999904850657
    vertex 21.0000000098805 0.23333331603585683 -9.51493418658857e-08
  endloop
endfacet
facet normal -0.11588068475464837 -0.9932631408145548 -3.153691571899552e-11
  outer loop
    vertex 21.000000006637194 0.23333331609673427 9.999999904850657
    vertex 23.000000013359767 1.2514280878228589e-08 -7.992415206685102e-08
    vertex 23.000000010116462 1.2575158314653833e-08 9.99999992007585
  endloop
endfacet
endsolid cable_fix_x4
