solid cable_fix_x4
facet normal -1.0 -1.4901176067570543e-08 -3.2433054899338047e-10
  outer loop
    vertex 21.00000000840015 0.23333331609673147 10.0
    vertex 20.999999944091456 4.766666649369239 1.6232941050839415e-12
    vertex 21.000000011643454 0.23333331603585403 0.0
  endloop
endfacet
facet normal -1.0 -1.4901176067570543e-08 -3.2433054899338047e-10
  outer loop
    vertex 20.999999944091456 4.766666649369239 1.6232941050839415e-12
    vertex 21.00000000840015 0.23333331609673147 10.0
    vertex 20.99999994084815 4.766666649430117 10.000000000001624
  endloop
endfacet
facet normal 1.0 -3.547245303566024e-10 2.503143252777119e-10
  outer loop
    vertex 26.000000007652844 15.538220741287487 6.379528903477412e-08
    vertex 25.999999999637915 1.257515549468735e-08 10.000000039518445
    vertex 26.00000000140089 1.0209463052746058e-09 5.483241330086296e-08
  endloop
endfacet
facet normal 1.0 -3.547245303566024e-10 2.503143252777119e-10
  outer loop
    vertex 25.999999999637915 1.257515549468735e-08 10.000000039518445
    vertex 26.000000007652844 15.538220741287487 6.379528903477412e-08
    vertex 26.000000004409532 15.538220741348377 10.000000063795284
  endloop
endfacet
facet normal -7.26478422290992e-10 1.3281153592074069e-09 -1.0
  outer loop
    vertex 5.933607889650987 20.139352410953187 7.163067309650256e-08
    vertex 8.61319577328743 17.35899309768963 6.689593287680265e-08
    vertex 5.628231138969249 17.73869728367164 6.754254078559808e-08
  endloop
endfacet
facet normal -7.26478422290992e-10 1.3281153592074069e-09 -1.0
  outer loop
    vertex 8.61319577328743 17.35899309768963 6.689593287680265e-08
    vertex 5.933607889650987 20.139352410953187 7.163067309650256e-08
    vertex 7.370020251642711 21.847724177789697 7.453990279788823e-08
  endloop
endfacet
facet normal -7.26478422290992e-10 1.3281153592074069e-09 -1.0
  outer loop
    vertex 8.61319577328743 17.35899309768963 6.689593287680265e-08
    vertex 7.370020251642711 21.847724177789697 7.453990279788823e-08
    vertex 9.199647198664133 23.126113712376018 7.671690482763147e-08
  endloop
endfacet
facet normal -7.26478422290992e-10 1.3281153592074069e-09 -1.0
  outer loop
    vertex 8.61319577328743 17.35899309768963 6.689593287680265e-08
    vertex 9.199647198664133 23.126113712376018 7.671690482763147e-08
    vertex 8.91857252396916 19.759648224971176 7.098406518770713e-08
  endloop
endfacet
facet normal -7.26478422290992e-10 1.3281153592074069e-09 -1.0
  outer loop
    vertex 8.91857252396916 19.759648224971176 7.098406518770713e-08
    vertex 9.199647198664133 23.126113712376018 7.671690482763147e-08
    vertex 10.15500000765285 20.708392401880584 7.259970575966099e-08
  endloop
endfacet
facet normal -7.26478422290992e-10 1.3281153592074069e-09 -1.0
  outer loop
    vertex 10.15500000765285 20.708392401880584 7.259970575966099e-08
    vertex 9.199647198664133 23.126113712376018 7.671690482763147e-08
    vertex 11.29780267787724 23.887400880568684 7.801332009507124e-08
  endloop
endfacet
facet normal -7.26478422290992e-10 1.3281153592074069e-09 -1.0
  outer loop
    vertex 10.15500000765285 20.708392401880584 7.259970575966099e-08
    vertex 11.29780267787724 23.887400880568684 7.801332009507124e-08
    vertex 11.5948503083908 21.304797924233227 7.361533988180038e-08
  endloop
endfacet
facet normal -7.26478422290992e-10 1.3281153592074069e-09 -1.0
  outer loop
    vertex 11.5948503083908 21.304797924233227 7.361533988180038e-08
    vertex 11.29780267787724 23.887400880568684 7.801332009507124e-08
    vertex 13.521500860739515 24.0797052199419 7.834080004215902e-08
  endloop
endfacet
facet normal -7.26478422290992e-10 1.3281153592074069e-09 -1.0
  outer loop
    vertex 11.5948503083908 21.304797924233227 7.361533988180038e-08
    vertex 13.521500860739515 24.0797052199419 7.834080004215902e-08
    vertex 13.140000007652848 21.508220741287484 7.396175376711626e-08
  endloop
endfacet
facet normal -7.26478422290992e-10 1.3281153592074069e-09 -1.0
  outer loop
    vertex 13.140000007652848 21.508220741287484 7.396175376711626e-08
    vertex 13.521500860739515 24.0797052199419 7.834080004215902e-08
    vertex 14.685149706914899 21.304797924233227 7.361533988180038e-08
  endloop
endfacet
facet normal -7.26478422290992e-10 1.3281153592074069e-09 -1.0
  outer loop
    vertex 14.685149706914899 21.304797924233227 7.361533988180038e-08
    vertex 13.521500860739515 24.0797052199419 7.834080004215902e-08
    vertex 15.719200390923902 23.689921507565312 7.767702745168701e-08
  endloop
endfacet
facet normal -7.26478422290992e-10 1.3281153592074069e-09 -1.0
  outer loop
    vertex 14.685149706914899 21.304797924233227 7.361533988180038e-08
    vertex 15.719200390923902 23.689921507565312 7.767702745168701e-08
    vertex 16.12500000765285 20.708392401880584 7.259970575966097e-08
  endloop
endfacet
facet normal -7.26478422290992e-10 1.3281153592074069e-09 -1.0
  outer loop
    vertex 16.12500000765285 20.708392401880584 7.259970575966097e-08
    vertex 15.719200390923902 23.689921507565312 7.767702745168701e-08
    vertex 17.74113167731854 22.744612859289354 7.606723732875977e-08
  endloop
endfacet
facet normal -7.26478422290992e-10 1.3281153592074069e-09 -1.0
  outer loop
    vertex 16.12500000765285 20.708392401880584 7.259970575966097e-08
    vertex 17.74113167731854 22.744612859289354 7.606723732875977e-08
    vertex 17.36142749133654 19.759648224971176 7.098406518770713e-08
  endloop
endfacet
facet normal -7.26478422290992e-10 1.3281153592074069e-09 -1.0
  outer loop
    vertex 17.36142749133654 19.759648224971176 7.098406518770713e-08
    vertex 17.74113167731854 22.744612859289354 7.606723732875977e-08
    vertex 18.310171668245946 18.52322074128748 6.887852140094518e-08
  endloop
endfacet
facet normal -7.26478422290992e-10 1.3281153592074069e-09 -1.0
  outer loop
    vertex 18.310171668245946 18.52322074128748 6.887852140094518e-08
    vertex 17.74113167731854 22.744612859289354 7.606723732875977e-08
    vertex 19.449503444155056 21.30820049729763 7.362113420995087e-08
  endloop
endfacet
facet normal -7.26478422290992e-10 1.3281153592074069e-09 -1.0
  outer loop
    vertex 1.145584452855175e-08 15.538220738493397 1.0005141737557251e-07
    vertex 3.000000015122786 1.2514278058262107e-08 1.1333678139416055e-07
    vertex 1.7629521009698834e-09 0.0 9.51493418658857e-08
  endloop
endfacet
facet normal -7.26478422290992e-10 1.3281153592074069e-09 -1.0
  outer loop
    vertex 3.000000015122786 1.2514278058262107e-08 1.1333678139416055e-07
    vertex 1.145584452855175e-08 15.538220738493397 1.0005141737557251e-07
    vertex 2.999999990119075 5.0764414665142885 1.522518959266389e-08
  endloop
endfacet
facet normal -7.26478422290992e-10 1.3281153592074069e-09 -1.0
  outer loop
    vertex 3.000000015122786 1.2514278058262107e-08 1.1333678139416055e-07
    vertex 2.999999990119075 5.0764414665142885 1.522518959266389e-08
    vertex 4.999999993598341 4.843108162992763 3.045055994005266e-08
  endloop
endfacet
facet normal -7.26478422290992e-10 1.3281153592074069e-09 -1.0
  outer loop
    vertex 3.000000015122786 1.2514278058262107e-08 1.1333678139416055e-07
    vertex 4.999999993598341 4.843108162992763 3.045055994005266e-08
    vertex 5.000000061150455 0.30977482965937775 3.045218524733719e-08
  endloop
endfacet
facet normal -7.26478422290992e-10 1.3281153592074069e-09 -1.0
  outer loop
    vertex 1.145584452855175e-08 15.538220738493397 1.0005141737557251e-07
    vertex 3.0000000026209297 12.5382207395143 6.42809854934122e-08
    vertex 2.999999990119075 5.0764414665142885 1.522518959266389e-08
  endloop
endfacet
facet normal -7.26478422290992e-10 1.3281153592074069e-09 -1.0
  outer loop
    vertex 3.0000000026209297 12.5382207395143 6.42809854934122e-08
    vertex 1.145584452855175e-08 15.538220738493397 1.0005141737557251e-07
    vertex 18.310171659666878 15.538220740122707 6.583634043488829e-08
  endloop
endfacet
facet normal -7.26478422290992e-10 1.3281153592074069e-09 -1.0
  outer loop
    vertex 3.0000000026209297 12.5382207395143 6.42809854934122e-08
    vertex 18.310171659666878 15.538220740122707 6.583634043488829e-08
    vertex 23.00000000262093 12.5382207395143 6.42809854934122e-08
  endloop
endfacet
facet normal -7.26478422290992e-10 1.3281153592074069e-09 -1.0
  outer loop
    vertex 23.00000000262093 12.5382207395143 6.42809854934122e-08
    vertex 18.310171659666878 15.538220740122707 6.583634043488829e-08
    vertex 18.310171668245946 18.52322074128748 6.887852140094518e-08
  endloop
endfacet
facet normal -7.26478422290992e-10 1.3281153592074069e-09 -1.0
  outer loop
    vertex 23.00000000262093 12.5382207395143 6.42809854934122e-08
    vertex 18.310171668245946 18.52322074128748 6.887852140094518e-08
    vertex 21.64849247772958 15.538220741287487 6.379528903477412e-08
  endloop
endfacet
facet normal -7.26478422290992e-10 1.3281153592074069e-09 -1.0
  outer loop
    vertex 21.64849247772958 15.538220741287487 6.379528903477412e-08
    vertex 18.310171668245946 18.52322074128748 6.887852140094518e-08
    vertex 19.449503444155056 21.30820049729763 7.362113420995087e-08
  endloop
endfacet
facet normal -7.26478422290992e-10 1.3281153592074069e-09 -1.0
  outer loop
    vertex 21.64849247772958 15.538220741287487 6.379528903477412e-08
    vertex 19.449503444155056 21.30820049729763 7.362113420995087e-08
    vertex 20.72789297874138 19.4785735502762 7.050541598043057e-08
  endloop
endfacet
facet normal -7.26478422290992e-10 1.3281153592074069e-09 -1.0
  outer loop
    vertex 21.64849247772958 15.538220741287487 6.379528903477412e-08
    vertex 20.72789297874138 19.4785735502762 7.050541598043057e-08
    vertex 21.48918014693404 17.3804180710631 6.693241368857288e-08
  endloop
endfacet
facet normal -7.26478422290992e-10 1.3281153592074069e-09 -1.0
  outer loop
    vertex 23.00000000262093 12.5382207395143 6.42809854934122e-08
    vertex 21.64849247772958 15.538220741287487 6.379528903477412e-08
    vertex 26.000000007652844 15.538220741287487 6.379528903477412e-08
  endloop
endfacet
facet normal -7.26478422290992e-10 1.3281153592074069e-09 -1.0
  outer loop
    vertex 23.00000000262093 12.5382207395143 6.42809854934122e-08
    vertex 26.000000007652844 15.538220741287487 6.379528903477412e-08
    vertex 23.00000001512272 1.2514278058262107e-08 1.522518979903467e-08
  endloop
endfacet
facet normal -7.26478422290992e-10 1.3281153592074069e-09 -1.0
  outer loop
    vertex 23.00000001512272 1.2514278058262107e-08 1.522518979903467e-08
    vertex 26.000000007652844 15.538220741287487 6.379528903477412e-08
    vertex 26.00000000140089 1.0209463052746058e-09 5.483241330086296e-08
  endloop
endfacet
facet normal -7.26478422290992e-10 1.3281153592074069e-09 -1.0
  outer loop
    vertex 22.999999990119136 5.0764414665142885 1.1333678085537523e-07
    vertex 21.000000011643454 0.23333331603585403 0.0
    vertex 20.999999944091456 4.766666649369239 1.6232941050839415e-12
  endloop
endfacet
facet normal -7.26478422290992e-10 1.3281153592074069e-09 -1.0
  outer loop
    vertex 21.000000011643454 0.23333331603585403 0.0
    vertex 22.999999990119136 5.0764414665142885 1.1333678085537523e-07
    vertex 23.00000001512272 1.2514278058262107e-08 1.522518979903467e-08
  endloop
endfacet
facet normal -7.26478422290992e-10 1.3281153592074069e-09 -1.0
  outer loop
    vertex 23.00000001512272 1.2514278058262107e-08 1.522518979903467e-08
    vertex 22.999999990119136 5.0764414665142885 1.1333678085537523e-07
    vertex 23.00000000262093 12.5382207395143 6.42809854934122e-08
  endloop
endfacet
facet normal 0.1158806847546234 0.9932631408145576 3.153695573788498e-11
  outer loop
    vertex 2.9999999868757654 5.076441466575165 10.00000001522519
    vertex 4.999999993598341 4.843108162992763 3.045055994005266e-08
    vertex 2.999999990119075 5.0764414665142885 1.522518959266389e-08
  endloop
endfacet
facet normal 0.1158806847546234 0.9932631408145576 3.153695573788498e-11
  outer loop
    vertex 4.999999993598341 4.843108162992763 3.045055994005266e-08
    vertex 2.9999999868757654 5.076441466575165 10.00000001522519
    vertex 4.9999999903550325 4.843108163053641 10.000000030450561
  endloop
endfacet
facet normal -1.0 5.761736898689384e-10 -2.5031305642140214e-10
  outer loop
    vertex 0.0 1.1554214829345709e-08 10.000000079835367
    vertex 1.145584452855175e-08 15.538220738493397 1.0005141737557251e-07
    vertex 1.7629521009698834e-09 0.0 9.51493418658857e-08
  endloop
endfacet
facet normal -1.0 5.761736898689384e-10 -2.5031305642140214e-10
  outer loop
    vertex 1.145584452855175e-08 15.538220738493397 1.0005141737557251e-07
    vertex 0.0 1.1554214829345709e-08 10.000000079835367
    vertex 8.212535512752694e-09 15.538220738554287 10.00000010005141
  endloop
endfacet
facet normal 0.13052619222005057 -0.9914448613738107 -1.688356652800452e-09
  outer loop
    vertex 13.140000007652848 21.508220741287484 7.396175376711626e-08
    vertex 11.5948503083908 21.30479790720399 10.000000078355702
    vertex 11.5948503083908 21.304797924233227 7.361533988180038e-08
  endloop
endfacet
facet normal 0.13052619222005057 -0.9914448613738107 -1.688356652800452e-09
  outer loop
    vertex 11.5948503083908 21.30479790720399 10.000000078355702
    vertex 13.140000007652848 21.508220741287484 7.396175376711626e-08
    vertex 13.140000007652848 21.50822072425825 10.000000078702115
  endloop
endfacet
facet normal 0.1530622957556326 -0.9882165418662122 5.56588416739224e-11
  outer loop
    vertex 5.000000057907147 0.30977482972025516 10.000000030452185
    vertex 3.000000015122786 1.2514278058262107e-08 1.1333678139416055e-07
    vertex 5.000000061150455 0.30977482965937775 3.045218524733719e-08
  endloop
endfacet
facet normal 0.1530622957556326 -0.9882165418662122 5.56588416739224e-11
  outer loop
    vertex 3.000000015122786 1.2514278058262107e-08 1.1333678139416055e-07
    vertex 5.000000057907147 0.30977482972025516 10.000000030452185
    vertex 3.000000011879476 1.257515549468735e-08 10.000000113336782
  endloop
endfacet
facet normal -1.0 1.6754440989658516e-09 -3.2433083109094316e-10
  outer loop
    vertex 22.999999986875824 5.076441466575165 10.000000113336782
    vertex 23.00000000262093 12.5382207395143 6.42809854934122e-08
    vertex 22.999999990119136 5.0764414665142885 1.1333678085537523e-07
  endloop
endfacet
facet normal -1.0 1.6754440989658516e-09 -3.2433083109094316e-10
  outer loop
    vertex 23.00000000262093 12.5382207395143 6.42809854934122e-08
    vertex 22.999999986875824 5.076441466575165 10.000000113336782
    vertex 22.99999999937762 12.538220739575165 10.000000064280986
  endloop
endfacet
facet normal 0.6435545348773951 0.7654002617184944 1.303419558942466e-09
  outer loop
    vertex 17.74113167731854 22.744612859289354 7.606723732875977e-08
    vertex 19.449503444155056 21.308200480268393 10.000000078361497
    vertex 19.449503444155056 21.30820049729763 7.362113420995087e-08
  endloop
endfacet
facet normal 0.6435545348773951 0.7654002617184944 1.303419558942466e-09
  outer loop
    vertex 19.449503444155056 21.308200480268393 10.000000078361497
    vertex 17.74113167731854 22.744612859289354 7.606723732875977e-08
    vertex 17.74113167731854 22.744612842260118 10.000000080807597
  endloop
endfacet
facet normal -0.12618873995112906 -0.9920062509427783 -1.6893108722745428e-09
  outer loop
    vertex 8.61319577328743 17.358993080660394 10.000000071636313
    vertex 5.628231138969249 17.73869728367164 6.754254078559808e-08
    vertex 8.61319577328743 17.35899309768963 6.689593287680265e-08
  endloop
endfacet
facet normal -0.12618873995112906 -0.9920062509427783 -1.6893108722745428e-09
  outer loop
    vertex 5.628231138969249 17.73869728367164 6.754254078559808e-08
    vertex 8.61319577328743 17.358993080660394 10.000000071636313
    vertex 5.628231138969249 17.738697266642404 10.000000072282921
  endloop
endfacet
facet normal -1.0 1.8110760013604355e-09 3.1730065741380635e-10
  outer loop
    vertex 18.310171668245946 18.523220724258245 10.000000073618882
    vertex 18.310171659666878 15.538220740122707 6.583634043488829e-08
    vertex 18.31017166601289 15.538220724856592 10.00000006912607
  endloop
endfacet
facet normal -1.0 1.8110760013604355e-09 3.1730065741380635e-10
  outer loop
    vertex 18.310171659666878 15.538220740122707 6.583634043488829e-08
    vertex 18.310171668245946 18.523220724258245 10.000000073618882
    vertex 18.310171668245946 18.52322074128748 6.887852140094518e-08
  endloop
endfacet
facet normal 1.0 1.490120157167939e-08 3.243308309900292e-10
  outer loop
    vertex 4.999999993598341 4.843108162992763 3.045055994005266e-08
    vertex 5.000000057907147 0.30977482972025516 10.000000030452185
    vertex 5.000000061150455 0.30977482965937775 3.045218524733719e-08
  endloop
endfacet
facet normal 1.0 1.490120157167939e-08 3.243308309900292e-10
  outer loop
    vertex 5.000000057907147 0.30977482972025516 10.000000030452185
    vertex 4.999999993598341 4.843108162992763 3.045055994005266e-08
    vertex 4.9999999903550325 4.843108163053641 10.000000030450561
  endloop
endfacet
facet normal 0.9920062509427783 -0.12618873995112906 -2.148897851653223e-10
  outer loop
    vertex 8.61319577328743 17.35899309768963 6.689593287680265e-08
    vertex 8.91857252396916 19.75964820794194 10.000000075724428
    vertex 8.61319577328743 17.358993080660394 10.000000071636313
  endloop
endfacet
facet normal 0.9920062509427783 -0.12618873995112906 -2.148897851653223e-10
  outer loop
    vertex 8.91857252396916 19.75964820794194 10.000000075724428
    vertex 8.61319577328743 17.35899309768963 6.689593287680265e-08
    vertex 8.91857252396916 19.759648224971176 7.098406518770713e-08
  endloop
endfacet
facet normal -0.1530622957556088 0.9882165418662161 -5.5658833006164534e-11
  outer loop
    vertex 20.99999994084815 4.766666649430117 10.000000000001624
    vertex 22.999999990119136 5.0764414665142885 1.1333678085537523e-07
    vertex 20.999999944091456 4.766666649369239 1.6232941050839415e-12
  endloop
endfacet
facet normal -0.1530622957556088 0.9882165418662161 -5.5658833006164534e-11
  outer loop
    vertex 22.999999990119136 5.0764414665142885 1.1333678085537523e-07
    vertex 20.99999994084815 4.766666649430117 10.000000000001624
    vertex 22.999999986875824 5.076441466575165 10.000000113336782
  endloop
endfacet
facet normal 2.2558711832306232e-09 -1.0 5.807544728595591e-10
  outer loop
    vertex 3.000000015122786 1.2514278058262107e-08 1.1333678139416055e-07
    vertex 0.0 1.1554214829345709e-08 10.000000079835367
    vertex 1.7629521009698834e-09 0.0 9.51493418658857e-08
  endloop
endfacet
facet normal 2.2558711832306232e-09 -1.0 5.807544728595591e-10
  outer loop
    vertex 0.0 1.1554214829345709e-08 10.000000079835367
    vertex 3.000000015122786 1.2514278058262107e-08 1.1333678139416055e-07
    vertex 3.000000011879476 1.257515549468735e-08 10.000000113336782
  endloop
endfacet
facet normal -0.7933533402912376 -0.6087614290087175 -1.0366742149408956e-09
  outer loop
    vertex 17.36142749133654 19.75964820794194 10.000000075724428
    vertex 18.310171668245946 18.52322074128748 6.887852140094518e-08
    vertex 18.310171668245946 18.523220724258245 10.000000073618882
  endloop
endfacet
facet normal -0.7933533402912376 -0.6087614290087175 -1.0366742149408956e-09
  outer loop
    vertex 18.310171668245946 18.52322074128748 6.887852140094518e-08
    vertex 17.36142749133654 19.75964820794194 10.000000075724428
    vertex 17.36142749133654 19.759648224971176 7.098406518770713e-08
  endloop
endfacet
facet normal -0.9920062509427783 0.12618873995112906 2.1488978516532233e-10
  outer loop
    vertex 5.933607889650987 20.13935239392395 10.000000076371034
    vertex 5.628231138969249 17.73869728367164 6.754254078559808e-08
    vertex 5.628231138969249 17.738697266642404 10.000000072282921
  endloop
endfacet
facet normal -0.9920062509427783 0.12618873995112906 2.1488978516532233e-10
  outer loop
    vertex 5.628231138969249 17.73869728367164 6.754254078559808e-08
    vertex 5.933607889650987 20.13935239392395 10.000000076371034
    vertex 5.933607889650987 20.139352410953187 7.163067309650256e-08
  endloop
endfacet
facet normal 0.8197261107227257 0.5727557100539408 9.753602556969803e-10
  outer loop
    vertex 20.72789297874138 19.4785735502762 7.050541598043057e-08
    vertex 20.088698211448218 20.393387006757685 10.000000076803637
    vertex 20.72789297874138 19.478573533246962 10.000000075245778
  endloop
endfacet
facet normal 0.8197261107227257 0.5727557100539408 9.753602556969803e-10
  outer loop
    vertex 20.088698211448218 20.393387006757685 10.000000076803637
    vertex 20.72789297874138 19.4785735502762 7.050541598043057e-08
    vertex 19.449503444155056 21.30820049729763 7.362113420995087e-08
  endloop
endfacet
facet normal 0.8197261107227257 0.5727557100539408 9.753602556969803e-10
  outer loop
    vertex 20.088698211448218 20.393387006757685 10.000000076803637
    vertex 19.449503444155056 21.30820049729763 7.362113420995087e-08
    vertex 19.449503444155056 21.308200480268393 10.000000078361497
  endloop
endfacet
facet normal -0.11588068475464837 -0.9932631408145548 -3.153691571899552e-11
  outer loop
    vertex 23.00000001512272 1.2514278058262107e-08 1.522518979903467e-08
    vertex 21.00000000840015 0.23333331609673147 10.0
    vertex 21.000000011643454 0.23333331603585403 0.0
  endloop
endfacet
facet normal -0.11588068475464837 -0.9932631408145548 -3.153691571899552e-11
  outer loop
    vertex 21.00000000840015 0.23333331609673147 10.0
    vertex 23.00000001512272 1.2514278058262107e-08 1.522518979903467e-08
    vertex 23.000000011879415 1.257515549468735e-08 10.00000001522519
  endloop
endfacet
facet normal 0.9400347067837502 0.34107880327277557 5.808317628847801e-10
  outer loop
    vertex 21.48918014693404 17.3804180710631 6.693241368857288e-08
    vertex 20.72789297874138 19.478573533246962 10.000000075245778
    vertex 21.48918014693404 17.380418054033864 10.000000071672773
  endloop
endfacet
facet normal 0.9400347067837502 0.34107880327277557 5.808317628847801e-10
  outer loop
    vertex 20.72789297874138 19.478573533246962 10.000000075245778
    vertex 21.48918014693404 17.3804180710631 6.693241368857288e-08
    vertex 20.72789297874138 19.4785735502762 7.050541598043057e-08
  endloop
endfacet
facet normal 0.17463444506525663 0.9846333381501714 1.676757136782586e-09
  outer loop
    vertex 13.521500860739515 24.0797052199419 7.834080004215902e-08
    vertex 15.719200390923902 23.689921490536076 10.000000082417387
    vertex 15.719200390923902 23.689921507565312 7.767702745168701e-08
  endloop
endfacet
facet normal 0.17463444506525663 0.9846333381501714 1.676757136782586e-09
  outer loop
    vertex 15.719200390923902 23.689921490536076 10.000000082417387
    vertex 13.521500860739515 24.0797052199419 7.834080004215902e-08
    vertex 13.521500860739515 24.079705202912663 10.000000083081162
  endloop
endfacet
facet normal -1.915555776160504e-09 -1.0 5.807544718153943e-10
  outer loop
    vertex 26.00000000140089 1.0209463052746058e-09 5.483241330086296e-08
    vertex 23.000000011879415 1.257515549468735e-08 10.00000001522519
    vertex 23.00000001512272 1.2514278058262107e-08 1.522518979903467e-08
  endloop
endfacet
facet normal -1.915555776160504e-09 -1.0 5.807544718153943e-10
  outer loop
    vertex 23.000000011879415 1.257515549468735e-08 10.00000001522519
    vertex 26.00000000140089 1.0209463052746058e-09 5.483241330086296e-08
    vertex 25.999999999637915 1.257515549468735e-08 10.000000039518445
  endloop
endfacet
facet normal 3.140257676892887e-10 1.0 1.0744820527898432e-09
  outer loop
    vertex 1.145584452855175e-08 15.538220738493397 1.0005141737557251e-07
    vertex 18.31017166601289 15.538220724856592 10.00000006912607
    vertex 18.310171659666878 15.538220740122707 6.583634043488829e-08
  endloop
endfacet
facet normal 3.140257676892887e-10 1.0 1.0744820527898432e-09
  outer loop
    vertex 18.31017166601289 15.538220724856592 10.00000006912607
    vertex 1.145584452855175e-08 15.538220738493397 1.0005141737557251e-07
    vertex 8.212535512752694e-09 15.538220738554287 10.00000010005141
  endloop
endfacet
facet normal -0.3826834323650918 -0.9238795325112861 -1.5732979370533904e-09
  outer loop
    vertex 16.12500000765285 20.708392384851347 10.000000077340065
    vertex 14.685149706914899 21.304797924233227 7.361533988180038e-08
    vertex 16.12500000765285 20.708392401880584 7.259970575966097e-08
  endloop
endfacet
facet normal -0.3826834323650918 -0.9238795325112861 -1.5732979370533904e-09
  outer loop
    vertex 14.685149706914899 21.304797924233227 7.361533988180038e-08
    vertex 16.12500000765285 20.708392384851347 10.000000077340065
    vertex 14.685149706914899 21.30479790720399 10.000000078355702
  endloop
endfacet
facet normal 0.9962814910582661 0.08615793970794684 1.467203904838657e-10
  outer loop
    vertex 21.64849247772958 15.538220741287487 6.379528903477412e-08
    vertex 21.48918014693404 17.380418054033864 10.000000071672773
    vertex 21.64849247772958 15.538220724258252 10.00000006853565
  endloop
endfacet
facet normal 0.9962814910582661 0.08615793970794684 1.467203904838657e-10
  outer loop
    vertex 21.48918014693404 17.380418054033864 10.000000071672773
    vertex 21.64849247772958 15.538220741287487 6.379528903477412e-08
    vertex 21.48918014693404 17.3804180710631 6.693241368857288e-08
  endloop
endfacet
facet normal 0.3826834323650918 -0.9238795325112861 -1.5732979370533908e-09
  outer loop
    vertex 11.5948503083908 21.304797924233227 7.361533988180038e-08
    vertex 10.15500000765285 20.708392384851347 10.000000077340065
    vertex 10.15500000765285 20.708392401880584 7.259970575966099e-08
  endloop
endfacet
facet normal 0.3826834323650918 -0.9238795325112861 -1.5732979370533908e-09
  outer loop
    vertex 10.15500000765285 20.708392384851347 10.000000077340065
    vertex 11.5948503083908 21.304797924233227 7.361533988180038e-08
    vertex 11.5948503083908 21.30479790720399 10.000000078355702
  endloop
endfacet
facet normal 0.6087614290087188 -0.7933533402912366 -1.3510201400754481e-09
  outer loop
    vertex 10.15500000765285 20.708392401880584 7.259970575966099e-08
    vertex 8.91857252396916 19.75964820794194 10.000000075724428
    vertex 8.91857252396916 19.759648224971176 7.098406518770713e-08
  endloop
endfacet
facet normal 0.6087614290087188 -0.7933533402912366 -1.3510201400754481e-09
  outer loop
    vertex 8.91857252396916 19.75964820794194 10.000000075724428
    vertex 10.15500000765285 20.708392401880584 7.259970575966099e-08
    vertex 10.15500000765285 20.708392384851347 10.000000077340065
  endloop
endfacet
facet normal -0.6087614290087193 -0.7933533402912362 -1.3510215668939181e-09
  outer loop
    vertex 17.36142749133654 19.75964820794194 10.000000075724428
    vertex 16.12500000765285 20.708392401880584 7.259970575966097e-08
    vertex 17.36142749133654 19.759648224971176 7.098406518770713e-08
  endloop
endfacet
facet normal -0.6087614290087193 -0.7933533402912362 -1.3510215668939181e-09
  outer loop
    vertex 16.12500000765285 20.708392401880584 7.259970575966097e-08
    vertex 17.36142749133654 19.75964820794194 10.000000075724428
    vertex 16.12500000765285 20.708392384851347 10.000000077340065
  endloop
endfacet
facet normal -0.7654002617184938 0.6435545348773958 1.0959242208409905e-09
  outer loop
    vertex 7.370020251642711 21.84772416076046 10.000000079280264
    vertex 5.933607889650987 20.139352410953187 7.163067309650256e-08
    vertex 5.933607889650987 20.13935239392395 10.000000076371034
  endloop
endfacet
facet normal -0.7654002617184938 0.6435545348773958 1.0959242208409905e-09
  outer loop
    vertex 5.933607889650987 20.139352410953187 7.163067309650256e-08
    vertex 7.370020251642711 21.84772416076046 10.000000079280264
    vertex 7.370020251642711 21.847724177789697 7.453990279788823e-08
  endloop
endfacet
facet normal -0.5727557100539417 0.8197261107227249 1.395932427946831e-09
  outer loop
    vertex 7.370020251642711 21.84772416076046 10.000000079280264
    vertex 9.199647198664133 23.126113712376018 7.671690482763147e-08
    vertex 7.370020251642711 21.847724177789697 7.453990279788823e-08
  endloop
endfacet
facet normal -0.5727557100539417 0.8197261107227249 1.395932427946831e-09
  outer loop
    vertex 9.199647198664133 23.126113712376018 7.671690482763147e-08
    vertex 7.370020251642711 21.84772416076046 10.000000079280264
    vertex 9.199647198664133 23.126113695346785 10.000000081457268
  endloop
endfacet
facet normal -1.9637016309050073e-09 1.0 8.484173715955453e-10
  outer loop
    vertex 21.64849247772958 15.538220724258252 10.00000006853565
    vertex 26.000000007652844 15.538220741287487 6.379528903477412e-08
    vertex 21.64849247772958 15.538220741287487 6.379528903477412e-08
  endloop
endfacet
facet normal -1.9637016309050073e-09 1.0 8.484173715955453e-10
  outer loop
    vertex 26.000000007652844 15.538220741287487 6.379528903477412e-08
    vertex 21.64849247772958 15.538220724258252 10.00000006853565
    vertex 26.000000004409532 15.538220741348377 10.000000063795284
  endloop
endfacet
facet normal -0.34107880327277573 0.9400347067837503 1.600808993918692e-09
  outer loop
    vertex 9.199647198664133 23.126113695346785 10.000000081457268
    vertex 11.29780267787724 23.887400880568684 7.801332009507124e-08
    vertex 9.199647198664133 23.126113712376018 7.671690482763147e-08
  endloop
endfacet
facet normal -0.34107880327277573 0.9400347067837503 1.600808993918692e-09
  outer loop
    vertex 11.29780267787724 23.887400880568684 7.801332009507124e-08
    vertex 9.199647198664133 23.126113695346785 10.000000081457268
    vertex 11.29780267787724 23.887400863539447 10.000000082753681
  endloop
endfacet
facet normal 0.4235257810043236 0.9058840504306707 1.5426529732486882e-09
  outer loop
    vertex 15.719200390923902 23.689921507565312 7.767702745168701e-08
    vertex 17.74113167731854 22.744612842260118 10.000000080807597
    vertex 17.74113167731854 22.744612859289354 7.606723732875977e-08
  endloop
endfacet
facet normal 0.4235257810043236 0.9058840504306707 1.5426529732486882e-09
  outer loop
    vertex 17.74113167731854 22.744612842260118 10.000000080807597
    vertex 15.719200390923902 23.689921507565312 7.767702745168701e-08
    vertex 15.719200390923902 23.689921490536076 10.000000082417387
  endloop
endfacet
facet normal -0.08615793970794736 0.996281491058266 1.6965930724169366e-09
  outer loop
    vertex 11.29780267787724 23.887400863539447 10.000000082753681
    vertex 13.521500860739515 24.0797052199419 7.834080004215902e-08
    vertex 11.29780267787724 23.887400880568684 7.801332009507124e-08
  endloop
endfacet
facet normal -0.08615793970794736 0.996281491058266 1.6965930724169366e-09
  outer loop
    vertex 13.521500860739515 24.0797052199419 7.834080004215902e-08
    vertex 11.29780267787724 23.887400863539447 10.000000082753681
    vertex 13.521500860739515 24.079705202912663 10.000000083081162
  endloop
endfacet
facet normal -0.1305261922200501 -0.9914448613738106 -1.688356652800452e-09
  outer loop
    vertex 14.685149706914899 21.30479790720399 10.000000078355702
    vertex 13.140000007652848 21.508220741287484 7.396175376711626e-08
    vertex 14.685149706914899 21.304797924233227 7.361533988180038e-08
  endloop
endfacet
facet normal -0.1305261922200501 -0.9914448613738106 -1.688356652800452e-09
  outer loop
    vertex 13.140000007652848 21.508220741287484 7.396175376711626e-08
    vertex 14.685149706914899 21.30479790720399 10.000000078355702
    vertex 13.140000007652848 21.50822072425825 10.000000078702115
  endloop
endfacet
facet normal 1.0 -1.675452228541624e-09 3.243309720892673e-10
  outer loop
    vertex 3.0000000026209297 12.5382207395143 6.42809854934122e-08
    vertex 2.9999999868757654 5.076441466575165 10.00000001522519
    vertex 2.999999990119075 5.0764414665142885 1.522518959266389e-08
  endloop
endfacet
facet normal 1.0 -1.675452228541624e-09 3.243309720892673e-10
  outer loop
    vertex 2.9999999868757654 5.076441466575165 10.00000001522519
    vertex 3.0000000026209297 12.5382207395143 6.42809854934122e-08
    vertex 2.99999999937762 12.538220739575165 10.000000064280986
  endloop
endfacet
facet normal -4.564754272786618e-06 -0.9999997461333658 -0.0007125393792516968
  outer loop
    vertex 22.99999999937762 12.538220739575165 10.000000064280986
    vertex 3.0000000026209297 12.5382207395143 6.42809854934122e-08
    vertex 23.00000000262093 12.5382207395143 6.42809854934122e-08
  endloop
endfacet
facet normal -4.564754272786618e-06 -0.9999997461333658 -0.0007125393792516968
  outer loop
    vertex 3.0000000026209297 12.5382207395143 6.42809854934122e-08
    vertex 22.99999999937762 12.538220739575165 10.000000064280986
    vertex 2.99999999937762 12.538220739575165 10.000000064280986
  endloop
endfacet
facet normal 7.007881049695287e-10 -1.7548894247667427e-09 1.0
  outer loop
    vertex 3.000000011879476 1.257515549468735e-08 10.000000113336782
    vertex 8.212535512752694e-09 15.538220738554287 10.00000010005141
    vertex 0.0 1.1554214829345709e-08 10.000000079835367
  endloop
endfacet
facet normal 7.007881049695287e-10 -1.7548894247667427e-09 1.0
  outer loop
    vertex 8.212535512752694e-09 15.538220738554287 10.00000010005141
    vertex 3.000000011879476 1.257515549468735e-08 10.000000113336782
    vertex 2.9999999868757654 5.076441466575165 10.00000001522519
  endloop
endfacet
facet normal 7.007881049695287e-10 -1.7548894247667427e-09 1.0
  outer loop
    vertex 2.9999999868757654 5.076441466575165 10.00000001522519
    vertex 3.000000011879476 1.257515549468735e-08 10.000000113336782
    vertex 4.9999999903550325 4.843108163053641 10.000000030450561
  endloop
endfacet
facet normal 7.007881049695287e-10 -1.7548894247667427e-09 1.0
  outer loop
    vertex 4.9999999903550325 4.843108163053641 10.000000030450561
    vertex 3.000000011879476 1.257515549468735e-08 10.000000113336782
    vertex 5.000000057907147 0.30977482972025516 10.000000030452185
  endloop
endfacet
facet normal 7.007881049695287e-10 -1.7548894247667427e-09 1.0
  outer loop
    vertex 21.00000000840015 0.23333331609673147 10.0
    vertex 22.999999986875824 5.076441466575165 10.000000113336782
    vertex 20.99999994084815 4.766666649430117 10.000000000001624
  endloop
endfacet
facet normal 7.007881049695287e-10 -1.7548894247667427e-09 1.0
  outer loop
    vertex 22.999999986875824 5.076441466575165 10.000000113336782
    vertex 21.00000000840015 0.23333331609673147 10.0
    vertex 23.000000011879415 1.257515549468735e-08 10.00000001522519
  endloop
endfacet
facet normal 7.007881049695287e-10 -1.7548894247667427e-09 1.0
  outer loop
    vertex 22.999999986875824 5.076441466575165 10.000000113336782
    vertex 23.000000011879415 1.257515549468735e-08 10.00000001522519
    vertex 22.99999999937762 12.538220739575165 10.000000064280986
  endloop
endfacet
facet normal 7.007881049695287e-10 -1.7548894247667427e-09 1.0
  outer loop
    vertex 8.212535512752694e-09 15.538220738554287 10.00000010005141
    vertex 2.99999999937762 12.538220739575165 10.000000064280986
    vertex 18.31017166601289 15.538220724856592 10.00000006912607
  endloop
endfacet
facet normal 7.007881049695287e-10 -1.7548894247667427e-09 1.0
  outer loop
    vertex 2.99999999937762 12.538220739575165 10.000000064280986
    vertex 8.212535512752694e-09 15.538220738554287 10.00000010005141
    vertex 2.9999999868757654 5.076441466575165 10.00000001522519
  endloop
endfacet
facet normal 7.007881049695287e-10 -1.7548894247667427e-09 1.0
  outer loop
    vertex 18.31017166601289 15.538220724856592 10.00000006912607
    vertex 2.99999999937762 12.538220739575165 10.000000064280986
    vertex 22.99999999937762 12.538220739575165 10.000000064280986
  endloop
endfacet
facet normal 7.007881049695287e-10 -1.7548894247667427e-09 1.0
  outer loop
    vertex 18.31017166601289 15.538220724856592 10.00000006912607
    vertex 22.99999999937762 12.538220739575165 10.000000064280986
    vertex 18.310171668245946 18.523220724258245 10.000000073618882
  endloop
endfacet
facet normal 7.007881049695287e-10 -1.7548894247667427e-09 1.0
  outer loop
    vertex 18.310171668245946 18.523220724258245 10.000000073618882
    vertex 22.99999999937762 12.538220739575165 10.000000064280986
    vertex 21.64849247772958 15.538220724258252 10.00000006853565
  endloop
endfacet
facet normal 7.007881049695287e-10 -1.7548894247667427e-09 1.0
  outer loop
    vertex 18.310171668245946 18.523220724258245 10.000000073618882
    vertex 21.64849247772958 15.538220724258252 10.00000006853565
    vertex 19.449503444155056 21.308200480268393 10.000000078361497
  endloop
endfacet
facet normal 7.007881049695287e-10 -1.7548894247667427e-09 1.0
  outer loop
    vertex 19.449503444155056 21.308200480268393 10.000000078361497
    vertex 21.64849247772958 15.538220724258252 10.00000006853565
    vertex 20.088698211448218 20.393387006757685 10.000000076803637
  endloop
endfacet
facet normal 7.007881049695287e-10 -1.7548894247667427e-09 1.0
  outer loop
    vertex 20.088698211448218 20.393387006757685 10.000000076803637
    vertex 21.64849247772958 15.538220724258252 10.00000006853565
    vertex 20.72789297874138 19.478573533246962 10.000000075245778
  endloop
endfacet
facet normal 7.007881049695287e-10 -1.7548894247667427e-09 1.0
  outer loop
    vertex 20.72789297874138 19.478573533246962 10.000000075245778
    vertex 21.64849247772958 15.538220724258252 10.00000006853565
    vertex 21.48918014693404 17.380418054033864 10.000000071672773
  endloop
endfacet
facet normal 7.007881049695287e-10 -1.7548894247667427e-09 1.0
  outer loop
    vertex 21.64849247772958 15.538220724258252 10.00000006853565
    vertex 22.99999999937762 12.538220739575165 10.000000064280986
    vertex 26.000000004409532 15.538220741348377 10.000000063795284
  endloop
endfacet
facet normal 7.007881049695287e-10 -1.7548894247667427e-09 1.0
  outer loop
    vertex 26.000000004409532 15.538220741348377 10.000000063795284
    vertex 22.99999999937762 12.538220739575165 10.000000064280986
    vertex 23.000000011879415 1.257515549468735e-08 10.00000001522519
  endloop
endfacet
facet normal 7.007881049695287e-10 -1.7548894247667427e-09 1.0
  outer loop
    vertex 26.000000004409532 15.538220741348377 10.000000063795284
    vertex 23.000000011879415 1.257515549468735e-08 10.00000001522519
    vertex 25.999999999637915 1.257515549468735e-08 10.000000039518445
  endloop
endfacet
facet normal 7.007881049695287e-10 -1.7548894247667427e-09 1.0
  outer loop
    vertex 8.61319577328743 17.358993080660394 10.000000071636313
    vertex 5.933607889650987 20.13935239392395 10.000000076371034
    vertex 5.628231138969249 17.738697266642404 10.000000072282921
  endloop
endfacet
facet normal 7.007881049695287e-10 -1.7548894247667427e-09 1.0
  outer loop
    vertex 5.933607889650987 20.13935239392395 10.000000076371034
    vertex 8.61319577328743 17.358993080660394 10.000000071636313
    vertex 7.370020251642711 21.84772416076046 10.000000079280264
  endloop
endfacet
facet normal 7.007881049695287e-10 -1.7548894247667427e-09 1.0
  outer loop
    vertex 7.370020251642711 21.84772416076046 10.000000079280264
    vertex 8.61319577328743 17.358993080660394 10.000000071636313
    vertex 9.199647198664133 23.126113695346785 10.000000081457268
  endloop
endfacet
facet normal 7.007881049695287e-10 -1.7548894247667427e-09 1.0
  outer loop
    vertex 9.199647198664133 23.126113695346785 10.000000081457268
    vertex 8.61319577328743 17.358993080660394 10.000000071636313
    vertex 8.91857252396916 19.75964820794194 10.000000075724428
  endloop
endfacet
facet normal 7.007881049695287e-10 -1.7548894247667427e-09 1.0
  outer loop
    vertex 9.199647198664133 23.126113695346785 10.000000081457268
    vertex 8.91857252396916 19.75964820794194 10.000000075724428
    vertex 10.15500000765285 20.708392384851347 10.000000077340065
  endloop
endfacet
facet normal 7.007881049695287e-10 -1.7548894247667427e-09 1.0
  outer loop
    vertex 9.199647198664133 23.126113695346785 10.000000081457268
    vertex 10.15500000765285 20.708392384851347 10.000000077340065
    vertex 11.29780267787724 23.887400863539447 10.000000082753681
  endloop
endfacet
facet normal 7.007881049695287e-10 -1.7548894247667427e-09 1.0
  outer loop
    vertex 11.29780267787724 23.887400863539447 10.000000082753681
    vertex 10.15500000765285 20.708392384851347 10.000000077340065
    vertex 11.5948503083908 21.30479790720399 10.000000078355702
  endloop
endfacet
facet normal 7.007881049695287e-10 -1.7548894247667427e-09 1.0
  outer loop
    vertex 11.29780267787724 23.887400863539447 10.000000082753681
    vertex 11.5948503083908 21.30479790720399 10.000000078355702
    vertex 13.521500860739515 24.079705202912663 10.000000083081162
  endloop
endfacet
facet normal 7.007881049695287e-10 -1.7548894247667427e-09 1.0
  outer loop
    vertex 13.521500860739515 24.079705202912663 10.000000083081162
    vertex 11.5948503083908 21.30479790720399 10.000000078355702
    vertex 13.140000007652848 21.50822072425825 10.000000078702115
  endloop
endfacet
facet normal 7.007881049695287e-10 -1.7548894247667427e-09 1.0
  outer loop
    vertex 13.521500860739515 24.079705202912663 10.000000083081162
    vertex 13.140000007652848 21.50822072425825 10.000000078702115
    vertex 14.685149706914899 21.30479790720399 10.000000078355702
  endloop
endfacet
facet normal 7.007881049695287e-10 -1.7548894247667427e-09 1.0
  outer loop
    vertex 13.521500860739515 24.079705202912663 10.000000083081162
    vertex 14.685149706914899 21.30479790720399 10.000000078355702
    vertex 15.719200390923902 23.689921490536076 10.000000082417387
  endloop
endfacet
facet normal 7.007881049695287e-10 -1.7548894247667427e-09 1.0
  outer loop
    vertex 15.719200390923902 23.689921490536076 10.000000082417387
    vertex 14.685149706914899 21.30479790720399 10.000000078355702
    vertex 16.12500000765285 20.708392384851347 10.000000077340065
  endloop
endfacet
facet normal 7.007881049695287e-10 -1.7548894247667427e-09 1.0
  outer loop
    vertex 15.719200390923902 23.689921490536076 10.000000082417387
    vertex 16.12500000765285 20.708392384851347 10.000000077340065
    vertex 17.74113167731854 22.744612842260118 10.000000080807597
  endloop
endfacet
facet normal 7.007881049695287e-10 -1.7548894247667427e-09 1.0
  outer loop
    vertex 17.74113167731854 22.744612842260118 10.000000080807597
    vertex 16.12500000765285 20.708392384851347 10.000000077340065
    vertex 17.36142749133654 19.75964820794194 10.000000075724428
  endloop
endfacet
facet normal 7.007881049695287e-10 -1.7548894247667427e-09 1.0
  outer loop
    vertex 17.74113167731854 22.744612842260118 10.000000080807597
    vertex 17.36142749133654 19.75964820794194 10.000000075724428
    vertex 18.310171668245946 18.523220724258245 10.000000073618882
  endloop
endfacet
facet normal 7.007881049695287e-10 -1.7548894247667427e-09 1.0
  outer loop
    vertex 17.74113167731854 22.744612842260118 10.000000080807597
    vertex 18.310171668245946 18.523220724258245 10.000000073618882
    vertex 19.449503444155056 21.308200480268393 10.000000078361497
  endloop
endfacet
endsolid cable_fix_x4
