solid Untitled-5817afde
facet normal -0.0 1.0 -0.0
  outer loop
    vertex 1.9999999999999998 15.0 6.0
    vertex 3.9999999999999996 15.0 0.0
    vertex 0.0 15.0 0.0
  endloop
endfacet
facet normal -0.0 1.0 -0.0
  outer loop
    vertex 3.9999999999999996 15.0 0.0
    vertex 1.9999999999999998 15.0 6.0
    vertex 3.9999999999999996 15.0 3.9999999999999996
  endloop
endfacet
facet normal -0.0 1.0 -0.0
  outer loop
    vertex 3.9999999999999996 15.0 3.9999999999999996
    vertex 1.9999999999999998 15.0 6.0
    vertex 15.999999999999998 15.0 3.9999999999999996
  endloop
endfacet
facet normal -0.0 1.0 -0.0
  outer loop
    vertex 15.999999999999998 15.0 3.9999999999999996
    vertex 20.0 15.0 0.0
    vertex 15.999999999999998 15.0 0.0
  endloop
endfacet
facet normal -0.0 1.0 -0.0
  outer loop
    vertex 20.0 15.0 0.0
    vertex 15.999999999999998 15.0 3.9999999999999996
    vertex 18.0 15.0 6.0
  endloop
endfacet
facet normal -0.0 1.0 -0.0
  outer loop
    vertex 18.0 15.0 6.0
    vertex 15.999999999999998 15.0 3.9999999999999996
    vertex 1.9999999999999998 15.0 6.0
  endloop
endfacet
facet normal 0.0 0.0 -1.0
  outer loop
    vertex 3.9999999999999996 10.000000000000002 0.0
    vertex 7.971555764792956 6.543519994715294 0.0
    vertex 7.8999999999999995 6.0 0.0
  endloop
endfacet
facet normal 0.0 0.0 -1.0
  outer loop
    vertex 7.971555764792956 6.543519994715294 0.0
    vertex 3.9999999999999996 10.000000000000002 0.0
    vertex 8.181346652052678 7.049999999999998 0.0
  endloop
endfacet
facet normal 0.0 0.0 -1.0
  outer loop
    vertex 8.181346652052678 7.049999999999998 0.0
    vertex 3.9999999999999996 10.000000000000002 0.0
    vertex 8.51507575950825 7.48492424049175 0.0
  endloop
endfacet
facet normal 0.0 0.0 -1.0
  outer loop
    vertex 8.51507575950825 7.48492424049175 0.0
    vertex 3.9999999999999996 10.000000000000002 0.0
    vertex 8.95 7.818653347947321 0.0
  endloop
endfacet
facet normal 0.0 0.0 -1.0
  outer loop
    vertex 8.95 7.818653347947321 0.0
    vertex 3.9999999999999996 10.000000000000002 0.0
    vertex 9.456480005284705 8.028444235207044 0.0
  endloop
endfacet
facet normal 0.0 0.0 -1.0
  outer loop
    vertex 9.456480005284705 8.028444235207044 0.0
    vertex 3.9999999999999996 10.000000000000002 0.0
    vertex 15.999999999999998 10.000000000000002 0.0
  endloop
endfacet
facet normal 0.0 0.0 -1.0
  outer loop
    vertex 9.456480005284705 8.028444235207044 0.0
    vertex 15.999999999999998 10.000000000000002 0.0
    vertex 10.0 8.100000000000001 0.0
  endloop
endfacet
facet normal 0.0 0.0 -1.0
  outer loop
    vertex 10.0 8.100000000000001 0.0
    vertex 15.999999999999998 10.000000000000002 0.0
    vertex 10.543519994715293 8.028444235207044 0.0
  endloop
endfacet
facet normal 0.0 0.0 -1.0
  outer loop
    vertex 10.543519994715293 8.028444235207044 0.0
    vertex 15.999999999999998 10.000000000000002 0.0
    vertex 11.049999999999999 7.818653347947321 0.0
  endloop
endfacet
facet normal 0.0 0.0 -1.0
  outer loop
    vertex 11.049999999999999 7.818653347947321 0.0
    vertex 15.999999999999998 10.000000000000002 0.0
    vertex 11.48492424049175 7.48492424049175 0.0
  endloop
endfacet
facet normal 0.0 0.0 -1.0
  outer loop
    vertex 11.48492424049175 7.48492424049175 0.0
    vertex 15.999999999999998 10.000000000000002 0.0
    vertex 11.818653347947322 7.050000000000002 0.0
  endloop
endfacet
facet normal 0.0 0.0 -1.0
  outer loop
    vertex 11.818653347947322 7.050000000000002 0.0
    vertex 15.999999999999998 10.000000000000002 0.0
    vertex 12.028444235207044 6.543519994715295 0.0
  endloop
endfacet
facet normal 0.0 0.0 -1.0
  outer loop
    vertex 12.028444235207044 6.543519994715295 0.0
    vertex 15.999999999999998 10.000000000000002 0.0
    vertex 12.1 6.0 0.0
  endloop
endfacet
facet normal 0.0 0.0 -1.0
  outer loop
    vertex 20.0 15.0 0.0
    vertex 15.999999999999998 10.000000000000002 0.0
    vertex 15.999999999999998 15.0 0.0
  endloop
endfacet
facet normal 0.0 0.0 -1.0
  outer loop
    vertex 3.9999999999999996 15.0 0.0
    vertex 0.0 0.0 0.0
    vertex 0.0 15.0 0.0
  endloop
endfacet
facet normal 0.0 0.0 -1.0
  outer loop
    vertex 0.0 0.0 0.0
    vertex 3.9999999999999996 15.0 0.0
    vertex 3.9999999999999996 10.000000000000002 0.0
  endloop
endfacet
facet normal 0.0 0.0 -1.0
  outer loop
    vertex 0.0 0.0 0.0
    vertex 3.9999999999999996 10.000000000000002 0.0
    vertex 8.515075759508251 4.51507575950825 0.0
  endloop
endfacet
facet normal 0.0 0.0 -1.0
  outer loop
    vertex 0.0 0.0 0.0
    vertex 8.515075759508251 4.51507575950825 0.0
    vertex 8.950000000000001 4.181346652052678 0.0
  endloop
endfacet
facet normal 0.0 0.0 -1.0
  outer loop
    vertex 0.0 0.0 0.0
    vertex 8.950000000000001 4.181346652052678 0.0
    vertex 9.456480005284707 3.971555764792956 0.0
  endloop
endfacet
facet normal 0.0 0.0 -1.0
  outer loop
    vertex 0.0 0.0 0.0
    vertex 9.456480005284707 3.971555764792956 0.0
    vertex 20.0 0.0 0.0
  endloop
endfacet
facet normal 0.0 0.0 -1.0
  outer loop
    vertex 8.515075759508251 4.51507575950825 0.0
    vertex 3.9999999999999996 10.000000000000002 0.0
    vertex 8.181346652052678 4.949999999999999 0.0
  endloop
endfacet
facet normal 0.0 0.0 -1.0
  outer loop
    vertex 8.181346652052678 4.949999999999999 0.0
    vertex 3.9999999999999996 10.000000000000002 0.0
    vertex 7.9715557647929565 5.456480005284705 0.0
  endloop
endfacet
facet normal 0.0 0.0 -1.0
  outer loop
    vertex 7.9715557647929565 5.456480005284705 0.0
    vertex 3.9999999999999996 10.000000000000002 0.0
    vertex 7.8999999999999995 6.0 0.0
  endloop
endfacet
facet normal 0.0 0.0 -1.0
  outer loop
    vertex 20.0 0.0 0.0
    vertex 9.456480005284707 3.971555764792956 0.0
    vertex 10.0 3.9 0.0
  endloop
endfacet
facet normal 0.0 0.0 -1.0
  outer loop
    vertex 20.0 0.0 0.0
    vertex 10.0 3.9 0.0
    vertex 10.543519994715295 3.971555764792957 0.0
  endloop
endfacet
facet normal 0.0 0.0 -1.0
  outer loop
    vertex 20.0 0.0 0.0
    vertex 10.543519994715295 3.971555764792957 0.0
    vertex 11.05 4.181346652052679 0.0
  endloop
endfacet
facet normal 0.0 0.0 -1.0
  outer loop
    vertex 20.0 0.0 0.0
    vertex 11.05 4.181346652052679 0.0
    vertex 11.48492424049175 4.5150757595082505 0.0
  endloop
endfacet
facet normal 0.0 0.0 -1.0
  outer loop
    vertex 20.0 0.0 0.0
    vertex 11.48492424049175 4.5150757595082505 0.0
    vertex 11.818653347947322 4.950000000000001 0.0
  endloop
endfacet
facet normal 0.0 0.0 -1.0
  outer loop
    vertex 20.0 0.0 0.0
    vertex 11.818653347947322 4.950000000000001 0.0
    vertex 12.028444235207044 5.456480005284707 0.0
  endloop
endfacet
facet normal 0.0 0.0 -1.0
  outer loop
    vertex 20.0 0.0 0.0
    vertex 12.028444235207044 5.456480005284707 0.0
    vertex 12.1 6.0 0.0
  endloop
endfacet
facet normal 0.0 0.0 -1.0
  outer loop
    vertex 20.0 0.0 0.0
    vertex 12.1 6.0 0.0
    vertex 15.999999999999998 10.000000000000002 0.0
  endloop
endfacet
facet normal 0.0 0.0 -1.0
  outer loop
    vertex 20.0 0.0 0.0
    vertex 15.999999999999998 10.000000000000002 0.0
    vertex 20.0 15.0 0.0
  endloop
endfacet
facet normal -0.0 1.0 -0.0
  outer loop
    vertex 3.9999999999999996 10.000000000000002 3.9999999999999996
    vertex 15.999999999999998 10.000000000000002 0.0
    vertex 3.9999999999999996 10.000000000000002 0.0
  endloop
endfacet
facet normal -0.0 1.0 -0.0
  outer loop
    vertex 15.999999999999998 10.000000000000002 0.0
    vertex 3.9999999999999996 10.000000000000002 3.9999999999999996
    vertex 15.999999999999998 10.000000000000002 3.9999999999999996
  endloop
endfacet
facet normal -1.0 0.0 0.0
  outer loop
    vertex 15.999999999999998 15.0 3.9999999999999996
    vertex 15.999999999999998 10.000000000000002 0.0
    vertex 15.999999999999998 10.000000000000002 3.9999999999999996
  endloop
endfacet
facet normal -1.0 0.0 0.0
  outer loop
    vertex 15.999999999999998 10.000000000000002 0.0
    vertex 15.999999999999998 15.0 3.9999999999999996
    vertex 15.999999999999998 15.0 0.0
  endloop
endfacet
facet normal 1.0 -0.0 -0.0
  outer loop
    vertex 3.9999999999999996 15.0 0.0
    vertex 3.9999999999999996 10.000000000000002 3.9999999999999996
    vertex 3.9999999999999996 10.000000000000002 0.0
  endloop
endfacet
facet normal 1.0 -0.0 -0.0
  outer loop
    vertex 3.9999999999999996 10.000000000000002 3.9999999999999996
    vertex 3.9999999999999996 15.0 0.0
    vertex 3.9999999999999996 15.0 3.9999999999999996
  endloop
endfacet
facet normal 0.0 0.0 1.0
  outer loop
    vertex 15.999999999999998 10.000000000000002 3.9999999999999996
    vertex 3.9999999999999996 15.0 3.9999999999999996
    vertex 3.9999999999999996 10.000000000000002 3.9999999999999996
  endloop
endfacet
facet normal 0.0 0.0 1.0
  outer loop
    vertex 3.9999999999999996 15.0 3.9999999999999996
    vertex 15.999999999999998 10.000000000000002 3.9999999999999996
    vertex 15.999999999999998 15.0 3.9999999999999996
  endloop
endfacet
facet normal 0.948683298050514 6.0366732252912856e-18 0.31622776601683783
  outer loop
    vertex 20.0 15.0 0.0
    vertex 18.0 1.9999999999999984 6.0
    vertex 20.0 0.0 0.0
  endloop
endfacet
facet normal 0.948683298050514 6.0366732252912856e-18 0.31622776601683783
  outer loop
    vertex 18.0 1.9999999999999984 6.0
    vertex 20.0 15.0 0.0
    vertex 18.0 15.0 6.0
  endloop
endfacet
facet normal -0.948683298050514 1.3582514756905397e-17 0.316227766016838
  outer loop
    vertex 1.9999999999999996 1.999999999999999 6.0
    vertex 0.0 15.0 0.0
    vertex 0.0 0.0 0.0
  endloop
endfacet
facet normal -0.948683298050514 1.3582514756905397e-17 0.316227766016838
  outer loop
    vertex 0.0 15.0 0.0
    vertex 1.9999999999999996 1.999999999999999 6.0
    vertex 1.9999999999999998 15.0 6.0
  endloop
endfacet
facet normal -6.474035786738599e-18 -0.948683298050514 0.3162277660168377
  outer loop
    vertex 18.0 1.9999999999999984 6.0
    vertex 0.0 0.0 0.0
    vertex 20.0 0.0 0.0
  endloop
endfacet
facet normal -6.474035786738599e-18 -0.948683298050514 0.3162277660168377
  outer loop
    vertex 0.0 0.0 0.0
    vertex 18.0 1.9999999999999984 6.0
    vertex 1.9999999999999996 1.999999999999999 6.0
  endloop
endfacet
facet normal -0.0 -0.0 1.0
  outer loop
    vertex 1.9999999999999996 1.999999999999999 6.0
    vertex 8.181346652052678 4.949999999999999 6.0
    vertex 1.9999999999999998 15.0 6.0
  endloop
endfacet
facet normal -0.0 -0.0 1.0
  outer loop
    vertex 8.181346652052678 4.949999999999999 6.0
    vertex 1.9999999999999996 1.999999999999999 6.0
    vertex 8.515075759508251 4.51507575950825 6.0
  endloop
endfacet
facet normal -0.0 -0.0 1.0
  outer loop
    vertex 8.515075759508251 4.51507575950825 6.0
    vertex 1.9999999999999996 1.999999999999999 6.0
    vertex 8.950000000000001 4.181346652052678 6.0
  endloop
endfacet
facet normal -0.0 -0.0 1.0
  outer loop
    vertex 8.950000000000001 4.181346652052678 6.0
    vertex 1.9999999999999996 1.999999999999999 6.0
    vertex 9.456480005284707 3.971555764792956 6.0
  endloop
endfacet
facet normal -0.0 -0.0 1.0
  outer loop
    vertex 9.456480005284707 3.971555764792956 6.0
    vertex 1.9999999999999996 1.999999999999999 6.0
    vertex 18.0 1.9999999999999984 6.0
  endloop
endfacet
facet normal -0.0 -0.0 1.0
  outer loop
    vertex 1.9999999999999998 15.0 6.0
    vertex 8.181346652052678 4.949999999999999 6.0
    vertex 7.9715557647929565 5.456480005284705 6.0
  endloop
endfacet
facet normal -0.0 -0.0 1.0
  outer loop
    vertex 1.9999999999999998 15.0 6.0
    vertex 7.9715557647929565 5.456480005284705 6.0
    vertex 7.8999999999999995 6.0 6.0
  endloop
endfacet
facet normal -0.0 -0.0 1.0
  outer loop
    vertex 9.456480005284707 3.971555764792956 6.0
    vertex 18.0 1.9999999999999984 6.0
    vertex 10.0 3.9 6.0
  endloop
endfacet
facet normal -0.0 -0.0 1.0
  outer loop
    vertex 10.0 3.9 6.0
    vertex 18.0 1.9999999999999984 6.0
    vertex 10.543519994715295 3.971555764792957 6.0
  endloop
endfacet
facet normal -0.0 -0.0 1.0
  outer loop
    vertex 10.543519994715295 3.971555764792957 6.0
    vertex 18.0 1.9999999999999984 6.0
    vertex 11.05 4.181346652052679 6.0
  endloop
endfacet
facet normal -0.0 -0.0 1.0
  outer loop
    vertex 11.05 4.181346652052679 6.0
    vertex 18.0 1.9999999999999984 6.0
    vertex 11.48492424049175 4.5150757595082505 6.0
  endloop
endfacet
facet normal -0.0 -0.0 1.0
  outer loop
    vertex 11.48492424049175 4.5150757595082505 6.0
    vertex 18.0 1.9999999999999984 6.0
    vertex 11.818653347947322 4.950000000000001 6.0
  endloop
endfacet
facet normal -0.0 -0.0 1.0
  outer loop
    vertex 11.818653347947322 4.950000000000001 6.0
    vertex 18.0 1.9999999999999984 6.0
    vertex 12.028444235207044 5.456480005284707 6.0
  endloop
endfacet
facet normal -0.0 -0.0 1.0
  outer loop
    vertex 12.028444235207044 5.456480005284707 6.0
    vertex 18.0 1.9999999999999984 6.0
    vertex 12.1 6.0 6.0
  endloop
endfacet
facet normal -0.0 -0.0 1.0
  outer loop
    vertex 1.9999999999999998 15.0 6.0
    vertex 8.51507575950825 7.48492424049175 6.0
    vertex 18.0 15.0 6.0
  endloop
endfacet
facet normal -0.0 -0.0 1.0
  outer loop
    vertex 8.51507575950825 7.48492424049175 6.0
    vertex 1.9999999999999998 15.0 6.0
    vertex 8.181346652052678 7.049999999999998 6.0
  endloop
endfacet
facet normal -0.0 -0.0 1.0
  outer loop
    vertex 8.181346652052678 7.049999999999998 6.0
    vertex 1.9999999999999998 15.0 6.0
    vertex 7.971555764792956 6.543519994715294 6.0
  endloop
endfacet
facet normal -0.0 -0.0 1.0
  outer loop
    vertex 7.971555764792956 6.543519994715294 6.0
    vertex 1.9999999999999998 15.0 6.0
    vertex 7.8999999999999995 6.0 6.0
  endloop
endfacet
facet normal -0.0 -0.0 1.0
  outer loop
    vertex 18.0 15.0 6.0
    vertex 8.51507575950825 7.48492424049175 6.0
    vertex 8.95 7.818653347947321 6.0
  endloop
endfacet
facet normal -0.0 -0.0 1.0
  outer loop
    vertex 18.0 15.0 6.0
    vertex 8.95 7.818653347947321 6.0
    vertex 9.456480005284705 8.028444235207044 6.0
  endloop
endfacet
facet normal -0.0 -0.0 1.0
  outer loop
    vertex 18.0 15.0 6.0
    vertex 9.456480005284705 8.028444235207044 6.0
    vertex 10.0 8.100000000000001 6.0
  endloop
endfacet
facet normal -0.0 -0.0 1.0
  outer loop
    vertex 18.0 15.0 6.0
    vertex 10.0 8.100000000000001 6.0
    vertex 10.543519994715293 8.028444235207044 6.0
  endloop
endfacet
facet normal -0.0 -0.0 1.0
  outer loop
    vertex 18.0 15.0 6.0
    vertex 10.543519994715293 8.028444235207044 6.0
    vertex 11.049999999999999 7.818653347947321 6.0
  endloop
endfacet
facet normal -0.0 -0.0 1.0
  outer loop
    vertex 18.0 15.0 6.0
    vertex 11.049999999999999 7.818653347947321 6.0
    vertex 11.48492424049175 7.48492424049175 6.0
  endloop
endfacet
facet normal -0.0 -0.0 1.0
  outer loop
    vertex 18.0 15.0 6.0
    vertex 11.48492424049175 7.48492424049175 6.0
    vertex 11.818653347947322 7.050000000000002 6.0
  endloop
endfacet
facet normal -0.0 -0.0 1.0
  outer loop
    vertex 18.0 15.0 6.0
    vertex 11.818653347947322 7.050000000000002 6.0
    vertex 12.028444235207044 6.543519994715295 6.0
  endloop
endfacet
facet normal -0.0 -0.0 1.0
  outer loop
    vertex 18.0 15.0 6.0
    vertex 12.028444235207044 6.543519994715295 6.0
    vertex 12.1 6.0 6.0
  endloop
endfacet
facet normal -0.0 -0.0 1.0
  outer loop
    vertex 18.0 15.0 6.0
    vertex 12.1 6.0 6.0
    vertex 18.0 1.9999999999999984 6.0
  endloop
endfacet
facet normal -0.9914448613738104 0.13052619222005232 2.0876396789051973e-31
  outer loop
    vertex 12.1 6.0 6.0
    vertex 12.028444235207044 5.456480005284707 0.0
    vertex 12.028444235207044 5.456480005284707 6.0
  endloop
endfacet
facet normal -0.9914448613738104 0.13052619222005232 2.0876396789051973e-31
  outer loop
    vertex 12.028444235207044 5.456480005284707 0.0
    vertex 12.1 6.0 6.0
    vertex 12.1 6.0 0.0
  endloop
endfacet
facet normal -0.9914448613738104 -0.130526192220052 2.381849377513742e-31
  outer loop
    vertex 12.028444235207044 6.543519994715295 6.0
    vertex 12.1 6.0 0.0
    vertex 12.1 6.0 6.0
  endloop
endfacet
facet normal -0.9914448613738104 -0.130526192220052 2.381849377513742e-31
  outer loop
    vertex 12.1 6.0 0.0
    vertex 12.028444235207044 6.543519994715295 6.0
    vertex 12.028444235207044 6.543519994715295 0.0
  endloop
endfacet
facet normal -0.9238795325112867 -0.38268343236509 2.5137399772369292e-31
  outer loop
    vertex 11.818653347947322 7.050000000000002 6.0
    vertex 12.028444235207044 6.543519994715295 0.0
    vertex 12.028444235207044 6.543519994715295 6.0
  endloop
endfacet
facet normal -0.9238795325112867 -0.38268343236509 2.5137399772369292e-31
  outer loop
    vertex 12.028444235207044 6.543519994715295 0.0
    vertex 11.818653347947322 7.050000000000002 6.0
    vertex 11.818653347947322 7.050000000000002 0.0
  endloop
endfacet
facet normal -0.793353340291235 -0.6087614290087208 2.4743233516631477e-31
  outer loop
    vertex 11.48492424049175 7.48492424049175 6.0
    vertex 11.818653347947322 7.050000000000002 0.0
    vertex 11.818653347947322 7.050000000000002 6.0
  endloop
endfacet
facet normal -0.793353340291235 -0.6087614290087208 2.4743233516631477e-31
  outer loop
    vertex 11.818653347947322 7.050000000000002 0.0
    vertex 11.48492424049175 7.48492424049175 6.0
    vertex 11.48492424049175 7.48492424049175 0.0
  endloop
endfacet
facet normal -0.6087614290087195 -0.793353340291236 2.2662856786861952e-31
  outer loop
    vertex 11.48492424049175 7.48492424049175 6.0
    vertex 11.049999999999999 7.818653347947321 0.0
    vertex 11.48492424049175 7.48492424049175 0.0
  endloop
endfacet
facet normal -0.6087614290087195 -0.793353340291236 2.2662856786861952e-31
  outer loop
    vertex 11.049999999999999 7.818653347947321 0.0
    vertex 11.48492424049175 7.48492424049175 6.0
    vertex 11.049999999999999 7.818653347947321 6.0
  endloop
endfacet
facet normal -0.38268343236509 -0.9238795325112867 1.9038043819209454e-31
  outer loop
    vertex 11.049999999999999 7.818653347947321 6.0
    vertex 10.543519994715293 8.028444235207044 0.0
    vertex 11.049999999999999 7.818653347947321 0.0
  endloop
endfacet
facet normal -0.38268343236509 -0.9238795325112867 1.9038043819209454e-31
  outer loop
    vertex 10.543519994715293 8.028444235207044 0.0
    vertex 11.049999999999999 7.818653347947321 6.0
    vertex 10.543519994715293 8.028444235207044 6.0
  endloop
endfacet
facet normal -0.13052619222005232 -0.9914448613738104 1.4115819627132801e-31
  outer loop
    vertex 10.543519994715293 8.028444235207044 6.0
    vertex 10.0 8.100000000000001 0.0
    vertex 10.543519994715293 8.028444235207044 0.0
  endloop
endfacet
facet normal -0.13052619222005232 -0.9914448613738104 1.4115819627132801e-31
  outer loop
    vertex 10.0 8.100000000000001 0.0
    vertex 10.543519994715293 8.028444235207044 6.0
    vertex 10.0 8.100000000000001 6.0
  endloop
endfacet
facet normal 0.130526192220052 -0.9914448613738104 8.231625654961911e-32
  outer loop
    vertex 10.0 8.100000000000001 6.0
    vertex 9.456480005284705 8.028444235207044 0.0
    vertex 10.0 8.100000000000001 0.0
  endloop
endfacet
facet normal 0.130526192220052 -0.9914448613738104 8.231625654961911e-32
  outer loop
    vertex 9.456480005284705 8.028444235207044 0.0
    vertex 10.0 8.100000000000001 6.0
    vertex 9.456480005284705 8.028444235207044 6.0
  endloop
endfacet
facet normal 0.38268343236509 -0.9238795325112867 1.7864599978099793e-32
  outer loop
    vertex 9.456480005284705 8.028444235207044 6.0
    vertex 8.95 7.818653347947321 0.0
    vertex 9.456480005284705 8.028444235207044 0.0
  endloop
endfacet
facet normal 0.38268343236509 -0.9238795325112867 1.7864599978099793e-32
  outer loop
    vertex 8.95 7.818653347947321 0.0
    vertex 9.456480005284705 8.028444235207044 6.0
    vertex 8.95 7.818653347947321 6.0
  endloop
endfacet
facet normal 0.6087614290087208 -0.793353340291235 -4.7804499559279697e-32
  outer loop
    vertex 8.95 7.818653347947321 6.0
    vertex 8.51507575950825 7.48492424049175 0.0
    vertex 8.95 7.818653347947321 0.0
  endloop
endfacet
facet normal 0.6087614290087208 -0.793353340291235 -4.7804499559279697e-32
  outer loop
    vertex 8.51507575950825 7.48492424049175 0.0
    vertex 8.95 7.818653347947321 6.0
    vertex 8.51507575950825 7.48492424049175 6.0
  endloop
endfacet
facet normal 0.7933533402912357 -0.6087614290087199 -1.1021580145236528e-31
  outer loop
    vertex 8.51507575950825 7.48492424049175 0.0
    vertex 8.181346652052678 7.049999999999998 6.0
    vertex 8.181346652052678 7.049999999999998 0.0
  endloop
endfacet
facet normal 0.7933533402912357 -0.6087614290087199 -1.1021580145236528e-31
  outer loop
    vertex 8.181346652052678 7.049999999999998 6.0
    vertex 8.51507575950825 7.48492424049175 0.0
    vertex 8.51507575950825 7.48492424049175 6.0
  endloop
endfacet
facet normal 0.9238795325112864 -0.38268343236509095 -1.6511607861669537e-31
  outer loop
    vertex 8.181346652052678 7.049999999999998 0.0
    vertex 7.971555764792956 6.543519994715294 6.0
    vertex 7.971555764792956 6.543519994715294 0.0
  endloop
endfacet
facet normal 0.9238795325112864 -0.38268343236509095 -1.6511607861669537e-31
  outer loop
    vertex 7.971555764792956 6.543519994715294 6.0
    vertex 8.181346652052678 7.049999999999998 0.0
    vertex 8.181346652052678 7.049999999999998 6.0
  endloop
endfacet
facet normal 0.9914448613738106 -0.1305261922200496 -2.0876396789052003e-31
  outer loop
    vertex 7.971555764792956 6.543519994715294 0.0
    vertex 7.8999999999999995 6.0 6.0
    vertex 7.8999999999999995 6.0 0.0
  endloop
endfacet
facet normal 0.9914448613738106 -0.1305261922200496 -2.0876396789052003e-31
  outer loop
    vertex 7.8999999999999995 6.0 6.0
    vertex 7.971555764792956 6.543519994715294 0.0
    vertex 7.971555764792956 6.543519994715294 6.0
  endloop
endfacet
facet normal 0.9914448613738104 0.130526192220052 -2.381849377513742e-31
  outer loop
    vertex 7.8999999999999995 6.0 0.0
    vertex 7.9715557647929565 5.456480005284705 6.0
    vertex 7.9715557647929565 5.456480005284705 0.0
  endloop
endfacet
facet normal 0.9914448613738104 0.130526192220052 -2.381849377513742e-31
  outer loop
    vertex 7.9715557647929565 5.456480005284705 6.0
    vertex 7.8999999999999995 6.0 0.0
    vertex 7.8999999999999995 6.0 6.0
  endloop
endfacet
facet normal 0.9238795325112866 0.38268343236509056 -2.5137399772369297e-31
  outer loop
    vertex 7.9715557647929565 5.456480005284705 0.0
    vertex 8.181346652052678 4.949999999999999 6.0
    vertex 8.181346652052678 4.949999999999999 0.0
  endloop
endfacet
facet normal 0.9238795325112866 0.38268343236509056 -2.5137399772369297e-31
  outer loop
    vertex 8.181346652052678 4.949999999999999 6.0
    vertex 7.9715557647929565 5.456480005284705 0.0
    vertex 7.9715557647929565 5.456480005284705 6.0
  endloop
endfacet
facet normal 0.7933533402912343 0.6087614290087218 -2.474323351663147e-31
  outer loop
    vertex 8.181346652052678 4.949999999999999 0.0
    vertex 8.515075759508251 4.51507575950825 6.0
    vertex 8.515075759508251 4.51507575950825 0.0
  endloop
endfacet
facet normal 0.7933533402912343 0.6087614290087218 -2.474323351663147e-31
  outer loop
    vertex 8.515075759508251 4.51507575950825 6.0
    vertex 8.181346652052678 4.949999999999999 0.0
    vertex 8.181346652052678 4.949999999999999 6.0
  endloop
endfacet
facet normal 0.6087614290087208 0.793353340291235 -2.2662856786861965e-31
  outer loop
    vertex 8.515075759508251 4.51507575950825 6.0
    vertex 8.950000000000001 4.181346652052678 0.0
    vertex 8.515075759508251 4.51507575950825 0.0
  endloop
endfacet
facet normal 0.6087614290087208 0.793353340291235 -2.2662856786861965e-31
  outer loop
    vertex 8.950000000000001 4.181346652052678 0.0
    vertex 8.515075759508251 4.51507575950825 6.0
    vertex 8.950000000000001 4.181346652052678 6.0
  endloop
endfacet
facet normal 0.38268343236509 0.9238795325112867 -1.9038043819209454e-31
  outer loop
    vertex 8.950000000000001 4.181346652052678 6.0
    vertex 9.456480005284707 3.971555764792956 0.0
    vertex 8.950000000000001 4.181346652052678 0.0
  endloop
endfacet
facet normal 0.38268343236509 0.9238795325112867 -1.9038043819209454e-31
  outer loop
    vertex 9.456480005284707 3.971555764792956 0.0
    vertex 8.950000000000001 4.181346652052678 6.0
    vertex 9.456480005284707 3.971555764792956 6.0
  endloop
endfacet
facet normal 0.13052619222005107 0.9914448613738106 -1.4115819627132775e-31
  outer loop
    vertex 9.456480005284707 3.971555764792956 6.0
    vertex 10.0 3.9 0.0
    vertex 9.456480005284707 3.971555764792956 0.0
  endloop
endfacet
facet normal 0.13052619222005107 0.9914448613738106 -1.4115819627132775e-31
  outer loop
    vertex 10.0 3.9 0.0
    vertex 9.456480005284707 3.971555764792956 6.0
    vertex 10.0 3.9 6.0
  endloop
endfacet
facet normal -0.130526192220052 0.9914448613738104 -8.231625654961911e-32
  outer loop
    vertex 10.0 3.9 6.0
    vertex 10.543519994715295 3.971555764792957 0.0
    vertex 10.0 3.9 0.0
  endloop
endfacet
facet normal -0.130526192220052 0.9914448613738104 -8.231625654961911e-32
  outer loop
    vertex 10.543519994715295 3.971555764792957 0.0
    vertex 10.0 3.9 6.0
    vertex 10.543519994715295 3.971555764792957 6.0
  endloop
endfacet
facet normal -0.38268343236509 0.9238795325112867 -1.7864599978099793e-32
  outer loop
    vertex 10.543519994715295 3.971555764792957 6.0
    vertex 11.05 4.181346652052679 0.0
    vertex 10.543519994715295 3.971555764792957 0.0
  endloop
endfacet
facet normal -0.38268343236509 0.9238795325112867 -1.7864599978099793e-32
  outer loop
    vertex 11.05 4.181346652052679 0.0
    vertex 10.543519994715295 3.971555764792957 6.0
    vertex 11.05 4.181346652052679 6.0
  endloop
endfacet
facet normal -0.6087614290087208 0.793353340291235 4.7804499559279697e-32
  outer loop
    vertex 11.05 4.181346652052679 6.0
    vertex 11.48492424049175 4.5150757595082505 0.0
    vertex 11.05 4.181346652052679 0.0
  endloop
endfacet
facet normal -0.6087614290087208 0.793353340291235 4.7804499559279697e-32
  outer loop
    vertex 11.48492424049175 4.5150757595082505 0.0
    vertex 11.05 4.181346652052679 6.0
    vertex 11.48492424049175 4.5150757595082505 6.0
  endloop
endfacet
facet normal -0.793353340291236 0.6087614290087195 1.102158014523654e-31
  outer loop
    vertex 11.818653347947322 4.950000000000001 6.0
    vertex 11.48492424049175 4.5150757595082505 0.0
    vertex 11.48492424049175 4.5150757595082505 6.0
  endloop
endfacet
facet normal -0.793353340291236 0.6087614290087195 1.102158014523654e-31
  outer loop
    vertex 11.48492424049175 4.5150757595082505 0.0
    vertex 11.818653347947322 4.950000000000001 6.0
    vertex 11.818653347947322 4.950000000000001 0.0
  endloop
endfacet
facet normal -0.9238795325112867 0.38268343236509 1.6511607861669552e-31
  outer loop
    vertex 12.028444235207044 5.456480005284707 6.0
    vertex 11.818653347947322 4.950000000000001 0.0
    vertex 11.818653347947322 4.950000000000001 6.0
  endloop
endfacet
facet normal -0.9238795325112867 0.38268343236509 1.6511607861669552e-31
  outer loop
    vertex 11.818653347947322 4.950000000000001 0.0
    vertex 12.028444235207044 5.456480005284707 6.0
    vertex 12.028444235207044 5.456480005284707 0.0
  endloop
endfacet
endsolid Untitled-5817afde
