solid suport_fsr_bed__down_v3_x3
facet normal 0.0 0.0 -1.0
  outer loop
    vertex 38.0 7.0 0.0
    vertex 10.0 2.8199664825478975e-15 0.0
    vertex 10.0 7.0 0.0
  endloop
endfacet
facet normal 0.0 0.0 -1.0
  outer loop
    vertex 10.0 2.8199664825478975e-15 0.0
    vertex 0.0 -3.9999999999999996 0.0
    vertex 0.0 2.8199664825478975e-15 0.0
  endloop
endfacet
facet normal 0.0 0.0 -1.0
  outer loop
    vertex 0.0 -3.9999999999999996 0.0
    vertex 10.0 2.8199664825478975e-15 0.0
    vertex 48.0 -3.9999999999999996 0.0
  endloop
endfacet
facet normal 0.0 0.0 -1.0
  outer loop
    vertex 48.0 -3.9999999999999996 0.0
    vertex 10.0 2.8199664825478975e-15 0.0
    vertex 38.0 1.4099832412739487e-15 0.0
  endloop
endfacet
facet normal 0.0 0.0 -1.0
  outer loop
    vertex 38.0 1.4099832412739487e-15 0.0
    vertex 10.0 2.8199664825478975e-15 0.0
    vertex 38.0 7.0 0.0
  endloop
endfacet
facet normal 0.0 0.0 -1.0
  outer loop
    vertex 48.0 -3.9999999999999996 0.0
    vertex 38.0 1.4099832412739487e-15 0.0
    vertex 48.0 1.4099832412739487e-15 0.0
  endloop
endfacet
facet normal 1.0 0.0 0.0
  outer loop
    vertex 48.0 1.4099832412739487e-15 0.0
    vertex 48.0 -3.9999999999999996 20.0
    vertex 48.0 -3.9999999999999996 0.0
  endloop
endfacet
facet normal 1.0 0.0 0.0
  outer loop
    vertex 48.0 -3.9999999999999996 20.0
    vertex 48.0 1.4099832412739487e-15 0.0
    vertex 48.0 1.4099832412739487e-15 20.0
  endloop
endfacet
facet normal -0.0 -1.0 -0.0
  outer loop
    vertex 48.0 -3.9999999999999996 0.0
    vertex 43.51763809020503 -3.9999999999999982 8.068148347421864
    vertex 0.0 -3.9999999999999996 0.0
  endloop
endfacet
facet normal -0.0 -1.0 -0.0
  outer loop
    vertex 43.51763809020503 -3.9999999999999982 8.068148347421864
    vertex 48.0 -3.9999999999999996 0.0
    vertex 43.99999999999999 -3.9999999999999982 8.267949192431123
  endloop
endfacet
facet normal -0.0 -1.0 -0.0
  outer loop
    vertex 43.99999999999999 -3.9999999999999982 8.267949192431123
    vertex 48.0 -3.9999999999999996 0.0
    vertex 44.414213562373085 -3.9999999999999982 8.585786437626904
  endloop
endfacet
facet normal -0.0 -1.0 -0.0
  outer loop
    vertex 44.414213562373085 -3.9999999999999982 8.585786437626904
    vertex 48.0 -3.9999999999999996 0.0
    vertex 44.732050807568875 -3.9999999999999982 8.999999999999998
  endloop
endfacet
facet normal -0.0 -1.0 -0.0
  outer loop
    vertex 44.732050807568875 -3.9999999999999982 8.999999999999998
    vertex 48.0 -3.9999999999999996 0.0
    vertex 44.931851652578125 -3.9999999999999982 9.482361909794957
  endloop
endfacet
facet normal -0.0 -1.0 -0.0
  outer loop
    vertex 44.931851652578125 -3.9999999999999982 9.482361909794957
    vertex 48.0 -3.9999999999999996 0.0
    vertex 48.0 -3.9999999999999996 20.0
  endloop
endfacet
facet normal -0.0 -1.0 -0.0
  outer loop
    vertex 0.0 -3.9999999999999996 0.0
    vertex 43.51763809020503 -3.9999999999999982 8.068148347421864
    vertex 42.99999999999999 -3.9999999999999982 8.0
  endloop
endfacet
facet normal -0.0 -1.0 -0.0
  outer loop
    vertex 0.0 -3.9999999999999996 0.0
    vertex 42.99999999999999 -3.9999999999999982 8.0
    vertex 5.000000000000001 -3.9999999999999982 7.999999999999999
  endloop
endfacet
facet normal -0.0 -1.0 -0.0
  outer loop
    vertex 44.931851652578125 -3.9999999999999982 9.482361909794957
    vertex 48.0 -3.9999999999999996 20.0
    vertex 45.0 -3.9999999999999982 10.0
  endloop
endfacet
facet normal -0.0 -1.0 -0.0
  outer loop
    vertex 45.0 -3.9999999999999982 10.0
    vertex 48.0 -3.9999999999999996 20.0
    vertex 44.93185165257813 -3.9999999999999982 10.51763809020504
  endloop
endfacet
facet normal -0.0 -1.0 -0.0
  outer loop
    vertex 44.93185165257813 -3.9999999999999982 10.51763809020504
    vertex 48.0 -3.9999999999999996 20.0
    vertex 44.732050807568875 -3.9999999999999982 10.999999999999998
  endloop
endfacet
facet normal -0.0 -1.0 -0.0
  outer loop
    vertex 44.732050807568875 -3.9999999999999982 10.999999999999998
    vertex 48.0 -3.9999999999999996 20.0
    vertex 44.414213562373085 -3.9999999999999982 11.414213562373094
  endloop
endfacet
facet normal -0.0 -1.0 -0.0
  outer loop
    vertex 44.414213562373085 -3.9999999999999982 11.414213562373094
    vertex 48.0 -3.9999999999999996 20.0
    vertex 43.99999999999999 -3.9999999999999982 11.732050807568875
  endloop
endfacet
facet normal -0.0 -1.0 -0.0
  outer loop
    vertex 43.99999999999999 -3.9999999999999982 11.732050807568875
    vertex 48.0 -3.9999999999999996 20.0
    vertex 43.51763809020504 -3.9999999999999982 11.931851652578136
  endloop
endfacet
facet normal -0.0 -1.0 -0.0
  outer loop
    vertex 43.51763809020504 -3.9999999999999982 11.931851652578136
    vertex 48.0 -3.9999999999999996 20.0
    vertex 42.99999999999999 -3.9999999999999982 12.0
  endloop
endfacet
facet normal -0.0 -1.0 -0.0
  outer loop
    vertex 42.99999999999999 -3.9999999999999982 12.0
    vertex 48.0 -3.9999999999999996 20.0
    vertex 5.000000000000002 -3.9999999999999982 12.0
  endloop
endfacet
facet normal -0.0 -1.0 -0.0
  outer loop
    vertex 0.0 -3.9999999999999996 0.0
    vertex 3.0681483474218645 -3.9999999999999982 9.482361909794959
    vertex 0.0 -3.9999999999999996 20.0
  endloop
endfacet
facet normal -0.0 -1.0 -0.0
  outer loop
    vertex 3.0681483474218645 -3.9999999999999982 9.482361909794959
    vertex 0.0 -3.9999999999999996 0.0
    vertex 3.2679491924311237 -3.9999999999999982 9.0
  endloop
endfacet
facet normal -0.0 -1.0 -0.0
  outer loop
    vertex 3.2679491924311237 -3.9999999999999982 9.0
    vertex 0.0 -3.9999999999999996 0.0
    vertex 3.5857864376269055 -3.9999999999999982 8.585786437626906
  endloop
endfacet
facet normal -0.0 -1.0 -0.0
  outer loop
    vertex 3.5857864376269055 -3.9999999999999982 8.585786437626906
    vertex 0.0 -3.9999999999999996 0.0
    vertex 4.000000000000001 -3.9999999999999982 8.267949192431123
  endloop
endfacet
facet normal -0.0 -1.0 -0.0
  outer loop
    vertex 4.000000000000001 -3.9999999999999982 8.267949192431123
    vertex 0.0 -3.9999999999999996 0.0
    vertex 4.4823619097949585 -3.9999999999999982 8.068148347421863
  endloop
endfacet
facet normal -0.0 -1.0 -0.0
  outer loop
    vertex 4.4823619097949585 -3.9999999999999982 8.068148347421863
    vertex 0.0 -3.9999999999999996 0.0
    vertex 5.000000000000001 -3.9999999999999982 7.999999999999999
  endloop
endfacet
facet normal -0.0 -1.0 -0.0
  outer loop
    vertex 0.0 -3.9999999999999996 20.0
    vertex 3.0681483474218645 -3.9999999999999982 9.482361909794959
    vertex 3.0000000000000013 -3.9999999999999982 10.0
  endloop
endfacet
facet normal -0.0 -1.0 -0.0
  outer loop
    vertex 0.0 -3.9999999999999996 20.0
    vertex 3.0000000000000013 -3.9999999999999982 10.0
    vertex 3.068148347421865 -3.9999999999999982 10.517638090205043
  endloop
endfacet
facet normal -0.0 -1.0 -0.0
  outer loop
    vertex 0.0 -3.9999999999999996 20.0
    vertex 3.068148347421865 -3.9999999999999982 10.517638090205043
    vertex 3.2679491924311246 -3.9999999999999982 11.000000000000002
  endloop
endfacet
facet normal -0.0 -1.0 -0.0
  outer loop
    vertex 0.0 -3.9999999999999996 20.0
    vertex 3.2679491924311246 -3.9999999999999982 11.000000000000002
    vertex 3.5857864376269064 -3.9999999999999982 11.414213562373096
  endloop
endfacet
facet normal -0.0 -1.0 -0.0
  outer loop
    vertex 0.0 -3.9999999999999996 20.0
    vertex 3.5857864376269064 -3.9999999999999982 11.414213562373096
    vertex 4.000000000000003 -3.9999999999999982 11.732050807568879
  endloop
endfacet
facet normal -0.0 -1.0 -0.0
  outer loop
    vertex 0.0 -3.9999999999999996 20.0
    vertex 4.000000000000003 -3.9999999999999982 11.732050807568879
    vertex 4.48236190979496 -3.9999999999999982 11.931851652578137
  endloop
endfacet
facet normal -0.0 -1.0 -0.0
  outer loop
    vertex 0.0 -3.9999999999999996 20.0
    vertex 4.48236190979496 -3.9999999999999982 11.931851652578137
    vertex 5.000000000000002 -3.9999999999999982 12.0
  endloop
endfacet
facet normal -0.0 -1.0 -0.0
  outer loop
    vertex 0.0 -3.9999999999999996 20.0
    vertex 5.000000000000002 -3.9999999999999982 12.0
    vertex 48.0 -3.9999999999999996 20.0
  endloop
endfacet
facet normal -0.0 -1.0 -0.0
  outer loop
    vertex 42.99999999999999 -3.9999999999999982 8.0
    vertex 5.517638090205042 -3.9999999999999982 8.068148347421863
    vertex 5.000000000000001 -3.9999999999999982 7.999999999999999
  endloop
endfacet
facet normal -0.0 -1.0 -0.0
  outer loop
    vertex 5.517638090205042 -3.9999999999999982 8.068148347421863
    vertex 42.99999999999999 -3.9999999999999982 8.0
    vertex 42.48236190979495 -3.9999999999999982 8.068148347421864
  endloop
endfacet
facet normal -0.0 -1.0 -0.0
  outer loop
    vertex 5.517638090205042 -3.9999999999999982 8.068148347421863
    vertex 42.48236190979495 -3.9999999999999982 8.068148347421864
    vertex 6.0 -3.9999999999999982 8.267949192431123
  endloop
endfacet
facet normal -0.0 -1.0 -0.0
  outer loop
    vertex 6.0 -3.9999999999999982 8.267949192431123
    vertex 42.48236190979495 -3.9999999999999982 8.068148347421864
    vertex 41.99999999999999 -3.9999999999999982 8.267949192431123
  endloop
endfacet
facet normal -0.0 -1.0 -0.0
  outer loop
    vertex 6.0 -3.9999999999999982 8.267949192431123
    vertex 41.99999999999999 -3.9999999999999982 8.267949192431123
    vertex 41.5857864376269 -3.9999999999999982 8.585786437626906
  endloop
endfacet
facet normal -0.0 -1.0 -0.0
  outer loop
    vertex 6.0 -3.9999999999999982 8.267949192431123
    vertex 41.5857864376269 -3.9999999999999982 8.585786437626906
    vertex 6.414213562373095 -3.9999999999999982 8.585786437626906
  endloop
endfacet
facet normal -0.0 -1.0 -0.0
  outer loop
    vertex 6.414213562373095 -3.9999999999999982 8.585786437626906
    vertex 41.5857864376269 -3.9999999999999982 8.585786437626906
    vertex 41.26794919243112 -3.9999999999999982 9.0
  endloop
endfacet
facet normal -0.0 -1.0 -0.0
  outer loop
    vertex 6.414213562373095 -3.9999999999999982 8.585786437626906
    vertex 41.26794919243112 -3.9999999999999982 9.0
    vertex 6.732050807568878 -3.9999999999999982 8.999999999999998
  endloop
endfacet
facet normal -0.0 -1.0 -0.0
  outer loop
    vertex 6.732050807568878 -3.9999999999999982 8.999999999999998
    vertex 41.26794919243112 -3.9999999999999982 9.0
    vertex 6.931851652578136 -3.9999999999999982 9.482361909794959
  endloop
endfacet
facet normal -0.0 -1.0 -0.0
  outer loop
    vertex 6.931851652578136 -3.9999999999999982 9.482361909794959
    vertex 41.26794919243112 -3.9999999999999982 9.0
    vertex 41.068148347421854 -3.9999999999999982 9.482361909794959
  endloop
endfacet
facet normal -0.0 -1.0 -0.0
  outer loop
    vertex 6.931851652578136 -3.9999999999999982 9.482361909794959
    vertex 41.068148347421854 -3.9999999999999982 9.482361909794959
    vertex 40.99999999999999 -3.9999999999999982 10.0
  endloop
endfacet
facet normal -0.0 -1.0 -0.0
  outer loop
    vertex 6.931851652578136 -3.9999999999999982 9.482361909794959
    vertex 40.99999999999999 -3.9999999999999982 10.0
    vertex 7.0 -3.9999999999999982 10.0
  endloop
endfacet
facet normal -0.0 -1.0 -0.0
  outer loop
    vertex 7.0 -3.9999999999999982 10.0
    vertex 40.99999999999999 -3.9999999999999982 10.0
    vertex 41.068148347421854 -3.9999999999999982 10.517638090205041
  endloop
endfacet
facet normal -0.0 -1.0 -0.0
  outer loop
    vertex 7.0 -3.9999999999999982 10.0
    vertex 41.068148347421854 -3.9999999999999982 10.517638090205041
    vertex 6.931851652578138 -3.9999999999999982 10.517638090205041
  endloop
endfacet
facet normal -0.0 -1.0 -0.0
  outer loop
    vertex 6.931851652578138 -3.9999999999999982 10.517638090205041
    vertex 41.068148347421854 -3.9999999999999982 10.517638090205041
    vertex 41.26794919243112 -3.9999999999999982 11.0
  endloop
endfacet
facet normal -0.0 -1.0 -0.0
  outer loop
    vertex 6.931851652578138 -3.9999999999999982 10.517638090205041
    vertex 41.26794919243112 -3.9999999999999982 11.0
    vertex 6.732050807568878 -3.9999999999999982 11.0
  endloop
endfacet
facet normal -0.0 -1.0 -0.0
  outer loop
    vertex 6.732050807568878 -3.9999999999999982 11.0
    vertex 41.26794919243112 -3.9999999999999982 11.0
    vertex 41.5857864376269 -3.9999999999999982 11.414213562373094
  endloop
endfacet
facet normal -0.0 -1.0 -0.0
  outer loop
    vertex 6.732050807568878 -3.9999999999999982 11.0
    vertex 41.5857864376269 -3.9999999999999982 11.414213562373094
    vertex 6.414213562373097 -3.9999999999999982 11.414213562373094
  endloop
endfacet
facet normal -0.0 -1.0 -0.0
  outer loop
    vertex 6.414213562373097 -3.9999999999999982 11.414213562373094
    vertex 41.5857864376269 -3.9999999999999982 11.414213562373094
    vertex 41.99999999999999 -3.9999999999999982 11.732050807568877
  endloop
endfacet
facet normal -0.0 -1.0 -0.0
  outer loop
    vertex 6.414213562373097 -3.9999999999999982 11.414213562373094
    vertex 41.99999999999999 -3.9999999999999982 11.732050807568877
    vertex 6.000000000000002 -3.9999999999999982 11.732050807568877
  endloop
endfacet
facet normal -0.0 -1.0 -0.0
  outer loop
    vertex 6.000000000000002 -3.9999999999999982 11.732050807568877
    vertex 41.99999999999999 -3.9999999999999982 11.732050807568877
    vertex 42.48236190979495 -3.9999999999999982 11.931851652578136
  endloop
endfacet
facet normal -0.0 -1.0 -0.0
  outer loop
    vertex 6.000000000000002 -3.9999999999999982 11.732050807568877
    vertex 42.48236190979495 -3.9999999999999982 11.931851652578136
    vertex 5.517638090205043 -3.9999999999999982 11.931851652578136
  endloop
endfacet
facet normal -0.0 -1.0 -0.0
  outer loop
    vertex 5.517638090205043 -3.9999999999999982 11.931851652578136
    vertex 42.48236190979495 -3.9999999999999982 11.931851652578136
    vertex 42.99999999999999 -3.9999999999999982 12.0
  endloop
endfacet
facet normal -0.0 -1.0 -0.0
  outer loop
    vertex 5.517638090205043 -3.9999999999999982 11.931851652578136
    vertex 42.99999999999999 -3.9999999999999982 12.0
    vertex 5.000000000000002 -3.9999999999999982 12.0
  endloop
endfacet
facet normal -1.0 0.0 0.0
  outer loop
    vertex 0.0 2.8199664825478975e-15 20.0
    vertex 0.0 -3.9999999999999996 0.0
    vertex 0.0 -3.9999999999999996 20.0
  endloop
endfacet
facet normal -1.0 0.0 0.0
  outer loop
    vertex 0.0 -3.9999999999999996 0.0
    vertex 0.0 2.8199664825478975e-15 20.0
    vertex 0.0 2.8199664825478975e-15 0.0
  endloop
endfacet
facet normal -0.0 -0.0 1.0
  outer loop
    vertex 48.0 -3.9999999999999996 20.0
    vertex 0.0 2.8199664825478975e-15 20.0
    vertex 0.0 -3.9999999999999996 20.0
  endloop
endfacet
facet normal -0.0 -0.0 1.0
  outer loop
    vertex 0.0 2.8199664825478975e-15 20.0
    vertex 48.0 -3.9999999999999996 20.0
    vertex 10.0 2.8199664825478975e-15 20.0
  endloop
endfacet
facet normal -0.0 -0.0 1.0
  outer loop
    vertex 10.0 2.8199664825478975e-15 20.0
    vertex 48.0 -3.9999999999999996 20.0
    vertex 13.299999999999999 2.4999999999999996 20.0
  endloop
endfacet
facet normal -0.0 -0.0 1.0
  outer loop
    vertex 10.0 2.8199664825478975e-15 20.0
    vertex 13.299999999999999 2.4999999999999996 20.0
    vertex 10.0 7.0 20.0
  endloop
endfacet
facet normal -0.0 -0.0 1.0
  outer loop
    vertex 13.299999999999999 2.4999999999999996 20.0
    vertex 48.0 -3.9999999999999996 20.0
    vertex 38.0 1.4099832412739487e-15 20.0
  endloop
endfacet
facet normal -0.0 -0.0 1.0
  outer loop
    vertex 13.299999999999999 2.4999999999999996 20.0
    vertex 38.0 1.4099832412739487e-15 20.0
    vertex 34.699999999999996 2.4999999999999996 20.0
  endloop
endfacet
facet normal -0.0 -0.0 1.0
  outer loop
    vertex 34.699999999999996 2.4999999999999996 20.0
    vertex 38.0 1.4099832412739487e-15 20.0
    vertex 34.699999999999996 3.9999999999999996 20.0
  endloop
endfacet
facet normal -0.0 -0.0 1.0
  outer loop
    vertex 38.0 1.4099832412739487e-15 20.0
    vertex 48.0 -3.9999999999999996 20.0
    vertex 48.0 1.4099832412739487e-15 20.0
  endloop
endfacet
facet normal -0.0 -0.0 1.0
  outer loop
    vertex 34.699999999999996 3.9999999999999996 20.0
    vertex 31.7 7.0 20.0
    vertex 31.7 3.9999999999999996 20.0
  endloop
endfacet
facet normal -0.0 -0.0 1.0
  outer loop
    vertex 31.7 7.0 20.0
    vertex 34.699999999999996 3.9999999999999996 20.0
    vertex 38.0 7.0 20.0
  endloop
endfacet
facet normal -0.0 -0.0 1.0
  outer loop
    vertex 38.0 7.0 20.0
    vertex 34.699999999999996 3.9999999999999996 20.0
    vertex 38.0 1.4099832412739487e-15 20.0
  endloop
endfacet
facet normal -0.0 -0.0 1.0
  outer loop
    vertex 10.0 7.0 20.0
    vertex 13.299999999999999 3.9999999999999996 20.0
    vertex 16.299999999999997 7.0 20.0
  endloop
endfacet
facet normal -0.0 -0.0 1.0
  outer loop
    vertex 13.299999999999999 3.9999999999999996 20.0
    vertex 10.0 7.0 20.0
    vertex 13.299999999999999 2.4999999999999996 20.0
  endloop
endfacet
facet normal -0.0 -0.0 1.0
  outer loop
    vertex 16.299999999999997 7.0 20.0
    vertex 13.299999999999999 3.9999999999999996 20.0
    vertex 16.299999999999997 3.9999999999999996 20.0
  endloop
endfacet
facet normal 0.0 0.0 1.0
  outer loop
    vertex 34.699999999999996 2.4999999999999996 3.0
    vertex 13.299999999999999 3.9999999999999996 3.0
    vertex 13.299999999999999 2.4999999999999996 3.0
  endloop
endfacet
facet normal 0.0 0.0 1.0
  outer loop
    vertex 13.299999999999999 3.9999999999999996 3.0
    vertex 34.699999999999996 2.4999999999999996 3.0
    vertex 16.299999999999997 3.9999999999999996 3.0
  endloop
endfacet
facet normal 0.0 0.0 1.0
  outer loop
    vertex 16.299999999999997 3.9999999999999996 3.0
    vertex 34.699999999999996 2.4999999999999996 3.0
    vertex 16.299999999999997 7.0 3.0
  endloop
endfacet
facet normal 0.0 0.0 1.0
  outer loop
    vertex 16.299999999999997 7.0 3.0
    vertex 34.699999999999996 2.4999999999999996 3.0
    vertex 31.7 3.9999999999999996 3.0
  endloop
endfacet
facet normal 0.0 0.0 1.0
  outer loop
    vertex 31.7 3.9999999999999996 3.0
    vertex 34.699999999999996 2.4999999999999996 3.0
    vertex 34.699999999999996 3.9999999999999996 3.0
  endloop
endfacet
facet normal 0.0 0.0 1.0
  outer loop
    vertex 31.7 7.0 3.0
    vertex 16.299999999999997 7.0 3.0
    vertex 31.7 3.9999999999999996 3.0
  endloop
endfacet
facet normal 1.0 0.0 0.0
  outer loop
    vertex 13.299999999999999 3.9999999999999996 3.0
    vertex 13.299999999999999 2.4999999999999996 20.0
    vertex 13.299999999999999 2.4999999999999996 3.0
  endloop
endfacet
facet normal 1.0 0.0 0.0
  outer loop
    vertex 13.299999999999999 2.4999999999999996 20.0
    vertex 13.299999999999999 3.9999999999999996 3.0
    vertex 13.299999999999999 3.9999999999999996 20.0
  endloop
endfacet
facet normal -0.0 1.0 -0.0
  outer loop
    vertex 13.299999999999999 2.4999999999999996 20.0
    vertex 34.699999999999996 2.4999999999999996 3.0
    vertex 13.299999999999999 2.4999999999999996 3.0
  endloop
endfacet
facet normal -0.0 1.0 -0.0
  outer loop
    vertex 34.699999999999996 2.4999999999999996 3.0
    vertex 13.299999999999999 2.4999999999999996 20.0
    vertex 34.699999999999996 2.4999999999999996 20.0
  endloop
endfacet
facet normal -1.0 0.0 -0.0
  outer loop
    vertex 34.699999999999996 3.9999999999999996 20.0
    vertex 34.699999999999996 2.4999999999999996 3.0
    vertex 34.699999999999996 2.4999999999999996 20.0
  endloop
endfacet
facet normal -1.0 0.0 -0.0
  outer loop
    vertex 34.699999999999996 2.4999999999999996 3.0
    vertex 34.699999999999996 3.9999999999999996 20.0
    vertex 34.699999999999996 3.9999999999999996 3.0
  endloop
endfacet
facet normal -0.0 -1.0 -0.0
  outer loop
    vertex 34.699999999999996 3.9999999999999996 20.0
    vertex 31.7 3.9999999999999996 3.0
    vertex 34.699999999999996 3.9999999999999996 3.0
  endloop
endfacet
facet normal -0.0 -1.0 -0.0
  outer loop
    vertex 31.7 3.9999999999999996 3.0
    vertex 34.699999999999996 3.9999999999999996 20.0
    vertex 31.7 3.9999999999999996 20.0
  endloop
endfacet
facet normal -1.0 0.0 -0.0
  outer loop
    vertex 31.7 7.0 20.0
    vertex 31.7 3.9999999999999996 3.0
    vertex 31.7 3.9999999999999996 20.0
  endloop
endfacet
facet normal -1.0 0.0 -0.0
  outer loop
    vertex 31.7 3.9999999999999996 3.0
    vertex 31.7 7.0 20.0
    vertex 31.7 7.0 3.0
  endloop
endfacet
facet normal 1.0 0.0 0.0
  outer loop
    vertex 16.299999999999997 7.0 3.0
    vertex 16.299999999999997 3.9999999999999996 20.0
    vertex 16.299999999999997 3.9999999999999996 3.0
  endloop
endfacet
facet normal 1.0 0.0 0.0
  outer loop
    vertex 16.299999999999997 3.9999999999999996 20.0
    vertex 16.299999999999997 7.0 3.0
    vertex 16.299999999999997 7.0 20.0
  endloop
endfacet
facet normal -0.0 -1.0 -0.0
  outer loop
    vertex 16.299999999999997 3.9999999999999996 20.0
    vertex 13.299999999999999 3.9999999999999996 3.0
    vertex 16.299999999999997 3.9999999999999996 3.0
  endloop
endfacet
facet normal -0.0 -1.0 -0.0
  outer loop
    vertex 13.299999999999999 3.9999999999999996 3.0
    vertex 16.299999999999997 3.9999999999999996 20.0
    vertex 13.299999999999999 3.9999999999999996 20.0
  endloop
endfacet
facet normal -0.0 1.0 -0.0
  outer loop
    vertex 10.0 7.0 0.0
    vertex 16.299999999999997 7.0 3.0
    vertex 38.0 7.0 0.0
  endloop
endfacet
facet normal -0.0 1.0 -0.0
  outer loop
    vertex 16.299999999999997 7.0 3.0
    vertex 10.0 7.0 0.0
    vertex 10.0 7.0 20.0
  endloop
endfacet
facet normal -0.0 1.0 -0.0
  outer loop
    vertex 16.299999999999997 7.0 3.0
    vertex 10.0 7.0 20.0
    vertex 16.299999999999997 7.0 20.0
  endloop
endfacet
facet normal -0.0 1.0 -0.0
  outer loop
    vertex 38.0 7.0 0.0
    vertex 31.7 7.0 3.0
    vertex 38.0 7.0 20.0
  endloop
endfacet
facet normal -0.0 1.0 -0.0
  outer loop
    vertex 31.7 7.0 3.0
    vertex 38.0 7.0 0.0
    vertex 16.299999999999997 7.0 3.0
  endloop
endfacet
facet normal -0.0 1.0 -0.0
  outer loop
    vertex 38.0 7.0 20.0
    vertex 31.7 7.0 3.0
    vertex 31.7 7.0 20.0
  endloop
endfacet
facet normal 0.0 1.0 0.0
  outer loop
    vertex 38.0 1.4099832412739487e-15 0.0
    vertex 41.26794919243112 1.4099832412739487e-15 9.0
    vertex 48.0 1.4099832412739487e-15 0.0
  endloop
endfacet
facet normal 0.0 1.0 0.0
  outer loop
    vertex 41.26794919243112 1.4099832412739487e-15 9.0
    vertex 38.0 1.4099832412739487e-15 0.0
    vertex 41.068148347421854 1.4099832412739487e-15 9.482361909794959
  endloop
endfacet
facet normal 0.0 1.0 0.0
  outer loop
    vertex 41.068148347421854 1.4099832412739487e-15 9.482361909794959
    vertex 38.0 1.4099832412739487e-15 0.0
    vertex 38.0 1.4099832412739487e-15 20.0
  endloop
endfacet
facet normal 0.0 1.0 0.0
  outer loop
    vertex 48.0 1.4099832412739487e-15 0.0
    vertex 41.26794919243112 1.4099832412739487e-15 9.0
    vertex 41.5857864376269 1.4099832412739487e-15 8.585786437626906
  endloop
endfacet
facet normal 0.0 1.0 0.0
  outer loop
    vertex 48.0 1.4099832412739487e-15 0.0
    vertex 41.5857864376269 1.4099832412739487e-15 8.585786437626906
    vertex 41.99999999999999 1.4099832412739487e-15 8.267949192431123
  endloop
endfacet
facet normal 0.0 1.0 0.0
  outer loop
    vertex 48.0 1.4099832412739487e-15 0.0
    vertex 41.99999999999999 1.4099832412739487e-15 8.267949192431123
    vertex 42.48236190979495 1.4099832412739487e-15 8.068148347421864
  endloop
endfacet
facet normal 0.0 1.0 0.0
  outer loop
    vertex 48.0 1.4099832412739487e-15 0.0
    vertex 42.48236190979495 1.4099832412739487e-15 8.068148347421864
    vertex 42.99999999999999 1.4099832412739487e-15 8.0
  endloop
endfacet
facet normal 0.0 1.0 0.0
  outer loop
    vertex 41.068148347421854 1.4099832412739487e-15 9.482361909794959
    vertex 38.0 1.4099832412739487e-15 20.0
    vertex 40.99999999999999 1.4099832412739487e-15 10.0
  endloop
endfacet
facet normal 0.0 1.0 0.0
  outer loop
    vertex 40.99999999999999 1.4099832412739487e-15 10.0
    vertex 38.0 1.4099832412739487e-15 20.0
    vertex 41.068148347421854 1.4099832412739487e-15 10.517638090205041
  endloop
endfacet
facet normal 0.0 1.0 0.0
  outer loop
    vertex 41.068148347421854 1.4099832412739487e-15 10.517638090205041
    vertex 38.0 1.4099832412739487e-15 20.0
    vertex 41.26794919243112 1.4099832412739487e-15 11.0
  endloop
endfacet
facet normal 0.0 1.0 0.0
  outer loop
    vertex 41.26794919243112 1.4099832412739487e-15 11.0
    vertex 38.0 1.4099832412739487e-15 20.0
    vertex 41.5857864376269 1.4099832412739487e-15 11.414213562373094
  endloop
endfacet
facet normal 0.0 1.0 0.0
  outer loop
    vertex 41.5857864376269 1.4099832412739487e-15 11.414213562373094
    vertex 38.0 1.4099832412739487e-15 20.0
    vertex 41.99999999999999 1.4099832412739487e-15 11.732050807568877
  endloop
endfacet
facet normal 0.0 1.0 0.0
  outer loop
    vertex 41.99999999999999 1.4099832412739487e-15 11.732050807568877
    vertex 38.0 1.4099832412739487e-15 20.0
    vertex 42.48236190979495 1.4099832412739487e-15 11.931851652578136
  endloop
endfacet
facet normal 0.0 1.0 0.0
  outer loop
    vertex 42.48236190979495 1.4099832412739487e-15 11.931851652578136
    vertex 38.0 1.4099832412739487e-15 20.0
    vertex 42.99999999999999 1.4099832412739487e-15 12.0
  endloop
endfacet
facet normal 0.0 1.0 0.0
  outer loop
    vertex 48.0 1.4099832412739487e-15 0.0
    vertex 44.931851652578125 1.4099832412739487e-15 9.482361909794957
    vertex 48.0 1.4099832412739487e-15 20.0
  endloop
endfacet
facet normal 0.0 1.0 0.0
  outer loop
    vertex 44.931851652578125 1.4099832412739487e-15 9.482361909794957
    vertex 48.0 1.4099832412739487e-15 0.0
    vertex 44.732050807568875 1.4099832412739487e-15 8.999999999999998
  endloop
endfacet
facet normal 0.0 1.0 0.0
  outer loop
    vertex 44.732050807568875 1.4099832412739487e-15 8.999999999999998
    vertex 48.0 1.4099832412739487e-15 0.0
    vertex 44.414213562373085 1.4099832412739487e-15 8.585786437626904
  endloop
endfacet
facet normal 0.0 1.0 0.0
  outer loop
    vertex 44.414213562373085 1.4099832412739487e-15 8.585786437626904
    vertex 48.0 1.4099832412739487e-15 0.0
    vertex 43.99999999999999 1.4099832412739487e-15 8.267949192431123
  endloop
endfacet
facet normal 0.0 1.0 0.0
  outer loop
    vertex 43.99999999999999 1.4099832412739487e-15 8.267949192431123
    vertex 48.0 1.4099832412739487e-15 0.0
    vertex 43.51763809020503 1.4099832412739487e-15 8.068148347421864
  endloop
endfacet
facet normal 0.0 1.0 0.0
  outer loop
    vertex 43.51763809020503 1.4099832412739487e-15 8.068148347421864
    vertex 48.0 1.4099832412739487e-15 0.0
    vertex 42.99999999999999 1.4099832412739487e-15 8.0
  endloop
endfacet
facet normal 0.0 1.0 0.0
  outer loop
    vertex 48.0 1.4099832412739487e-15 20.0
    vertex 44.931851652578125 1.4099832412739487e-15 9.482361909794957
    vertex 45.0 1.4099832412739487e-15 10.0
  endloop
endfacet
facet normal 0.0 1.0 0.0
  outer loop
    vertex 48.0 1.4099832412739487e-15 20.0
    vertex 45.0 1.4099832412739487e-15 10.0
    vertex 44.93185165257813 1.4099832412739487e-15 10.51763809020504
  endloop
endfacet
facet normal 0.0 1.0 0.0
  outer loop
    vertex 48.0 1.4099832412739487e-15 20.0
    vertex 44.93185165257813 1.4099832412739487e-15 10.51763809020504
    vertex 44.732050807568875 1.4099832412739487e-15 10.999999999999998
  endloop
endfacet
facet normal 0.0 1.0 0.0
  outer loop
    vertex 48.0 1.4099832412739487e-15 20.0
    vertex 44.732050807568875 1.4099832412739487e-15 10.999999999999998
    vertex 44.414213562373085 1.4099832412739487e-15 11.414213562373094
  endloop
endfacet
facet normal 0.0 1.0 0.0
  outer loop
    vertex 48.0 1.4099832412739487e-15 20.0
    vertex 44.414213562373085 1.4099832412739487e-15 11.414213562373094
    vertex 43.99999999999999 1.4099832412739487e-15 11.732050807568875
  endloop
endfacet
facet normal 0.0 1.0 0.0
  outer loop
    vertex 48.0 1.4099832412739487e-15 20.0
    vertex 43.99999999999999 1.4099832412739487e-15 11.732050807568875
    vertex 43.51763809020504 1.4099832412739487e-15 11.931851652578136
  endloop
endfacet
facet normal 0.0 1.0 0.0
  outer loop
    vertex 48.0 1.4099832412739487e-15 20.0
    vertex 43.51763809020504 1.4099832412739487e-15 11.931851652578136
    vertex 42.99999999999999 1.4099832412739487e-15 12.0
  endloop
endfacet
facet normal 0.0 1.0 0.0
  outer loop
    vertex 48.0 1.4099832412739487e-15 20.0
    vertex 42.99999999999999 1.4099832412739487e-15 12.0
    vertex 38.0 1.4099832412739487e-15 20.0
  endloop
endfacet
facet normal 1.0 -0.0 -0.0
  outer loop
    vertex 38.0 7.0 0.0
    vertex 38.0 1.4099832412739487e-15 20.0
    vertex 38.0 1.4099832412739487e-15 0.0
  endloop
endfacet
facet normal 1.0 -0.0 -0.0
  outer loop
    vertex 38.0 1.4099832412739487e-15 20.0
    vertex 38.0 7.0 0.0
    vertex 38.0 7.0 20.0
  endloop
endfacet
facet normal 0.0 1.0 0.0
  outer loop
    vertex 0.0 2.8199664825478975e-15 0.0
    vertex 3.2679491924311237 2.114974861910923e-15 9.0
    vertex 10.0 2.8199664825478975e-15 0.0
  endloop
endfacet
facet normal 0.0 1.0 0.0
  outer loop
    vertex 3.2679491924311237 2.114974861910923e-15 9.0
    vertex 0.0 2.8199664825478975e-15 0.0
    vertex 3.0681483474218645 2.114974861910923e-15 9.482361909794959
  endloop
endfacet
facet normal 0.0 1.0 0.0
  outer loop
    vertex 3.0681483474218645 2.114974861910923e-15 9.482361909794959
    vertex 0.0 2.8199664825478975e-15 0.0
    vertex 0.0 2.8199664825478975e-15 20.0
  endloop
endfacet
facet normal 0.0 1.0 0.0
  outer loop
    vertex 10.0 2.8199664825478975e-15 0.0
    vertex 3.2679491924311237 2.114974861910923e-15 9.0
    vertex 3.5857864376269055 2.114974861910923e-15 8.585786437626906
  endloop
endfacet
facet normal 0.0 1.0 0.0
  outer loop
    vertex 10.0 2.8199664825478975e-15 0.0
    vertex 3.5857864376269055 2.114974861910923e-15 8.585786437626906
    vertex 4.000000000000001 2.114974861910923e-15 8.267949192431123
  endloop
endfacet
facet normal 0.0 1.0 0.0
  outer loop
    vertex 10.0 2.8199664825478975e-15 0.0
    vertex 4.000000000000001 2.114974861910923e-15 8.267949192431123
    vertex 4.4823619097949585 2.114974861910923e-15 8.068148347421863
  endloop
endfacet
facet normal 0.0 1.0 0.0
  outer loop
    vertex 10.0 2.8199664825478975e-15 0.0
    vertex 4.4823619097949585 2.114974861910923e-15 8.068148347421863
    vertex 5.000000000000001 2.114974861910923e-15 7.999999999999999
  endloop
endfacet
facet normal 0.0 1.0 0.0
  outer loop
    vertex 3.0681483474218645 2.114974861910923e-15 9.482361909794959
    vertex 0.0 2.8199664825478975e-15 20.0
    vertex 3.0000000000000013 2.114974861910923e-15 10.0
  endloop
endfacet
facet normal 0.0 1.0 0.0
  outer loop
    vertex 3.0000000000000013 2.114974861910923e-15 10.0
    vertex 0.0 2.8199664825478975e-15 20.0
    vertex 3.068148347421865 2.114974861910923e-15 10.517638090205043
  endloop
endfacet
facet normal 0.0 1.0 0.0
  outer loop
    vertex 3.068148347421865 2.114974861910923e-15 10.517638090205043
    vertex 0.0 2.8199664825478975e-15 20.0
    vertex 3.2679491924311246 2.114974861910923e-15 11.000000000000002
  endloop
endfacet
facet normal 0.0 1.0 0.0
  outer loop
    vertex 3.2679491924311246 2.114974861910923e-15 11.000000000000002
    vertex 0.0 2.8199664825478975e-15 20.0
    vertex 3.5857864376269064 2.114974861910923e-15 11.414213562373096
  endloop
endfacet
facet normal 0.0 1.0 0.0
  outer loop
    vertex 3.5857864376269064 2.114974861910923e-15 11.414213562373096
    vertex 0.0 2.8199664825478975e-15 20.0
    vertex 4.000000000000003 2.114974861910923e-15 11.732050807568879
  endloop
endfacet
facet normal 0.0 1.0 0.0
  outer loop
    vertex 4.000000000000003 2.114974861910923e-15 11.732050807568879
    vertex 0.0 2.8199664825478975e-15 20.0
    vertex 4.48236190979496 2.114974861910923e-15 11.931851652578137
  endloop
endfacet
facet normal 0.0 1.0 0.0
  outer loop
    vertex 4.48236190979496 2.114974861910923e-15 11.931851652578137
    vertex 0.0 2.8199664825478975e-15 20.0
    vertex 5.000000000000002 2.114974861910923e-15 12.0
  endloop
endfacet
facet normal 0.0 1.0 0.0
  outer loop
    vertex 10.0 2.8199664825478975e-15 0.0
    vertex 6.931851652578136 2.114974861910923e-15 9.482361909794959
    vertex 10.0 2.8199664825478975e-15 20.0
  endloop
endfacet
facet normal 0.0 1.0 0.0
  outer loop
    vertex 6.931851652578136 2.114974861910923e-15 9.482361909794959
    vertex 10.0 2.8199664825478975e-15 0.0
    vertex 6.732050807568878 2.114974861910923e-15 8.999999999999998
  endloop
endfacet
facet normal 0.0 1.0 0.0
  outer loop
    vertex 6.732050807568878 2.114974861910923e-15 8.999999999999998
    vertex 10.0 2.8199664825478975e-15 0.0
    vertex 6.414213562373095 2.114974861910923e-15 8.585786437626906
  endloop
endfacet
facet normal 0.0 1.0 0.0
  outer loop
    vertex 6.414213562373095 2.114974861910923e-15 8.585786437626906
    vertex 10.0 2.8199664825478975e-15 0.0
    vertex 6.0 2.114974861910923e-15 8.267949192431123
  endloop
endfacet
facet normal 0.0 1.0 0.0
  outer loop
    vertex 6.0 2.114974861910923e-15 8.267949192431123
    vertex 10.0 2.8199664825478975e-15 0.0
    vertex 5.517638090205042 2.114974861910923e-15 8.068148347421863
  endloop
endfacet
facet normal 0.0 1.0 0.0
  outer loop
    vertex 5.517638090205042 2.114974861910923e-15 8.068148347421863
    vertex 10.0 2.8199664825478975e-15 0.0
    vertex 5.000000000000001 2.114974861910923e-15 7.999999999999999
  endloop
endfacet
facet normal 0.0 1.0 0.0
  outer loop
    vertex 10.0 2.8199664825478975e-15 20.0
    vertex 6.931851652578136 2.114974861910923e-15 9.482361909794959
    vertex 7.0 2.114974861910923e-15 10.0
  endloop
endfacet
facet normal 0.0 1.0 0.0
  outer loop
    vertex 10.0 2.8199664825478975e-15 20.0
    vertex 7.0 2.114974861910923e-15 10.0
    vertex 6.931851652578138 2.114974861910923e-15 10.517638090205041
  endloop
endfacet
facet normal 0.0 1.0 0.0
  outer loop
    vertex 10.0 2.8199664825478975e-15 20.0
    vertex 6.931851652578138 2.114974861910923e-15 10.517638090205041
    vertex 6.732050807568878 2.114974861910923e-15 11.0
  endloop
endfacet
facet normal 0.0 1.0 0.0
  outer loop
    vertex 10.0 2.8199664825478975e-15 20.0
    vertex 6.732050807568878 2.114974861910923e-15 11.0
    vertex 6.414213562373097 2.114974861910923e-15 11.414213562373094
  endloop
endfacet
facet normal 0.0 1.0 0.0
  outer loop
    vertex 10.0 2.8199664825478975e-15 20.0
    vertex 6.414213562373097 2.114974861910923e-15 11.414213562373094
    vertex 6.000000000000002 2.114974861910923e-15 11.732050807568877
  endloop
endfacet
facet normal 0.0 1.0 0.0
  outer loop
    vertex 10.0 2.8199664825478975e-15 20.0
    vertex 6.000000000000002 2.114974861910923e-15 11.732050807568877
    vertex 5.517638090205043 2.114974861910923e-15 11.931851652578136
  endloop
endfacet
facet normal 0.0 1.0 0.0
  outer loop
    vertex 10.0 2.8199664825478975e-15 20.0
    vertex 5.517638090205043 2.114974861910923e-15 11.931851652578136
    vertex 5.000000000000002 2.114974861910923e-15 12.0
  endloop
endfacet
facet normal 0.0 1.0 0.0
  outer loop
    vertex 10.0 2.8199664825478975e-15 20.0
    vertex 5.000000000000002 2.114974861910923e-15 12.0
    vertex 0.0 2.8199664825478975e-15 20.0
  endloop
endfacet
facet normal -1.0 -0.0 -0.0
  outer loop
    vertex 10.0 7.0 20.0
    vertex 10.0 2.8199664825478975e-15 0.0
    vertex 10.0 2.8199664825478975e-15 20.0
  endloop
endfacet
facet normal -1.0 -0.0 -0.0
  outer loop
    vertex 10.0 2.8199664825478975e-15 0.0
    vertex 10.0 7.0 20.0
    vertex 10.0 7.0 0.0
  endloop
endfacet
facet normal 0.7933533402912322 0.0 0.6087614290087248
  outer loop
    vertex 41.5857864376269 1.4099832412739487e-15 8.585786437626906
    vertex 41.26794919243112 -3.9999999999999982 9.0
    vertex 41.5857864376269 -3.9999999999999982 8.585786437626906
  endloop
endfacet
facet normal 0.7933533402912322 0.0 0.6087614290087248
  outer loop
    vertex 41.26794919243112 -3.9999999999999982 9.0
    vertex 41.5857864376269 1.4099832412739487e-15 8.585786437626906
    vertex 41.26794919243112 1.4099832412739487e-15 9.0
  endloop
endfacet
facet normal 0.9238795325112861 0.0 0.3826834323650913
  outer loop
    vertex 41.26794919243112 1.4099832412739487e-15 9.0
    vertex 41.068148347421854 -3.9999999999999982 9.482361909794959
    vertex 41.26794919243112 -3.9999999999999982 9.0
  endloop
endfacet
facet normal 0.9238795325112861 0.0 0.3826834323650913
  outer loop
    vertex 41.068148347421854 -3.9999999999999982 9.482361909794959
    vertex 41.26794919243112 1.4099832412739487e-15 9.0
    vertex 41.068148347421854 1.4099832412739487e-15 9.482361909794959
  endloop
endfacet
facet normal 0.9914448613738104 0.0 0.1305261922200518
  outer loop
    vertex 41.068148347421854 1.4099832412739487e-15 9.482361909794959
    vertex 40.99999999999999 -3.9999999999999982 10.0
    vertex 41.068148347421854 -3.9999999999999982 9.482361909794959
  endloop
endfacet
facet normal 0.9914448613738104 0.0 0.1305261922200518
  outer loop
    vertex 40.99999999999999 -3.9999999999999982 10.0
    vertex 41.068148347421854 1.4099832412739487e-15 9.482361909794959
    vertex 40.99999999999999 1.4099832412739487e-15 10.0
  endloop
endfacet
facet normal 0.9914448613738104 -0.0 -0.1305261922200518
  outer loop
    vertex 40.99999999999999 1.4099832412739487e-15 10.0
    vertex 41.068148347421854 -3.9999999999999982 10.517638090205041
    vertex 40.99999999999999 -3.9999999999999982 10.0
  endloop
endfacet
facet normal 0.9914448613738104 -0.0 -0.1305261922200518
  outer loop
    vertex 41.068148347421854 -3.9999999999999982 10.517638090205041
    vertex 40.99999999999999 1.4099832412739487e-15 10.0
    vertex 41.068148347421854 1.4099832412739487e-15 10.517638090205041
  endloop
endfacet
facet normal 0.9238795325112861 -0.0 -0.3826834323650913
  outer loop
    vertex 41.068148347421854 1.4099832412739487e-15 10.517638090205041
    vertex 41.26794919243112 -3.9999999999999982 11.0
    vertex 41.068148347421854 -3.9999999999999982 10.517638090205041
  endloop
endfacet
facet normal 0.9238795325112861 -0.0 -0.3826834323650913
  outer loop
    vertex 41.26794919243112 -3.9999999999999982 11.0
    vertex 41.068148347421854 1.4099832412739487e-15 10.517638090205041
    vertex 41.26794919243112 1.4099832412739487e-15 11.0
  endloop
endfacet
facet normal 0.7933533402912322 -0.0 -0.6087614290087248
  outer loop
    vertex 41.26794919243112 1.4099832412739487e-15 11.0
    vertex 41.5857864376269 -3.9999999999999982 11.414213562373094
    vertex 41.26794919243112 -3.9999999999999982 11.0
  endloop
endfacet
facet normal 0.7933533402912322 -0.0 -0.6087614290087248
  outer loop
    vertex 41.5857864376269 -3.9999999999999982 11.414213562373094
    vertex 41.26794919243112 1.4099832412739487e-15 11.0
    vertex 41.5857864376269 1.4099832412739487e-15 11.414213562373094
  endloop
endfacet
facet normal 0.6087614290087213 -0.0 -0.7933533402912347
  outer loop
    vertex 41.99999999999999 1.4099832412739487e-15 11.732050807568877
    vertex 41.5857864376269 -3.9999999999999982 11.414213562373094
    vertex 41.5857864376269 1.4099832412739487e-15 11.414213562373094
  endloop
endfacet
facet normal 0.6087614290087213 -0.0 -0.7933533402912347
  outer loop
    vertex 41.5857864376269 -3.9999999999999982 11.414213562373094
    vertex 41.99999999999999 1.4099832412739487e-15 11.732050807568877
    vertex 41.99999999999999 -3.9999999999999982 11.732050807568877
  endloop
endfacet
facet normal 0.38268343236508895 -0.0 -0.9238795325112871
  outer loop
    vertex 42.48236190979495 1.4099832412739487e-15 11.931851652578136
    vertex 41.99999999999999 -3.9999999999999982 11.732050807568877
    vertex 41.99999999999999 1.4099832412739487e-15 11.732050807568877
  endloop
endfacet
facet normal 0.38268343236508895 -0.0 -0.9238795325112871
  outer loop
    vertex 41.99999999999999 -3.9999999999999982 11.732050807568877
    vertex 42.48236190979495 1.4099832412739487e-15 11.931851652578136
    vertex 42.48236190979495 -3.9999999999999982 11.931851652578136
  endloop
endfacet
facet normal 0.13052619222005216 -0.0 -0.9914448613738104
  outer loop
    vertex 42.99999999999999 1.4099832412739487e-15 12.0
    vertex 42.48236190979495 -3.9999999999999982 11.931851652578136
    vertex 42.48236190979495 1.4099832412739487e-15 11.931851652578136
  endloop
endfacet
facet normal 0.13052619222005216 -0.0 -0.9914448613738104
  outer loop
    vertex 42.48236190979495 -3.9999999999999982 11.931851652578136
    vertex 42.99999999999999 1.4099832412739487e-15 12.0
    vertex 42.99999999999999 -3.9999999999999982 12.0
  endloop
endfacet
facet normal -0.13052619222005077 -0.0 -0.9914448613738106
  outer loop
    vertex 43.51763809020504 1.4099832412739487e-15 11.931851652578136
    vertex 42.99999999999999 -3.9999999999999982 12.0
    vertex 42.99999999999999 1.4099832412739487e-15 12.0
  endloop
endfacet
facet normal -0.13052619222005077 -0.0 -0.9914448613738106
  outer loop
    vertex 42.99999999999999 -3.9999999999999982 12.0
    vertex 43.51763809020504 1.4099832412739487e-15 11.931851652578136
    vertex 43.51763809020504 -3.9999999999999982 11.931851652578136
  endloop
endfacet
facet normal -0.3826834323650951 -0.0 -0.9238795325112845
  outer loop
    vertex 43.99999999999999 1.4099832412739487e-15 11.732050807568875
    vertex 43.51763809020504 -3.9999999999999982 11.931851652578136
    vertex 43.51763809020504 1.4099832412739487e-15 11.931851652578136
  endloop
endfacet
facet normal -0.3826834323650951 -0.0 -0.9238795325112845
  outer loop
    vertex 43.51763809020504 -3.9999999999999982 11.931851652578136
    vertex 43.99999999999999 1.4099832412739487e-15 11.732050807568875
    vertex 43.99999999999999 -3.9999999999999982 11.732050807568875
  endloop
endfacet
facet normal -0.6087614290087197 -0.0 -0.7933533402912359
  outer loop
    vertex 44.414213562373085 1.4099832412739487e-15 11.414213562373094
    vertex 43.99999999999999 -3.9999999999999982 11.732050807568875
    vertex 43.99999999999999 1.4099832412739487e-15 11.732050807568875
  endloop
endfacet
facet normal -0.6087614290087197 -0.0 -0.7933533402912359
  outer loop
    vertex 43.99999999999999 -3.9999999999999982 11.732050807568875
    vertex 44.414213562373085 1.4099832412739487e-15 11.414213562373094
    vertex 44.414213562373085 -3.9999999999999982 11.414213562373094
  endloop
endfacet
facet normal -0.7933533402912331 -0.0 -0.6087614290087234
  outer loop
    vertex 44.414213562373085 1.4099832412739487e-15 11.414213562373094
    vertex 44.732050807568875 -3.9999999999999982 10.999999999999998
    vertex 44.414213562373085 -3.9999999999999982 11.414213562373094
  endloop
endfacet
facet normal -0.7933533402912331 -0.0 -0.6087614290087234
  outer loop
    vertex 44.732050807568875 -3.9999999999999982 10.999999999999998
    vertex 44.414213562373085 1.4099832412739487e-15 11.414213562373094
    vertex 44.732050807568875 1.4099832412739487e-15 10.999999999999998
  endloop
endfacet
facet normal -0.9238795325112861 -0.0 -0.3826834323650913
  outer loop
    vertex 44.732050807568875 1.4099832412739487e-15 10.999999999999998
    vertex 44.93185165257813 -3.9999999999999982 10.51763809020504
    vertex 44.732050807568875 -3.9999999999999982 10.999999999999998
  endloop
endfacet
facet normal -0.9238795325112861 -0.0 -0.3826834323650913
  outer loop
    vertex 44.93185165257813 -3.9999999999999982 10.51763809020504
    vertex 44.732050807568875 1.4099832412739487e-15 10.999999999999998
    vertex 44.93185165257813 1.4099832412739487e-15 10.51763809020504
  endloop
endfacet
facet normal -0.9914448613738104 -0.0 -0.13052619222005216
  outer loop
    vertex 44.93185165257813 1.4099832412739487e-15 10.51763809020504
    vertex 45.0 -3.9999999999999982 10.0
    vertex 44.93185165257813 -3.9999999999999982 10.51763809020504
  endloop
endfacet
facet normal -0.9914448613738104 -0.0 -0.13052619222005216
  outer loop
    vertex 45.0 -3.9999999999999982 10.0
    vertex 44.93185165257813 1.4099832412739487e-15 10.51763809020504
    vertex 45.0 1.4099832412739487e-15 10.0
  endloop
endfacet
facet normal -0.991444861373809 -0.0 0.13052619222006207
  outer loop
    vertex 45.0 1.4099832412739487e-15 10.0
    vertex 44.931851652578125 -3.9999999999999982 9.482361909794957
    vertex 45.0 -3.9999999999999982 10.0
  endloop
endfacet
facet normal -0.991444861373809 -0.0 0.13052619222006207
  outer loop
    vertex 44.931851652578125 -3.9999999999999982 9.482361909794957
    vertex 45.0 1.4099832412739487e-15 10.0
    vertex 44.931851652578125 1.4099832412739487e-15 9.482361909794957
  endloop
endfacet
facet normal -0.92387953251129 -0.0 0.38268343236508207
  outer loop
    vertex 44.931851652578125 1.4099832412739487e-15 9.482361909794957
    vertex 44.732050807568875 -3.9999999999999982 8.999999999999998
    vertex 44.931851652578125 -3.9999999999999982 9.482361909794957
  endloop
endfacet
facet normal -0.92387953251129 -0.0 0.38268343236508207
  outer loop
    vertex 44.732050807568875 -3.9999999999999982 8.999999999999998
    vertex 44.931851652578125 1.4099832412739487e-15 9.482361909794957
    vertex 44.732050807568875 1.4099832412739487e-15 8.999999999999998
  endloop
endfacet
facet normal -0.7933533402912322 -0.0 0.6087614290087248
  outer loop
    vertex 44.732050807568875 1.4099832412739487e-15 8.999999999999998
    vertex 44.414213562373085 -3.9999999999999982 8.585786437626904
    vertex 44.732050807568875 -3.9999999999999982 8.999999999999998
  endloop
endfacet
facet normal -0.7933533402912322 -0.0 0.6087614290087248
  outer loop
    vertex 44.414213562373085 -3.9999999999999982 8.585786437626904
    vertex 44.732050807568875 1.4099832412739487e-15 8.999999999999998
    vertex 44.414213562373085 1.4099832412739487e-15 8.585786437626904
  endloop
endfacet
facet normal -0.6087614290087197 -0.0 0.7933533402912359
  outer loop
    vertex 44.414213562373085 -3.9999999999999982 8.585786437626904
    vertex 43.99999999999999 1.4099832412739487e-15 8.267949192431123
    vertex 43.99999999999999 -3.9999999999999982 8.267949192431123
  endloop
endfacet
facet normal -0.6087614290087197 -0.0 0.7933533402912359
  outer loop
    vertex 43.99999999999999 1.4099832412739487e-15 8.267949192431123
    vertex 44.414213562373085 -3.9999999999999982 8.585786437626904
    vertex 44.414213562373085 1.4099832412739487e-15 8.585786437626904
  endloop
endfacet
facet normal -0.38268343236508895 -0.0 0.9238795325112871
  outer loop
    vertex 43.99999999999999 -3.9999999999999982 8.267949192431123
    vertex 43.51763809020503 1.4099832412739487e-15 8.068148347421864
    vertex 43.51763809020503 -3.9999999999999982 8.068148347421864
  endloop
endfacet
facet normal -0.38268343236508895 -0.0 0.9238795325112871
  outer loop
    vertex 43.51763809020503 1.4099832412739487e-15 8.068148347421864
    vertex 43.99999999999999 -3.9999999999999982 8.267949192431123
    vertex 43.99999999999999 1.4099832412739487e-15 8.267949192431123
  endloop
endfacet
facet normal -0.13052619222005216 -0.0 0.9914448613738104
  outer loop
    vertex 43.51763809020503 -3.9999999999999982 8.068148347421864
    vertex 42.99999999999999 1.4099832412739487e-15 8.0
    vertex 42.99999999999999 -3.9999999999999982 8.0
  endloop
endfacet
facet normal -0.13052619222005216 -0.0 0.9914448613738104
  outer loop
    vertex 42.99999999999999 1.4099832412739487e-15 8.0
    vertex 43.51763809020503 -3.9999999999999982 8.068148347421864
    vertex 43.51763809020503 1.4099832412739487e-15 8.068148347421864
  endloop
endfacet
facet normal 0.13052619222005216 0.0 0.9914448613738104
  outer loop
    vertex 42.99999999999999 -3.9999999999999982 8.0
    vertex 42.48236190979495 1.4099832412739487e-15 8.068148347421864
    vertex 42.48236190979495 -3.9999999999999982 8.068148347421864
  endloop
endfacet
facet normal 0.13052619222005216 0.0 0.9914448613738104
  outer loop
    vertex 42.48236190979495 1.4099832412739487e-15 8.068148347421864
    vertex 42.99999999999999 -3.9999999999999982 8.0
    vertex 42.99999999999999 1.4099832412739487e-15 8.0
  endloop
endfacet
facet normal 0.38268343236508895 0.0 0.9238795325112871
  outer loop
    vertex 42.48236190979495 -3.9999999999999982 8.068148347421864
    vertex 41.99999999999999 1.4099832412739487e-15 8.267949192431123
    vertex 41.99999999999999 -3.9999999999999982 8.267949192431123
  endloop
endfacet
facet normal 0.38268343236508895 0.0 0.9238795325112871
  outer loop
    vertex 41.99999999999999 1.4099832412739487e-15 8.267949192431123
    vertex 42.48236190979495 -3.9999999999999982 8.068148347421864
    vertex 42.48236190979495 1.4099832412739487e-15 8.068148347421864
  endloop
endfacet
facet normal 0.6087614290087213 0.0 0.7933533402912347
  outer loop
    vertex 41.99999999999999 -3.9999999999999982 8.267949192431123
    vertex 41.5857864376269 1.4099832412739487e-15 8.585786437626906
    vertex 41.5857864376269 -3.9999999999999982 8.585786437626906
  endloop
endfacet
facet normal 0.6087614290087213 0.0 0.7933533402912347
  outer loop
    vertex 41.5857864376269 1.4099832412739487e-15 8.585786437626906
    vertex 41.99999999999999 -3.9999999999999982 8.267949192431123
    vertex 41.99999999999999 1.4099832412739487e-15 8.267949192431123
  endloop
endfacet
facet normal -0.3826834323650913 -0.0 0.9238795325112861
  outer loop
    vertex 6.0 -3.9999999999999982 8.267949192431123
    vertex 5.517638090205042 2.114974861910923e-15 8.068148347421863
    vertex 5.517638090205042 -3.9999999999999982 8.068148347421863
  endloop
endfacet
facet normal -0.3826834323650913 -0.0 0.9238795325112861
  outer loop
    vertex 5.517638090205042 2.114974861910923e-15 8.068148347421863
    vertex 6.0 -3.9999999999999982 8.267949192431123
    vertex 6.0 2.114974861910923e-15 8.267949192431123
  endloop
endfacet
facet normal -0.1305261922200518 -0.0 0.9914448613738104
  outer loop
    vertex 5.517638090205042 -3.9999999999999982 8.068148347421863
    vertex 5.000000000000001 2.114974861910923e-15 7.999999999999999
    vertex 5.000000000000001 -3.9999999999999982 7.999999999999999
  endloop
endfacet
facet normal -0.1305261922200518 -0.0 0.9914448613738104
  outer loop
    vertex 5.000000000000001 2.114974861910923e-15 7.999999999999999
    vertex 5.517638090205042 -3.9999999999999982 8.068148347421863
    vertex 5.517638090205042 2.114974861910923e-15 8.068148347421863
  endloop
endfacet
facet normal 0.13052619222005163 0.0 0.9914448613738104
  outer loop
    vertex 5.000000000000001 -3.9999999999999982 7.999999999999999
    vertex 4.4823619097949585 2.114974861910923e-15 8.068148347421863
    vertex 4.4823619097949585 -3.9999999999999982 8.068148347421863
  endloop
endfacet
facet normal 0.13052619222005163 0.0 0.9914448613738104
  outer loop
    vertex 4.4823619097949585 2.114974861910923e-15 8.068148347421863
    vertex 5.000000000000001 -3.9999999999999982 7.999999999999999
    vertex 5.000000000000001 2.114974861910923e-15 7.999999999999999
  endloop
endfacet
facet normal 0.38268343236509184 0.0 0.9238795325112861
  outer loop
    vertex 4.4823619097949585 -3.9999999999999982 8.068148347421863
    vertex 4.000000000000001 2.114974861910923e-15 8.267949192431123
    vertex 4.000000000000001 -3.9999999999999982 8.267949192431123
  endloop
endfacet
facet normal 0.38268343236509184 0.0 0.9238795325112861
  outer loop
    vertex 4.000000000000001 2.114974861910923e-15 8.267949192431123
    vertex 4.4823619097949585 -3.9999999999999982 8.068148347421863
    vertex 4.4823619097949585 2.114974861910923e-15 8.068148347421863
  endloop
endfacet
facet normal 0.6087614290087208 0.0 0.7933533402912353
  outer loop
    vertex 4.000000000000001 -3.9999999999999982 8.267949192431123
    vertex 3.5857864376269055 2.114974861910923e-15 8.585786437626906
    vertex 3.5857864376269055 -3.9999999999999982 8.585786437626906
  endloop
endfacet
facet normal 0.6087614290087208 0.0 0.7933533402912353
  outer loop
    vertex 3.5857864376269055 2.114974861910923e-15 8.585786437626906
    vertex 4.000000000000001 -3.9999999999999982 8.267949192431123
    vertex 4.000000000000001 2.114974861910923e-15 8.267949192431123
  endloop
endfacet
facet normal 0.7933533402912354 0.0 0.6087614290087205
  outer loop
    vertex 3.5857864376269055 2.114974861910923e-15 8.585786437626906
    vertex 3.2679491924311237 -3.9999999999999982 9.0
    vertex 3.5857864376269055 -3.9999999999999982 8.585786437626906
  endloop
endfacet
facet normal 0.7933533402912354 0.0 0.6087614290087205
  outer loop
    vertex 3.2679491924311237 -3.9999999999999982 9.0
    vertex 3.5857864376269055 2.114974861910923e-15 8.585786437626906
    vertex 3.2679491924311237 2.114974861910923e-15 9.0
  endloop
endfacet
facet normal 0.9238795325112868 0.0 0.38268343236508956
  outer loop
    vertex 3.2679491924311237 2.114974861910923e-15 9.0
    vertex 3.0681483474218645 -3.9999999999999982 9.482361909794959
    vertex 3.2679491924311237 -3.9999999999999982 9.0
  endloop
endfacet
facet normal 0.9238795325112868 0.0 0.38268343236508956
  outer loop
    vertex 3.0681483474218645 -3.9999999999999982 9.482361909794959
    vertex 3.2679491924311237 2.114974861910923e-15 9.0
    vertex 3.0681483474218645 2.114974861910923e-15 9.482361909794959
  endloop
endfacet
facet normal 0.9914448613738104 0.0 0.1305261922200518
  outer loop
    vertex 3.0681483474218645 2.114974861910923e-15 9.482361909794959
    vertex 3.0000000000000013 -3.9999999999999982 10.0
    vertex 3.0681483474218645 -3.9999999999999982 9.482361909794959
  endloop
endfacet
facet normal 0.9914448613738104 0.0 0.1305261922200518
  outer loop
    vertex 3.0000000000000013 -3.9999999999999982 10.0
    vertex 3.0681483474218645 2.114974861910923e-15 9.482361909794959
    vertex 3.0000000000000013 2.114974861910923e-15 10.0
  endloop
endfacet
facet normal 0.9914448613738105 -0.0 -0.13052619222005213
  outer loop
    vertex 3.0000000000000013 2.114974861910923e-15 10.0
    vertex 3.068148347421865 -3.9999999999999982 10.517638090205043
    vertex 3.0000000000000013 -3.9999999999999982 10.0
  endloop
endfacet
facet normal 0.9914448613738105 -0.0 -0.13052619222005213
  outer loop
    vertex 3.068148347421865 -3.9999999999999982 10.517638090205043
    vertex 3.0000000000000013 2.114974861910923e-15 10.0
    vertex 3.068148347421865 2.114974861910923e-15 10.517638090205043
  endloop
endfacet
facet normal 0.9238795325112867 -0.0 -0.3826834323650902
  outer loop
    vertex 3.068148347421865 2.114974861910923e-15 10.517638090205043
    vertex 3.2679491924311246 -3.9999999999999982 11.000000000000002
    vertex 3.068148347421865 -3.9999999999999982 10.517638090205043
  endloop
endfacet
facet normal 0.9238795325112867 -0.0 -0.3826834323650902
  outer loop
    vertex 3.2679491924311246 -3.9999999999999982 11.000000000000002
    vertex 3.068148347421865 2.114974861910923e-15 10.517638090205043
    vertex 3.2679491924311246 2.114974861910923e-15 11.000000000000002
  endloop
endfacet
facet normal 0.7933533402912354 -0.0 -0.6087614290087205
  outer loop
    vertex 3.2679491924311246 2.114974861910923e-15 11.000000000000002
    vertex 3.5857864376269064 -3.9999999999999982 11.414213562373096
    vertex 3.2679491924311246 -3.9999999999999982 11.000000000000002
  endloop
endfacet
facet normal 0.7933533402912354 -0.0 -0.6087614290087205
  outer loop
    vertex 3.5857864376269064 -3.9999999999999982 11.414213562373096
    vertex 3.2679491924311246 2.114974861910923e-15 11.000000000000002
    vertex 3.5857864376269064 2.114974861910923e-15 11.414213562373096
  endloop
endfacet
facet normal 0.60876142900872 -0.0 -0.7933533402912356
  outer loop
    vertex 4.000000000000003 2.114974861910923e-15 11.732050807568879
    vertex 3.5857864376269064 -3.9999999999999982 11.414213562373096
    vertex 3.5857864376269064 2.114974861910923e-15 11.414213562373096
  endloop
endfacet
facet normal 0.60876142900872 -0.0 -0.7933533402912356
  outer loop
    vertex 3.5857864376269064 -3.9999999999999982 11.414213562373096
    vertex 4.000000000000003 2.114974861910923e-15 11.732050807568879
    vertex 4.000000000000003 -3.9999999999999982 11.732050807568879
  endloop
endfacet
facet normal 0.3826834323650895 -0.0 -0.923879532511287
  outer loop
    vertex 4.48236190979496 2.114974861910923e-15 11.931851652578137
    vertex 4.000000000000003 -3.9999999999999982 11.732050807568879
    vertex 4.000000000000003 2.114974861910923e-15 11.732050807568879
  endloop
endfacet
facet normal 0.3826834323650895 -0.0 -0.923879532511287
  outer loop
    vertex 4.000000000000003 -3.9999999999999982 11.732050807568879
    vertex 4.48236190979496 2.114974861910923e-15 11.931851652578137
    vertex 4.48236190979496 -3.9999999999999982 11.931851652578137
  endloop
endfacet
facet normal 0.1305261922200518 -0.0 -0.9914448613738104
  outer loop
    vertex 5.000000000000002 2.114974861910923e-15 12.0
    vertex 4.48236190979496 -3.9999999999999982 11.931851652578137
    vertex 4.48236190979496 2.114974861910923e-15 11.931851652578137
  endloop
endfacet
facet normal 0.1305261922200518 -0.0 -0.9914448613738104
  outer loop
    vertex 4.48236190979496 -3.9999999999999982 11.931851652578137
    vertex 5.000000000000002 2.114974861910923e-15 12.0
    vertex 5.000000000000002 -3.9999999999999982 12.0
  endloop
endfacet
facet normal -0.1305261922200543 -0.0 -0.9914448613738102
  outer loop
    vertex 5.517638090205043 2.114974861910923e-15 11.931851652578136
    vertex 5.000000000000002 -3.9999999999999982 12.0
    vertex 5.000000000000002 2.114974861910923e-15 12.0
  endloop
endfacet
facet normal -0.1305261922200543 -0.0 -0.9914448613738102
  outer loop
    vertex 5.000000000000002 -3.9999999999999982 12.0
    vertex 5.517638090205043 2.114974861910923e-15 11.931851652578136
    vertex 5.517638090205043 -3.9999999999999982 11.931851652578136
  endloop
endfacet
facet normal -0.38268343236508895 -0.0 -0.9238795325112871
  outer loop
    vertex 6.000000000000002 2.114974861910923e-15 11.732050807568877
    vertex 5.517638090205043 -3.9999999999999982 11.931851652578136
    vertex 5.517638090205043 2.114974861910923e-15 11.931851652578136
  endloop
endfacet
facet normal -0.38268343236508895 -0.0 -0.9238795325112871
  outer loop
    vertex 5.517638090205043 -3.9999999999999982 11.931851652578136
    vertex 6.000000000000002 2.114974861910923e-15 11.732050807568877
    vertex 6.000000000000002 -3.9999999999999982 11.732050807568877
  endloop
endfacet
facet normal -0.6087614290087213 -0.0 -0.7933533402912347
  outer loop
    vertex 6.414213562373097 2.114974861910923e-15 11.414213562373094
    vertex 6.000000000000002 -3.9999999999999982 11.732050807568877
    vertex 6.000000000000002 2.114974861910923e-15 11.732050807568877
  endloop
endfacet
facet normal -0.6087614290087213 -0.0 -0.7933533402912347
  outer loop
    vertex 6.000000000000002 -3.9999999999999982 11.732050807568877
    vertex 6.414213562373097 2.114974861910923e-15 11.414213562373094
    vertex 6.414213562373097 -3.9999999999999982 11.414213562373094
  endloop
endfacet
facet normal -0.7933533402912359 -0.0 -0.6087614290087197
  outer loop
    vertex 6.414213562373097 2.114974861910923e-15 11.414213562373094
    vertex 6.732050807568878 -3.9999999999999982 11.0
    vertex 6.414213562373097 -3.9999999999999982 11.414213562373094
  endloop
endfacet
facet normal -0.7933533402912359 -0.0 -0.6087614290087197
  outer loop
    vertex 6.732050807568878 -3.9999999999999982 11.0
    vertex 6.414213562373097 2.114974861910923e-15 11.414213562373094
    vertex 6.732050807568878 2.114974861910923e-15 11.0
  endloop
endfacet
facet normal -0.9238795325112861 -0.0 -0.3826834323650913
  outer loop
    vertex 6.732050807568878 2.114974861910923e-15 11.0
    vertex 6.931851652578138 -3.9999999999999982 10.517638090205041
    vertex 6.732050807568878 -3.9999999999999982 11.0
  endloop
endfacet
facet normal -0.9238795325112861 -0.0 -0.3826834323650913
  outer loop
    vertex 6.931851652578138 -3.9999999999999982 10.517638090205041
    vertex 6.732050807568878 2.114974861910923e-15 11.0
    vertex 6.931851652578138 2.114974861910923e-15 10.517638090205041
  endloop
endfacet
facet normal -0.9914448613738108 -0.0 -0.13052619222004916
  outer loop
    vertex 6.931851652578138 2.114974861910923e-15 10.517638090205041
    vertex 7.0 -3.9999999999999982 10.0
    vertex 6.931851652578138 -3.9999999999999982 10.517638090205041
  endloop
endfacet
facet normal -0.9914448613738108 -0.0 -0.13052619222004916
  outer loop
    vertex 7.0 -3.9999999999999982 10.0
    vertex 6.931851652578138 2.114974861910923e-15 10.517638090205041
    vertex 7.0 2.114974861910923e-15 10.0
  endloop
endfacet
facet normal -0.9914448613738104 -0.0 0.1305261922200518
  outer loop
    vertex 7.0 2.114974861910923e-15 10.0
    vertex 6.931851652578136 -3.9999999999999982 9.482361909794959
    vertex 7.0 -3.9999999999999982 10.0
  endloop
endfacet
facet normal -0.9914448613738104 -0.0 0.1305261922200518
  outer loop
    vertex 6.931851652578136 -3.9999999999999982 9.482361909794959
    vertex 7.0 2.114974861910923e-15 10.0
    vertex 6.931851652578136 2.114974861910923e-15 9.482361909794959
  endloop
endfacet
facet normal -0.9238795325112875 -0.0 0.38268343236508806
  outer loop
    vertex 6.931851652578136 2.114974861910923e-15 9.482361909794959
    vertex 6.732050807568878 -3.9999999999999982 8.999999999999998
    vertex 6.931851652578136 -3.9999999999999982 9.482361909794959
  endloop
endfacet
facet normal -0.9238795325112875 -0.0 0.38268343236508806
  outer loop
    vertex 6.732050807568878 -3.9999999999999982 8.999999999999998
    vertex 6.931851652578136 2.114974861910923e-15 9.482361909794959
    vertex 6.732050807568878 2.114974861910923e-15 8.999999999999998
  endloop
endfacet
facet normal -0.7933533402912337 -0.0 0.6087614290087227
  outer loop
    vertex 6.732050807568878 2.114974861910923e-15 8.999999999999998
    vertex 6.414213562373095 -3.9999999999999982 8.585786437626906
    vertex 6.732050807568878 -3.9999999999999982 8.999999999999998
  endloop
endfacet
facet normal -0.7933533402912337 -0.0 0.6087614290087227
  outer loop
    vertex 6.414213562373095 -3.9999999999999982 8.585786437626906
    vertex 6.732050807568878 2.114974861910923e-15 8.999999999999998
    vertex 6.414213562373095 2.114974861910923e-15 8.585786437626906
  endloop
endfacet
facet normal -0.6087614290087213 -0.0 0.7933533402912347
  outer loop
    vertex 6.414213562373095 -3.9999999999999982 8.585786437626906
    vertex 6.0 2.114974861910923e-15 8.267949192431123
    vertex 6.0 -3.9999999999999982 8.267949192431123
  endloop
endfacet
facet normal -0.6087614290087213 -0.0 0.7933533402912347
  outer loop
    vertex 6.0 2.114974861910923e-15 8.267949192431123
    vertex 6.414213562373095 -3.9999999999999982 8.585786437626906
    vertex 6.414213562373095 2.114974861910923e-15 8.585786437626906
  endloop
endfacet
endsolid suport_fsr_bed__down_v3_x3
