solid top
facet normal 0.7933533402912099 -0.608761429008754 -4.696401722214119e-16
  outer loop
    vertex 4.337903869429505 7.734924240491773 0.0
    vertex 4.0041747619739025 7.30000000000002 5.999999999999999
    vertex 4.0041747619739025 7.30000000000002 0.0
  endloop
endfacet
facet normal 0.7933533402912099 -0.608761429008754 -4.696401722214119e-16
  outer loop
    vertex 4.0041747619739025 7.30000000000002 5.999999999999999
    vertex 4.337903869429505 7.734924240491773 0.0
    vertex 4.337903869429505 7.734924240491773 5.999999999999999
  endloop
endfacet
facet normal 0.3826834323650916 -0.923879532511286 -4.299164253661549e-16
  outer loop
    vertex 5.27930811520595 8.278444235207067 5.999999999999999
    vertex 4.77282810992124 8.068653347947341 0.0
    vertex 5.27930811520595 8.278444235207067 0.0
  endloop
endfacet
facet normal 0.3826834323650916 -0.923879532511286 -4.299164253661549e-16
  outer loop
    vertex 4.77282810992124 8.068653347947341 0.0
    vertex 5.27930811520595 8.278444235207067 5.999999999999999
    vertex 4.77282810992124 8.068653347947341 5.999999999999999
  endloop
endfacet
facet normal 0.60876142900873 -0.7933533402912281 -4.656447592065727e-16
  outer loop
    vertex 4.77282810992124 8.068653347947341 5.999999999999999
    vertex 4.337903869429505 7.734924240491773 0.0
    vertex 4.77282810992124 8.068653347947341 0.0
  endloop
endfacet
facet normal 0.60876142900873 -0.7933533402912281 -4.656447592065727e-16
  outer loop
    vertex 4.337903869429505 7.734924240491773 0.0
    vertex 4.77282810992124 8.068653347947341 5.999999999999999
    vertex 4.337903869429505 7.734924240491773 5.999999999999999
  endloop
endfacet
facet normal 2.531099597578505e-16 -5.4717196546812024e-33 1.0
  outer loop
    vertex 41.99999999999998 0.0 10.999999999999996
    vertex 30.858729679204423 12.500000000000044 11.0
    vertex 30.858729679204423 0.0 11.0
  endloop
endfacet
facet normal 2.531099597578505e-16 -5.4717196546812024e-33 1.0
  outer loop
    vertex 30.858729679204423 12.500000000000044 11.0
    vertex 41.99999999999998 0.0 10.999999999999996
    vertex 41.99999999999998 12.500000000000043 10.999999999999996
  endloop
endfacet
facet normal 0.9914448613738167 -0.13052619222000428 -3.835242141967118e-16
  outer loop
    vertex 3.7943838747141836 6.793519994715315 0.0
    vertex 3.7228281099212532 6.250000000000022 5.999999999999999
    vertex 3.7228281099212532 6.250000000000022 0.0
  endloop
endfacet
facet normal 0.9914448613738167 -0.13052619222000428 -3.835242141967118e-16
  outer loop
    vertex 3.7228281099212532 6.250000000000022 5.999999999999999
    vertex 3.7943838747141836 6.793519994715315 0.0
    vertex 3.7943838747141836 6.793519994715315 5.999999999999999
  endloop
endfacet
facet normal 0.0872475490348715 -0.9961866618196652 -3.515172474021957e-16
  outer loop
    vertex 5.47886183019051 8.295921454287075 7.723302528497565e-15
    vertex 5.27930811520595 8.278444235207067 5.999999999999999
    vertex 5.27930811520595 8.278444235207067 0.0
  endloop
endfacet
facet normal 0.0872475490348715 -0.9961866618196652 -3.515172474021957e-16
  outer loop
    vertex 5.27930811520595 8.278444235207067 5.999999999999999
    vertex 5.47886183019051 8.295921454287075 7.723302528497565e-15
    vertex 5.47886183019051 8.295921454287075 6.000000000000007
  endloop
endfacet
facet normal 0.7933533402912099 0.608761429008754 -7.674038600890097e-17
  outer loop
    vertex 4.0041747619739025 5.200000000000024 0.0
    vertex 4.337903869429505 4.765075759508273 5.999999999999999
    vertex 4.337903869429505 4.765075759508273 0.0
  endloop
endfacet
facet normal 0.7933533402912099 0.608761429008754 -7.674038600890097e-17
  outer loop
    vertex 4.337903869429505 4.765075759508273 5.999999999999999
    vertex 4.0041747619739025 5.200000000000024 0.0
    vertex 4.0041747619739025 5.200000000000024 5.999999999999999
  endloop
endfacet
facet normal 0.9914448613738169 0.13052619222000297 -2.9928150338325287e-16
  outer loop
    vertex 3.7228281099212532 6.250000000000022 0.0
    vertex 3.7943838747141836 5.706480005284724 5.999999999999999
    vertex 3.7943838747141836 5.706480005284724 0.0
  endloop
endfacet
facet normal 0.9914448613738169 0.13052619222000297 -2.9928150338325287e-16
  outer loop
    vertex 3.7943838747141836 5.706480005284724 5.999999999999999
    vertex 3.7228281099212532 6.250000000000022 0.0
    vertex 3.7228281099212532 6.250000000000022 5.999999999999999
  endloop
endfacet
facet normal 0.6087614290087364 0.7933533402912232 4.6392211169420284e-17
  outer loop
    vertex 4.337903869429505 4.765075759508273 5.999999999999999
    vertex 4.77282810992124 4.4313466520526985 0.0
    vertex 4.337903869429505 4.765075759508273 0.0
  endloop
endfacet
facet normal 0.6087614290087364 0.7933533402912232 4.6392211169420284e-17
  outer loop
    vertex 4.77282810992124 4.4313466520526985 0.0
    vertex 4.337903869429505 4.765075759508273 5.999999999999999
    vertex 4.77282810992124 4.4313466520526985 5.999999999999999
  endloop
endfacet
facet normal 0.9238795325112866 0.38268343236509017 -1.9464325270024655e-16
  outer loop
    vertex 3.7943838747141836 5.706480005284724 0.0
    vertex 4.0041747619739025 5.200000000000024 5.999999999999999
    vertex 4.0041747619739025 5.200000000000024 0.0
  endloop
endfacet
facet normal 0.9238795325112866 0.38268343236509017 -1.9464325270024655e-16
  outer loop
    vertex 4.0041747619739025 5.200000000000024 5.999999999999999
    vertex 3.7943838747141836 5.706480005284724 0.0
    vertex 3.7943838747141836 5.706480005284724 5.999999999999999
  endloop
endfacet
facet normal -1.0 -2.9166830440703316e-31 3.4434881060043017e-16
  outer loop
    vertex 0.0 8.147617621050346 6.000000000000013
    vertex 0.0 4.352382378949683 9.86988268891764e-15
    vertex 0.0 4.352382378949683 6.000000000000009
  endloop
endfacet
facet normal -1.0 -2.9166830440703316e-31 3.4434881060043017e-16
  outer loop
    vertex 0.0 4.352382378949683 9.86988268891764e-15
    vertex 0.0 8.147617621050346 6.000000000000013
    vertex 0.0 8.147617621050346 1.3084500523546321e-14
  endloop
endfacet
facet normal -1.0 0.0 2.5310995975785056e-16
  outer loop
    vertex 30.858729679204423 12.500000000000044 11.0
    vertex 30.858729679204423 0.0 6.000000000000002
    vertex 30.858729679204423 0.0 11.0
  endloop
endfacet
facet normal -1.0 0.0 2.5310995975785056e-16
  outer loop
    vertex 30.858729679204423 0.0 6.000000000000002
    vertex 30.858729679204423 12.500000000000044 11.0
    vertex 30.858729679204423 12.500000000000044 6.000000000000002
  endloop
endfacet
facet normal 0.15531267247472083 -0.9878653621667075 -3.722700730379345e-16
  outer loop
    vertex 5.822828109921227 8.35000000000002 5.999999999999999
    vertex 5.47886183019051 8.295921454287075 7.723302528497565e-15
    vertex 5.822828109921227 8.35000000000002 0.0
  endloop
endfacet
facet normal 0.15531267247472083 -0.9878653621667075 -3.722700730379345e-16
  outer loop
    vertex 5.47886183019051 8.295921454287075 7.723302528497565e-15
    vertex 5.822828109921227 8.35000000000002 5.999999999999999
    vertex 5.47886183019051 8.295921454287075 6.000000000000007
  endloop
endfacet
facet normal -0.0 -1.0 -3.2270423805617043e-16
  outer loop
    vertex 17.46848432976368 8.35000000000002 5.999999999999999
    vertex 5.822828109921227 8.35000000000002 0.0
    vertex 17.46848432976368 8.35000000000002 0.0
  endloop
endfacet
facet normal -0.0 -1.0 -3.2270423805617043e-16
  outer loop
    vertex 5.822828109921227 8.35000000000002 0.0
    vertex 17.46848432976368 8.35000000000002 5.999999999999999
    vertex 5.822828109921227 8.35000000000002 5.999999999999999
  endloop
endfacet
facet normal 2.9798611045023033e-16 -1.8519601215887624e-16 1.0
  outer loop
    vertex 0.14830383323676166 3.225902927708889 6.000000000000009
    vertex 0.0 8.147617621050346 6.000000000000013
    vertex 0.0 4.352382378949683 6.000000000000009
  endloop
endfacet
facet normal 2.9798611045023033e-16 -1.8519601215887624e-16 1.0
  outer loop
    vertex 0.0 8.147617621050346 6.000000000000013
    vertex 0.14830383323676166 3.225902927708889 6.000000000000009
    vertex 0.14830383323672783 9.274097072291145 6.000000000000013
  endloop
endfacet
facet normal 2.9798611045023033e-16 -1.8519601215887624e-16 1.0
  outer loop
    vertex 0.14830383323672783 9.274097072291145 6.000000000000013
    vertex 0.14830383323676166 3.225902927708889 6.000000000000009
    vertex 0.5831086717955117 10.323808810525197 6.000000000000013
  endloop
endfacet
facet normal 2.9798611045023033e-16 -1.8519601215887624e-16 1.0
  outer loop
    vertex 0.5831086717955117 10.323808810525197 6.000000000000013
    vertex 0.14830383323676166 3.225902927708889 6.000000000000009
    vertex 0.5831086717955231 2.1761911894748414 6.000000000000009
  endloop
endfacet
facet normal 2.9798611045023033e-16 -1.8519601215887624e-16 1.0
  outer loop
    vertex 0.5831086717955117 10.323808810525197 6.000000000000013
    vertex 0.5831086717955231 2.1761911894748414 6.000000000000009
    vertex 1.2747832844775329 11.225216715522517 6.000000000000013
  endloop
endfacet
facet normal 2.9798611045023033e-16 -1.8519601215887624e-16 1.0
  outer loop
    vertex 1.2747832844775329 11.225216715522517 6.000000000000013
    vertex 0.5831086717955231 2.1761911894748414 6.000000000000009
    vertex 1.274783284477544 1.2747832844775215 6.000000000000009
  endloop
endfacet
facet normal 2.9798611045023033e-16 -1.8519601215887624e-16 1.0
  outer loop
    vertex 1.2747832844775329 11.225216715522517 6.000000000000013
    vertex 1.274783284477544 1.2747832844775215 6.000000000000009
    vertex 2.1761911894748525 11.916891328204537 6.0000000000000115
  endloop
endfacet
facet normal 2.9798611045023033e-16 -1.8519601215887624e-16 1.0
  outer loop
    vertex 2.1761911894748525 11.916891328204537 6.0000000000000115
    vertex 1.274783284477544 1.2747832844775215 6.000000000000009
    vertex 2.176191189474875 0.5831086717955117 6.000000000000009
  endloop
endfacet
facet normal 2.9798611045023033e-16 -1.8519601215887624e-16 1.0
  outer loop
    vertex 2.1761911894748525 11.916891328204537 6.0000000000000115
    vertex 2.176191189474875 0.5831086717955117 6.000000000000009
    vertex 3.2259029277089004 12.351696166763318 6.0000000000000115
  endloop
endfacet
facet normal 2.9798611045023033e-16 -1.8519601215887624e-16 1.0
  outer loop
    vertex 3.2259029277089004 12.351696166763318 6.0000000000000115
    vertex 2.176191189474875 0.5831086717955117 6.000000000000009
    vertex 3.2259029277088778 0.14830383323672783 6.000000000000009
  endloop
endfacet
facet normal 2.9798611045023033e-16 -1.8519601215887624e-16 1.0
  outer loop
    vertex 3.2259029277089004 12.351696166763318 6.0000000000000115
    vertex 3.2259029277088778 0.14830383323672783 6.000000000000009
    vertex 3.7228281099212532 6.250000000000022 5.999999999999999
  endloop
endfacet
facet normal 2.9798611045023033e-16 -1.8519601215887624e-16 1.0
  outer loop
    vertex 3.7228281099212532 6.250000000000022 5.999999999999999
    vertex 3.2259029277088778 0.14830383323672783 6.000000000000009
    vertex 4.352382378949705 0.0 6.000000000000009
  endloop
endfacet
facet normal 2.9798611045023033e-16 -1.8519601215887624e-16 1.0
  outer loop
    vertex 3.7228281099212532 6.250000000000022 5.999999999999999
    vertex 4.352382378949705 0.0 6.000000000000009
    vertex 3.7943838747141836 5.706480005284724 5.999999999999999
  endloop
endfacet
facet normal 2.9798611045023033e-16 -1.8519601215887624e-16 1.0
  outer loop
    vertex 3.7943838747141836 5.706480005284724 5.999999999999999
    vertex 4.352382378949705 0.0 6.000000000000009
    vertex 4.0041747619739025 5.200000000000024 5.999999999999999
  endloop
endfacet
facet normal 2.9798611045023033e-16 -1.8519601215887624e-16 1.0
  outer loop
    vertex 4.0041747619739025 5.200000000000024 5.999999999999999
    vertex 4.352382378949705 0.0 6.000000000000009
    vertex 4.337903869429505 4.765075759508273 5.999999999999999
  endloop
endfacet
facet normal 2.9798611045023033e-16 -1.8519601215887624e-16 1.0
  outer loop
    vertex 4.337903869429505 4.765075759508273 5.999999999999999
    vertex 4.352382378949705 0.0 6.000000000000009
    vertex 4.77282810992124 4.4313466520526985 5.999999999999999
  endloop
endfacet
facet normal 2.9798611045023033e-16 -1.8519601215887624e-16 1.0
  outer loop
    vertex 4.77282810992124 4.4313466520526985 5.999999999999999
    vertex 4.352382378949705 0.0 6.000000000000009
    vertex 5.27930811520595 4.221555764792979 5.999999999999999
  endloop
endfacet
facet normal 2.9798611045023033e-16 -1.8519601215887624e-16 1.0
  outer loop
    vertex 5.27930811520595 4.221555764792979 5.999999999999999
    vertex 4.352382378949705 0.0 6.000000000000009
    vertex 30.858729679204423 0.0 6.000000000000002
  endloop
endfacet
facet normal 2.9798611045023033e-16 -1.8519601215887624e-16 1.0
  outer loop
    vertex 5.27930811520595 4.221555764792979 5.999999999999999
    vertex 30.858729679204423 0.0 6.000000000000002
    vertex 5.822828109921227 4.150000000000026 5.999999999999999
  endloop
endfacet
facet normal 2.9798611045023033e-16 -1.8519601215887624e-16 1.0
  outer loop
    vertex 5.822828109921227 4.150000000000026 5.999999999999999
    vertex 30.858729679204423 0.0 6.000000000000002
    vertex 17.46848432976368 4.150000000000026 5.999999999999999
  endloop
endfacet
facet normal 2.9798611045023033e-16 -1.8519601215887624e-16 1.0
  outer loop
    vertex 17.46848432976368 4.150000000000026 5.999999999999999
    vertex 30.858729679204423 0.0 6.000000000000002
    vertex 18.01200432447898 4.221555764792979 5.999999999999999
  endloop
endfacet
facet normal 2.9798611045023033e-16 -1.8519601215887624e-16 1.0
  outer loop
    vertex 18.01200432447898 4.221555764792979 5.999999999999999
    vertex 30.858729679204423 0.0 6.000000000000002
    vertex 18.51848432976369 4.4313466520526985 5.999999999999999
  endloop
endfacet
facet normal 2.9798611045023033e-16 -1.8519601215887624e-16 1.0
  outer loop
    vertex 18.51848432976369 4.4313466520526985 5.999999999999999
    vertex 30.858729679204423 0.0 6.000000000000002
    vertex 18.953408570255426 4.765075759508273 5.999999999999999
  endloop
endfacet
facet normal 2.9798611045023033e-16 -1.8519601215887624e-16 1.0
  outer loop
    vertex 18.953408570255426 4.765075759508273 5.999999999999999
    vertex 30.858729679204423 0.0 6.000000000000002
    vertex 19.287137677711005 5.200000000000024 5.999999999999999
  endloop
endfacet
facet normal 2.9798611045023033e-16 -1.8519601215887624e-16 1.0
  outer loop
    vertex 19.287137677711005 5.200000000000024 5.999999999999999
    vertex 30.858729679204423 0.0 6.000000000000002
    vertex 19.496928564970723 5.706480005284729 5.999999999999999
  endloop
endfacet
facet normal 2.9798611045023033e-16 -1.8519601215887624e-16 1.0
  outer loop
    vertex 19.496928564970723 5.706480005284729 5.999999999999999
    vertex 30.858729679204423 0.0 6.000000000000002
    vertex 19.568484329763677 6.250000000000022 5.999999999999999
  endloop
endfacet
facet normal 2.9798611045023033e-16 -1.8519601215887624e-16 1.0
  outer loop
    vertex 3.7228281099212532 6.250000000000022 5.999999999999999
    vertex 4.352382378949705 12.50000000000005 6.000000000000006
    vertex 3.2259029277089004 12.351696166763318 6.0000000000000115
  endloop
endfacet
facet normal 2.9798611045023033e-16 -1.8519601215887624e-16 1.0
  outer loop
    vertex 4.352382378949705 12.50000000000005 6.000000000000006
    vertex 3.7228281099212532 6.250000000000022 5.999999999999999
    vertex 3.7943838747141836 6.793519994715315 5.999999999999999
  endloop
endfacet
facet normal 2.9798611045023033e-16 -1.8519601215887624e-16 1.0
  outer loop
    vertex 4.352382378949705 12.50000000000005 6.000000000000006
    vertex 3.7943838747141836 6.793519994715315 5.999999999999999
    vertex 4.0041747619739025 7.30000000000002 5.999999999999999
  endloop
endfacet
facet normal 2.9798611045023033e-16 -1.8519601215887624e-16 1.0
  outer loop
    vertex 4.352382378949705 12.50000000000005 6.000000000000006
    vertex 4.0041747619739025 7.30000000000002 5.999999999999999
    vertex 4.337903869429505 7.734924240491773 5.999999999999999
  endloop
endfacet
facet normal 2.9798611045023033e-16 -1.8519601215887624e-16 1.0
  outer loop
    vertex 4.352382378949705 12.50000000000005 6.000000000000006
    vertex 4.337903869429505 7.734924240491773 5.999999999999999
    vertex 4.77282810992124 8.068653347947341 5.999999999999999
  endloop
endfacet
facet normal 2.9798611045023033e-16 -1.8519601215887624e-16 1.0
  outer loop
    vertex 4.352382378949705 12.50000000000005 6.000000000000006
    vertex 4.77282810992124 8.068653347947341 5.999999999999999
    vertex 5.27930811520595 8.278444235207067 5.999999999999999
  endloop
endfacet
facet normal 2.9798611045023033e-16 -1.8519601215887624e-16 1.0
  outer loop
    vertex 4.352382378949705 12.50000000000005 6.000000000000006
    vertex 5.27930811520595 8.278444235207067 5.999999999999999
    vertex 30.858729679204423 12.500000000000044 6.000000000000002
  endloop
endfacet
facet normal 2.9798611045023033e-16 -1.8519601215887624e-16 1.0
  outer loop
    vertex 30.858729679204423 12.500000000000044 6.000000000000002
    vertex 5.27930811520595 8.278444235207067 5.999999999999999
    vertex 5.47886183019051 8.295921454287075 6.000000000000007
  endloop
endfacet
facet normal 2.9798611045023033e-16 -1.8519601215887624e-16 1.0
  outer loop
    vertex 30.858729679204423 12.500000000000044 6.000000000000002
    vertex 5.47886183019051 8.295921454287075 6.000000000000007
    vertex 5.822828109921227 8.35000000000002 5.999999999999999
  endloop
endfacet
facet normal 2.9798611045023033e-16 -1.8519601215887624e-16 1.0
  outer loop
    vertex 30.858729679204423 12.500000000000044 6.000000000000002
    vertex 5.822828109921227 8.35000000000002 5.999999999999999
    vertex 17.46848432976368 8.35000000000002 5.999999999999999
  endloop
endfacet
facet normal 2.9798611045023033e-16 -1.8519601215887624e-16 1.0
  outer loop
    vertex 30.858729679204423 12.500000000000044 6.000000000000002
    vertex 17.46848432976368 8.35000000000002 5.999999999999999
    vertex 18.01200432447898 8.278444235207067 5.999999999999999
  endloop
endfacet
facet normal 2.9798611045023033e-16 -1.8519601215887624e-16 1.0
  outer loop
    vertex 30.858729679204423 12.500000000000044 6.000000000000002
    vertex 18.01200432447898 8.278444235207067 5.999999999999999
    vertex 18.51848432976369 8.068653347947347 5.999999999999999
  endloop
endfacet
facet normal 2.9798611045023033e-16 -1.8519601215887624e-16 1.0
  outer loop
    vertex 30.858729679204423 12.500000000000044 6.000000000000002
    vertex 18.51848432976369 8.068653347947347 5.999999999999999
    vertex 18.953408570255426 7.734924240491773 5.999999999999999
  endloop
endfacet
facet normal 2.9798611045023033e-16 -1.8519601215887624e-16 1.0
  outer loop
    vertex 30.858729679204423 12.500000000000044 6.000000000000002
    vertex 18.953408570255426 7.734924240491773 5.999999999999999
    vertex 19.287137677711005 7.30000000000002 5.999999999999999
  endloop
endfacet
facet normal 2.9798611045023033e-16 -1.8519601215887624e-16 1.0
  outer loop
    vertex 30.858729679204423 12.500000000000044 6.000000000000002
    vertex 19.287137677711005 7.30000000000002 5.999999999999999
    vertex 19.496928564970723 6.793519994715315 5.999999999999999
  endloop
endfacet
facet normal 2.9798611045023033e-16 -1.8519601215887624e-16 1.0
  outer loop
    vertex 30.858729679204423 12.500000000000044 6.000000000000002
    vertex 19.496928564970723 6.793519994715315 5.999999999999999
    vertex 19.568484329763677 6.250000000000022 5.999999999999999
  endloop
endfacet
facet normal 2.9798611045023033e-16 -1.8519601215887624e-16 1.0
  outer loop
    vertex 30.858729679204423 12.500000000000044 6.000000000000002
    vertex 19.568484329763677 6.250000000000022 5.999999999999999
    vertex 30.858729679204423 0.0 6.000000000000002
  endloop
endfacet
facet normal -0.6087614290087364 -0.7933533402912232 -4.6392211169420284e-17
  outer loop
    vertex 18.953408570255426 7.734924240491773 5.999999999999999
    vertex 18.51848432976369 8.068653347947347 0.0
    vertex 18.953408570255426 7.734924240491773 0.0
  endloop
endfacet
facet normal -0.6087614290087364 -0.7933533402912232 -4.6392211169420284e-17
  outer loop
    vertex 18.51848432976369 8.068653347947347 0.0
    vertex 18.953408570255426 7.734924240491773 5.999999999999999
    vertex 18.51848432976369 8.068653347947347 5.999999999999999
  endloop
endfacet
facet normal -0.13052619222004339 -0.9914448613738115 -2.7499691952116626e-16
  outer loop
    vertex 18.01200432447898 8.278444235207067 5.999999999999999
    vertex 17.46848432976368 8.35000000000002 0.0
    vertex 18.01200432447898 8.278444235207067 0.0
  endloop
endfacet
facet normal -0.13052619222004339 -0.9914448613738115 -2.7499691952116626e-16
  outer loop
    vertex 17.46848432976368 8.35000000000002 0.0
    vertex 18.01200432447898 8.278444235207067 5.999999999999999
    vertex 17.46848432976368 8.35000000000002 5.999999999999999
  endloop
endfacet
facet normal -0.38268343236508295 -0.9238795325112897 -1.6636325582334023e-16
  outer loop
    vertex 18.51848432976369 8.068653347947347 5.999999999999999
    vertex 18.01200432447898 8.278444235207067 0.0
    vertex 18.51848432976369 8.068653347947347 0.0
  endloop
endfacet
facet normal -0.38268343236508295 -0.9238795325112897 -1.6636325582334023e-16
  outer loop
    vertex 18.01200432447898 8.278444235207067 0.0
    vertex 18.51848432976369 8.068653347947347 5.999999999999999
    vertex 18.01200432447898 8.278444235207067 5.999999999999999
  endloop
endfacet
facet normal -0.6087614290087214 0.7933533402912345 4.656447592065719e-16
  outer loop
    vertex 1.2747832844775329 11.225216715522519 1.3113927351666057e-14
    vertex 2.1761911894748525 11.916891328204537 6.0000000000000115
    vertex 2.1761911894748525 11.916891328204539 1.2617044547093213e-14
  endloop
endfacet
facet normal -0.6087614290087214 0.7933533402912345 4.656447592065719e-16
  outer loop
    vertex 2.1761911894748525 11.916891328204537 6.0000000000000115
    vertex 1.2747832844775329 11.225216715522519 1.3113927351666057e-14
    vertex 1.2747832844775329 11.225216715522517 6.000000000000013
  endloop
endfacet
facet normal -0.1305261922200512 0.9914448613738105 3.6488999760751873e-16
  outer loop
    vertex 3.2259029277089004 12.35169616676332 1.1909150641915286e-14
    vertex 4.352382378949705 12.50000000000005 6.000000000000006
    vertex 4.352382378949705 12.50000000000005 7.1467125911076e-15
  endloop
endfacet
facet normal -0.1305261922200512 0.9914448613738105 3.6488999760751873e-16
  outer loop
    vertex 4.352382378949705 12.50000000000005 6.000000000000006
    vertex 3.2259029277089004 12.35169616676332 1.1909150641915286e-14
    vertex 3.2259029277089004 12.351696166763318 6.0000000000000115
  endloop
endfacet
facet normal -8.460171384257964e-32 -1.0 -3.227042380561705e-16
  outer loop
    vertex 41.99999999999998 0.0 0.0
    vertex 30.858729679204423 0.0 6.000000000000002
    vertex 4.352382378949705 0.0 9.86988268891764e-15
  endloop
endfacet
facet normal -8.460171384257964e-32 -1.0 -3.227042380561705e-16
  outer loop
    vertex 30.858729679204423 0.0 6.000000000000002
    vertex 41.99999999999998 0.0 0.0
    vertex 41.99999999999998 0.0 10.999999999999996
  endloop
endfacet
facet normal -8.460171384257964e-32 -1.0 -3.227042380561705e-16
  outer loop
    vertex 30.858729679204423 0.0 6.000000000000002
    vertex 41.99999999999998 0.0 10.999999999999996
    vertex 30.858729679204423 0.0 11.0
  endloop
endfacet
facet normal -8.460171384257964e-32 -1.0 -3.227042380561705e-16
  outer loop
    vertex 4.352382378949705 0.0 6.000000000000009
    vertex 4.352382378949705 0.0 9.86988268891764e-15
    vertex 30.858729679204423 0.0 6.000000000000002
  endloop
endfacet
facet normal -0.38268343236509156 0.9238795325112861 4.299164253661549e-16
  outer loop
    vertex 2.1761911894748525 11.916891328204539 1.2617044547093213e-14
    vertex 3.2259029277089004 12.351696166763318 6.0000000000000115
    vertex 3.2259029277089004 12.35169616676332 1.1909150641915286e-14
  endloop
endfacet
facet normal -0.38268343236509156 0.9238795325112861 4.299164253661549e-16
  outer loop
    vertex 3.2259029277089004 12.351696166763318 6.0000000000000115
    vertex 2.1761911894748525 11.916891328204539 1.2617044547093213e-14
    vertex 2.1761911894748525 11.916891328204537 6.0000000000000115
  endloop
endfacet
facet normal 1.0 0.0 -3.443488106004302e-16
  outer loop
    vertex 41.99999999999998 12.500000000000044 0.0
    vertex 41.99999999999998 0.0 10.999999999999996
    vertex 41.99999999999998 0.0 0.0
  endloop
endfacet
facet normal 1.0 0.0 -3.443488106004302e-16
  outer loop
    vertex 41.99999999999998 0.0 10.999999999999996
    vertex 41.99999999999998 12.500000000000044 0.0
    vertex 41.99999999999998 12.500000000000043 10.999999999999996
  endloop
endfacet
facet normal -0.7933533402912339 -0.6087614290087222 7.674038600891952e-17
  outer loop
    vertex 0.5831086717955231 2.1761911894748414 6.000000000000009
    vertex 1.274783284477544 1.2747832844775215 9.86988268891764e-15
    vertex 1.274783284477544 1.2747832844775215 6.000000000000009
  endloop
endfacet
facet normal -0.7933533402912339 -0.6087614290087222 7.674038600891952e-17
  outer loop
    vertex 1.274783284477544 1.2747832844775215 9.86988268891764e-15
    vertex 0.5831086717955231 2.1761911894748414 6.000000000000009
    vertex 0.5831086717955231 2.1761911894748414 9.86988268891764e-15
  endloop
endfacet
facet normal -0.6087614290087112 -0.7933533402912426 -4.639221116943521e-17
  outer loop
    vertex 2.176191189474875 0.5831086717955117 6.000000000000009
    vertex 1.274783284477544 1.2747832844775215 9.86988268891764e-15
    vertex 2.176191189474875 0.5831086717955117 9.86988268891764e-15
  endloop
endfacet
facet normal -0.6087614290087112 -0.7933533402912426 -4.639221116943521e-17
  outer loop
    vertex 1.274783284477544 1.2747832844775215 9.86988268891764e-15
    vertex 2.176191189474875 0.5831086717955117 6.000000000000009
    vertex 1.274783284477544 1.2747832844775215 6.000000000000009
  endloop
endfacet
facet normal -0.9238795325112857 0.3826834323650924 4.4163038361643985e-16
  outer loop
    vertex 0.5831086717955117 10.323808810525197 6.000000000000013
    vertex 0.14830383323672783 9.274097072291147 1.3355900370572174e-14
    vertex 0.14830383323672783 9.274097072291145 6.000000000000013
  endloop
endfacet
facet normal -0.9238795325112857 0.3826834323650924 4.4163038361643985e-16
  outer loop
    vertex 0.14830383323672783 9.274097072291147 1.3355900370572174e-14
    vertex 0.5831086717955117 10.323808810525197 6.000000000000013
    vertex 0.5831086717955117 10.323808810525199 1.4077228247451617e-14
  endloop
endfacet
facet normal -0.9914448613738069 -0.13052619222007936 2.9928150338322477e-16
  outer loop
    vertex 0.0 4.352382378949683 6.000000000000009
    vertex 0.14830383323676166 3.225902927708889 9.86988268891764e-15
    vertex 0.14830383323676166 3.225902927708889 6.000000000000009
  endloop
endfacet
facet normal -0.9914448613738069 -0.13052619222007936 2.9928150338322477e-16
  outer loop
    vertex 0.14830383323676166 3.225902927708889 9.86988268891764e-15
    vertex 0.0 4.352382378949683 6.000000000000009
    vertex 0.0 4.352382378949683 9.86988268891764e-15
  endloop
endfacet
facet normal -0.3826834323651077 -0.9238795325112794 -1.6636325582332837e-16
  outer loop
    vertex 3.2259029277088778 0.14830383323672783 6.000000000000009
    vertex 2.176191189474875 0.5831086717955117 9.86988268891764e-15
    vertex 3.2259029277088778 0.14830383323672783 9.86988268891764e-15
  endloop
endfacet
facet normal -0.3826834323651077 -0.9238795325112794 -1.6636325582332837e-16
  outer loop
    vertex 2.176191189474875 0.5831086717955117 9.86988268891764e-15
    vertex 3.2259029277088778 0.14830383323672783 6.000000000000009
    vertex 2.176191189474875 0.5831086717955117 6.000000000000009
  endloop
endfacet
facet normal 1.4980849576899358e-16 1.0 3.227042380561704e-16
  outer loop
    vertex 4.352382378949705 12.50000000000005 6.000000000000006
    vertex 30.858729679204423 12.500000000000044 6.000000000000002
    vertex 4.352382378949705 12.50000000000005 7.1467125911076e-15
  endloop
endfacet
facet normal 1.4980849576899358e-16 1.0 3.227042380561704e-16
  outer loop
    vertex 41.99999999999998 12.500000000000044 0.0
    vertex 30.858729679204423 12.500000000000044 6.000000000000002
    vertex 41.99999999999998 12.500000000000043 10.999999999999996
  endloop
endfacet
facet normal 1.4980849576899358e-16 1.0 3.227042380561704e-16
  outer loop
    vertex 30.858729679204423 12.500000000000044 6.000000000000002
    vertex 41.99999999999998 12.500000000000044 0.0
    vertex 4.352382378949705 12.50000000000005 7.1467125911076e-15
  endloop
endfacet
facet normal 1.4980849576899358e-16 1.0 3.227042380561704e-16
  outer loop
    vertex 41.99999999999998 12.500000000000043 10.999999999999996
    vertex 30.858729679204423 12.500000000000044 6.000000000000002
    vertex 30.858729679204423 12.500000000000044 11.0
  endloop
endfacet
facet normal -0.7933533402912346 0.6087614290087217 4.6964017222141e-16
  outer loop
    vertex 1.2747832844775329 11.225216715522517 6.000000000000013
    vertex 0.5831086717955117 10.323808810525199 1.4077228247451617e-14
    vertex 0.5831086717955117 10.323808810525197 6.000000000000013
  endloop
endfacet
facet normal -0.7933533402912346 0.6087614290087217 4.6964017222141e-16
  outer loop
    vertex 0.5831086717955117 10.323808810525199 1.4077228247451617e-14
    vertex 1.2747832844775329 11.225216715522517 6.000000000000013
    vertex 1.2747832844775329 11.225216715522519 1.3113927351666057e-14
  endloop
endfacet
facet normal -0.9238795325112922 -0.38268343236507674 1.9464325270025276e-16
  outer loop
    vertex 0.14830383323676166 3.225902927708889 6.000000000000009
    vertex 0.5831086717955231 2.1761911894748414 9.86988268891764e-15
    vertex 0.5831086717955231 2.1761911894748414 6.000000000000009
  endloop
endfacet
facet normal -0.9238795325112922 -0.38268343236507674 1.9464325270025276e-16
  outer loop
    vertex 0.5831086717955231 2.1761911894748414 9.86988268891764e-15
    vertex 0.14830383323676166 3.225902927708889 6.000000000000009
    vertex 0.14830383323676166 3.225902927708889 9.86988268891764e-15
  endloop
endfacet
facet normal -0.1305261922200462 -0.9914448613738112 -2.749969195211652e-16
  outer loop
    vertex 4.352382378949705 0.0 6.000000000000009
    vertex 3.2259029277088778 0.14830383323672783 9.86988268891764e-15
    vertex 4.352382378949705 0.0 9.86988268891764e-15
  endloop
endfacet
facet normal -0.1305261922200462 -0.9914448613738112 -2.749969195211652e-16
  outer loop
    vertex 3.2259029277088778 0.14830383323672783 9.86988268891764e-15
    vertex 4.352382378949705 0.0 6.000000000000009
    vertex 3.2259029277088778 0.14830383323672783 6.000000000000009
  endloop
endfacet
facet normal 0.9238795325112882 -0.3826834323650865 -4.4163038361643877e-16
  outer loop
    vertex 4.0041747619739025 7.30000000000002 0.0
    vertex 3.7943838747141836 6.793519994715315 5.999999999999999
    vertex 3.7943838747141836 6.793519994715315 0.0
  endloop
endfacet
facet normal 0.9238795325112882 -0.3826834323650865 -4.4163038361643877e-16
  outer loop
    vertex 3.7943838747141836 6.793519994715315 5.999999999999999
    vertex 4.0041747619739025 7.30000000000002 0.0
    vertex 4.0041747619739025 7.30000000000002 5.999999999999999
  endloop
endfacet
facet normal -0.9914448613738114 0.13052619222004475 3.83524214196723e-16
  outer loop
    vertex 19.568484329763677 6.250000000000022 5.999999999999999
    vertex 19.496928564970723 5.706480005284729 0.0
    vertex 19.496928564970723 5.706480005284729 5.999999999999999
  endloop
endfacet
facet normal -0.9914448613738114 0.13052619222004475 3.83524214196723e-16
  outer loop
    vertex 19.496928564970723 5.706480005284729 0.0
    vertex 19.568484329763677 6.250000000000022 5.999999999999999
    vertex 19.568484329763677 6.250000000000022 0.0
  endloop
endfacet
facet normal 0.0 1.0 3.2270423805617043e-16
  outer loop
    vertex 5.822828109921227 4.150000000000026 5.999999999999999
    vertex 17.46848432976368 4.150000000000026 0.0
    vertex 5.822828109921227 4.150000000000026 0.0
  endloop
endfacet
facet normal 0.0 1.0 3.2270423805617043e-16
  outer loop
    vertex 17.46848432976368 4.150000000000026 0.0
    vertex 5.822828109921227 4.150000000000026 5.999999999999999
    vertex 17.46848432976368 4.150000000000026 5.999999999999999
  endloop
endfacet
facet normal -0.13052619222004339 0.9914448613738115 3.6488999760751637e-16
  outer loop
    vertex 17.46848432976368 4.150000000000026 5.999999999999999
    vertex 18.01200432447898 4.221555764792979 0.0
    vertex 17.46848432976368 4.150000000000026 0.0
  endloop
endfacet
facet normal -0.13052619222004339 0.9914448613738115 3.6488999760751637e-16
  outer loop
    vertex 18.01200432447898 4.221555764792979 0.0
    vertex 17.46848432976368 4.150000000000026 5.999999999999999
    vertex 18.01200432447898 4.221555764792979 5.999999999999999
  endloop
endfacet
facet normal -0.9914448613738114 -0.13052619222004475 2.9928150338323744e-16
  outer loop
    vertex 19.496928564970723 6.793519994715315 5.999999999999999
    vertex 19.568484329763677 6.250000000000022 0.0
    vertex 19.568484329763677 6.250000000000022 5.999999999999999
  endloop
endfacet
facet normal -0.9914448613738114 -0.13052619222004475 2.9928150338323744e-16
  outer loop
    vertex 19.568484329763677 6.250000000000022 0.0
    vertex 19.496928564970723 6.793519994715315 5.999999999999999
    vertex 19.496928564970723 6.793519994715315 0.0
  endloop
endfacet
facet normal -0.9238795325112882 -0.3826834323650865 1.946432527002482e-16
  outer loop
    vertex 19.287137677711005 7.30000000000002 5.999999999999999
    vertex 19.496928564970723 6.793519994715315 0.0
    vertex 19.496928564970723 6.793519994715315 5.999999999999999
  endloop
endfacet
facet normal -0.9238795325112882 -0.3826834323650865 1.946432527002482e-16
  outer loop
    vertex 19.496928564970723 6.793519994715315 0.0
    vertex 19.287137677711005 7.30000000000002 5.999999999999999
    vertex 19.287137677711005 7.30000000000002 0.0
  endloop
endfacet
facet normal -0.6087614290087364 0.7933533402912232 4.656447592065734e-16
  outer loop
    vertex 18.51848432976369 4.4313466520526985 5.999999999999999
    vertex 18.953408570255426 4.765075759508273 0.0
    vertex 18.51848432976369 4.4313466520526985 0.0
  endloop
endfacet
facet normal -0.6087614290087364 0.7933533402912232 4.656447592065734e-16
  outer loop
    vertex 18.953408570255426 4.765075759508273 0.0
    vertex 18.51848432976369 4.4313466520526985 5.999999999999999
    vertex 18.953408570255426 4.765075759508273 5.999999999999999
  endloop
endfacet
facet normal -0.7933533402912296 0.608761429008728 4.696401722214104e-16
  outer loop
    vertex 19.287137677711005 5.200000000000024 5.999999999999999
    vertex 18.953408570255426 4.765075759508273 0.0
    vertex 18.953408570255426 4.765075759508273 5.999999999999999
  endloop
endfacet
facet normal -0.7933533402912296 0.608761429008728 4.696401722214104e-16
  outer loop
    vertex 18.953408570255426 4.765075759508273 0.0
    vertex 19.287137677711005 5.200000000000024 5.999999999999999
    vertex 19.287137677711005 5.200000000000024 0.0
  endloop
endfacet
facet normal 0.38268343236508295 0.9238795325112897 1.6636325582334023e-16
  outer loop
    vertex 4.77282810992124 4.4313466520526985 5.999999999999999
    vertex 5.27930811520595 4.221555764792979 0.0
    vertex 4.77282810992124 4.4313466520526985 0.0
  endloop
endfacet
facet normal 0.38268343236508295 0.9238795325112897 1.6636325582334023e-16
  outer loop
    vertex 5.27930811520595 4.221555764792979 0.0
    vertex 4.77282810992124 4.4313466520526985 5.999999999999999
    vertex 5.27930811520595 4.221555764792979 5.999999999999999
  endloop
endfacet
facet normal -0.9238795325112882 0.3826834323650865 4.4163038361643877e-16
  outer loop
    vertex 19.496928564970723 5.706480005284729 5.999999999999999
    vertex 19.287137677711005 5.200000000000024 0.0
    vertex 19.287137677711005 5.200000000000024 5.999999999999999
  endloop
endfacet
facet normal -0.9238795325112882 0.3826834323650865 4.4163038361643877e-16
  outer loop
    vertex 19.287137677711005 5.200000000000024 0.0
    vertex 19.496928564970723 5.706480005284729 5.999999999999999
    vertex 19.496928564970723 5.706480005284729 0.0
  endloop
endfacet
facet normal -0.38268343236508295 0.9238795325112897 4.299164253661531e-16
  outer loop
    vertex 18.01200432447898 4.221555764792979 5.999999999999999
    vertex 18.51848432976369 4.4313466520526985 0.0
    vertex 18.01200432447898 4.221555764792979 0.0
  endloop
endfacet
facet normal -0.38268343236508295 0.9238795325112897 4.299164253661531e-16
  outer loop
    vertex 18.51848432976369 4.4313466520526985 0.0
    vertex 18.01200432447898 4.221555764792979 5.999999999999999
    vertex 18.51848432976369 4.4313466520526985 5.999999999999999
  endloop
endfacet
facet normal 0.13052619222004874 0.9914448613738109 2.749969195211643e-16
  outer loop
    vertex 5.27930811520595 4.221555764792979 5.999999999999999
    vertex 5.822828109921227 4.150000000000026 0.0
    vertex 5.27930811520595 4.221555764792979 0.0
  endloop
endfacet
facet normal 0.13052619222004874 0.9914448613738109 2.749969195211643e-16
  outer loop
    vertex 5.822828109921227 4.150000000000026 0.0
    vertex 5.27930811520595 4.221555764792979 5.999999999999999
    vertex 5.822828109921227 4.150000000000026 5.999999999999999
  endloop
endfacet
facet normal -0.7933533402912296 -0.608761429008728 7.674038600891615e-17
  outer loop
    vertex 18.953408570255426 7.734924240491773 5.999999999999999
    vertex 19.287137677711005 7.30000000000002 0.0
    vertex 19.287137677711005 7.30000000000002 5.999999999999999
  endloop
endfacet
facet normal -0.7933533402912296 -0.608761429008728 7.674038600891615e-17
  outer loop
    vertex 19.287137677711005 7.30000000000002 0.0
    vertex 18.953408570255426 7.734924240491773 5.999999999999999
    vertex 18.953408570255426 7.734924240491773 0.0
  endloop
endfacet
facet normal -3.443488106004301e-16 3.2270423805617043e-16 -1.0
  outer loop
    vertex 4.352382378949705 12.50000000000005 7.1467125911076e-15
    vertex 3.7228281099212532 6.250000000000022 0.0
    vertex 3.2259029277089004 12.35169616676332 1.1909150641915286e-14
  endloop
endfacet
facet normal -3.443488106004301e-16 3.2270423805617043e-16 -1.0
  outer loop
    vertex 3.7228281099212532 6.250000000000022 0.0
    vertex 4.352382378949705 12.50000000000005 7.1467125911076e-15
    vertex 3.7943838747141836 6.793519994715315 0.0
  endloop
endfacet
facet normal -3.443488106004301e-16 3.2270423805617043e-16 -1.0
  outer loop
    vertex 3.7943838747141836 6.793519994715315 0.0
    vertex 4.352382378949705 12.50000000000005 7.1467125911076e-15
    vertex 4.0041747619739025 7.30000000000002 0.0
  endloop
endfacet
facet normal -3.443488106004301e-16 3.2270423805617043e-16 -1.0
  outer loop
    vertex 4.0041747619739025 7.30000000000002 0.0
    vertex 4.352382378949705 12.50000000000005 7.1467125911076e-15
    vertex 4.337903869429505 7.734924240491773 0.0
  endloop
endfacet
facet normal -3.443488106004301e-16 3.2270423805617043e-16 -1.0
  outer loop
    vertex 4.337903869429505 7.734924240491773 0.0
    vertex 4.352382378949705 12.50000000000005 7.1467125911076e-15
    vertex 4.77282810992124 8.068653347947341 0.0
  endloop
endfacet
facet normal -3.443488106004301e-16 3.2270423805617043e-16 -1.0
  outer loop
    vertex 4.77282810992124 8.068653347947341 0.0
    vertex 4.352382378949705 12.50000000000005 7.1467125911076e-15
    vertex 5.27930811520595 8.278444235207067 0.0
  endloop
endfacet
facet normal -3.443488106004301e-16 3.2270423805617043e-16 -1.0
  outer loop
    vertex 5.27930811520595 8.278444235207067 0.0
    vertex 4.352382378949705 12.50000000000005 7.1467125911076e-15
    vertex 5.822828109921227 8.35000000000002 0.0
  endloop
endfacet
facet normal -3.443488106004301e-16 3.2270423805617043e-16 -1.0
  outer loop
    vertex 5.822828109921227 8.35000000000002 0.0
    vertex 4.352382378949705 12.50000000000005 7.1467125911076e-15
    vertex 41.99999999999998 12.500000000000044 0.0
  endloop
endfacet
facet normal -3.443488106004301e-16 3.2270423805617043e-16 -1.0
  outer loop
    vertex 5.27930811520595 8.278444235207067 0.0
    vertex 5.822828109921227 8.35000000000002 0.0
    vertex 5.47886183019051 8.295921454287075 7.723302528497565e-15
  endloop
endfacet
facet normal -3.443488106004301e-16 3.2270423805617043e-16 -1.0
  outer loop
    vertex 5.822828109921227 8.35000000000002 0.0
    vertex 41.99999999999998 12.500000000000044 0.0
    vertex 17.46848432976368 8.35000000000002 0.0
  endloop
endfacet
facet normal -3.443488106004301e-16 3.2270423805617043e-16 -1.0
  outer loop
    vertex 17.46848432976368 8.35000000000002 0.0
    vertex 41.99999999999998 12.500000000000044 0.0
    vertex 18.01200432447898 8.278444235207067 0.0
  endloop
endfacet
facet normal -3.443488106004301e-16 3.2270423805617043e-16 -1.0
  outer loop
    vertex 18.01200432447898 8.278444235207067 0.0
    vertex 41.99999999999998 12.500000000000044 0.0
    vertex 18.51848432976369 8.068653347947347 0.0
  endloop
endfacet
facet normal -3.443488106004301e-16 3.2270423805617043e-16 -1.0
  outer loop
    vertex 18.51848432976369 8.068653347947347 0.0
    vertex 41.99999999999998 12.500000000000044 0.0
    vertex 18.953408570255426 7.734924240491773 0.0
  endloop
endfacet
facet normal -3.443488106004301e-16 3.2270423805617043e-16 -1.0
  outer loop
    vertex 18.953408570255426 7.734924240491773 0.0
    vertex 41.99999999999998 12.500000000000044 0.0
    vertex 19.287137677711005 7.30000000000002 0.0
  endloop
endfacet
facet normal -3.443488106004301e-16 3.2270423805617043e-16 -1.0
  outer loop
    vertex 19.287137677711005 7.30000000000002 0.0
    vertex 41.99999999999998 12.500000000000044 0.0
    vertex 19.496928564970723 6.793519994715315 0.0
  endloop
endfacet
facet normal -3.443488106004301e-16 3.2270423805617043e-16 -1.0
  outer loop
    vertex 19.496928564970723 6.793519994715315 0.0
    vertex 41.99999999999998 12.500000000000044 0.0
    vertex 19.568484329763677 6.250000000000022 0.0
  endloop
endfacet
facet normal -3.443488106004301e-16 3.2270423805617043e-16 -1.0
  outer loop
    vertex 0.14830383323672783 9.274097072291147 1.3355900370572174e-14
    vertex 0.0 4.352382378949683 9.86988268891764e-15
    vertex 0.0 8.147617621050346 1.3084500523546321e-14
  endloop
endfacet
facet normal -3.443488106004301e-16 3.2270423805617043e-16 -1.0
  outer loop
    vertex 0.0 4.352382378949683 9.86988268891764e-15
    vertex 0.14830383323672783 9.274097072291147 1.3355900370572174e-14
    vertex 0.14830383323676166 3.225902927708889 9.86988268891764e-15
  endloop
endfacet
facet normal -3.443488106004301e-16 3.2270423805617043e-16 -1.0
  outer loop
    vertex 0.14830383323676166 3.225902927708889 9.86988268891764e-15
    vertex 0.14830383323672783 9.274097072291147 1.3355900370572174e-14
    vertex 0.5831086717955117 10.323808810525199 1.4077228247451617e-14
  endloop
endfacet
facet normal -3.443488106004301e-16 3.2270423805617043e-16 -1.0
  outer loop
    vertex 0.14830383323676166 3.225902927708889 9.86988268891764e-15
    vertex 0.5831086717955117 10.323808810525199 1.4077228247451617e-14
    vertex 0.5831086717955231 2.1761911894748414 9.86988268891764e-15
  endloop
endfacet
facet normal -3.443488106004301e-16 3.2270423805617043e-16 -1.0
  outer loop
    vertex 0.5831086717955231 2.1761911894748414 9.86988268891764e-15
    vertex 0.5831086717955117 10.323808810525199 1.4077228247451617e-14
    vertex 1.2747832844775329 11.225216715522519 1.3113927351666057e-14
  endloop
endfacet
facet normal -3.443488106004301e-16 3.2270423805617043e-16 -1.0
  outer loop
    vertex 0.5831086717955231 2.1761911894748414 9.86988268891764e-15
    vertex 1.2747832844775329 11.225216715522519 1.3113927351666057e-14
    vertex 1.274783284477544 1.2747832844775215 9.86988268891764e-15
  endloop
endfacet
facet normal -3.443488106004301e-16 3.2270423805617043e-16 -1.0
  outer loop
    vertex 1.274783284477544 1.2747832844775215 9.86988268891764e-15
    vertex 1.2747832844775329 11.225216715522519 1.3113927351666057e-14
    vertex 2.1761911894748525 11.916891328204539 1.2617044547093213e-14
  endloop
endfacet
facet normal -3.443488106004301e-16 3.2270423805617043e-16 -1.0
  outer loop
    vertex 1.274783284477544 1.2747832844775215 9.86988268891764e-15
    vertex 2.1761911894748525 11.916891328204539 1.2617044547093213e-14
    vertex 2.176191189474875 0.5831086717955117 9.86988268891764e-15
  endloop
endfacet
facet normal -3.443488106004301e-16 3.2270423805617043e-16 -1.0
  outer loop
    vertex 2.176191189474875 0.5831086717955117 9.86988268891764e-15
    vertex 2.1761911894748525 11.916891328204539 1.2617044547093213e-14
    vertex 3.2259029277089004 12.35169616676332 1.1909150641915286e-14
  endloop
endfacet
facet normal -3.443488106004301e-16 3.2270423805617043e-16 -1.0
  outer loop
    vertex 2.176191189474875 0.5831086717955117 9.86988268891764e-15
    vertex 3.2259029277089004 12.35169616676332 1.1909150641915286e-14
    vertex 3.2259029277088778 0.14830383323672783 9.86988268891764e-15
  endloop
endfacet
facet normal -3.443488106004301e-16 3.2270423805617043e-16 -1.0
  outer loop
    vertex 3.2259029277088778 0.14830383323672783 9.86988268891764e-15
    vertex 3.2259029277089004 12.35169616676332 1.1909150641915286e-14
    vertex 3.7228281099212532 6.250000000000022 0.0
  endloop
endfacet
facet normal -3.443488106004301e-16 3.2270423805617043e-16 -1.0
  outer loop
    vertex 3.2259029277088778 0.14830383323672783 9.86988268891764e-15
    vertex 3.7228281099212532 6.250000000000022 0.0
    vertex 4.352382378949705 0.0 9.86988268891764e-15
  endloop
endfacet
facet normal -3.443488106004301e-16 3.2270423805617043e-16 -1.0
  outer loop
    vertex 4.352382378949705 0.0 9.86988268891764e-15
    vertex 3.7228281099212532 6.250000000000022 0.0
    vertex 3.7943838747141836 5.706480005284724 0.0
  endloop
endfacet
facet normal -3.443488106004301e-16 3.2270423805617043e-16 -1.0
  outer loop
    vertex 4.352382378949705 0.0 9.86988268891764e-15
    vertex 3.7943838747141836 5.706480005284724 0.0
    vertex 4.0041747619739025 5.200000000000024 0.0
  endloop
endfacet
facet normal -3.443488106004301e-16 3.2270423805617043e-16 -1.0
  outer loop
    vertex 4.352382378949705 0.0 9.86988268891764e-15
    vertex 4.0041747619739025 5.200000000000024 0.0
    vertex 4.337903869429505 4.765075759508273 0.0
  endloop
endfacet
facet normal -3.443488106004301e-16 3.2270423805617043e-16 -1.0
  outer loop
    vertex 4.352382378949705 0.0 9.86988268891764e-15
    vertex 4.337903869429505 4.765075759508273 0.0
    vertex 4.77282810992124 4.4313466520526985 0.0
  endloop
endfacet
facet normal -3.443488106004301e-16 3.2270423805617043e-16 -1.0
  outer loop
    vertex 4.352382378949705 0.0 9.86988268891764e-15
    vertex 4.77282810992124 4.4313466520526985 0.0
    vertex 5.27930811520595 4.221555764792979 0.0
  endloop
endfacet
facet normal -3.443488106004301e-16 3.2270423805617043e-16 -1.0
  outer loop
    vertex 4.352382378949705 0.0 9.86988268891764e-15
    vertex 5.27930811520595 4.221555764792979 0.0
    vertex 5.822828109921227 4.150000000000026 0.0
  endloop
endfacet
facet normal -3.443488106004301e-16 3.2270423805617043e-16 -1.0
  outer loop
    vertex 4.352382378949705 0.0 9.86988268891764e-15
    vertex 5.822828109921227 4.150000000000026 0.0
    vertex 41.99999999999998 0.0 0.0
  endloop
endfacet
facet normal -3.443488106004301e-16 3.2270423805617043e-16 -1.0
  outer loop
    vertex 41.99999999999998 0.0 0.0
    vertex 5.822828109921227 4.150000000000026 0.0
    vertex 17.46848432976368 4.150000000000026 0.0
  endloop
endfacet
facet normal -3.443488106004301e-16 3.2270423805617043e-16 -1.0
  outer loop
    vertex 41.99999999999998 0.0 0.0
    vertex 17.46848432976368 4.150000000000026 0.0
    vertex 18.01200432447898 4.221555764792979 0.0
  endloop
endfacet
facet normal -3.443488106004301e-16 3.2270423805617043e-16 -1.0
  outer loop
    vertex 41.99999999999998 0.0 0.0
    vertex 18.01200432447898 4.221555764792979 0.0
    vertex 18.51848432976369 4.4313466520526985 0.0
  endloop
endfacet
facet normal -3.443488106004301e-16 3.2270423805617043e-16 -1.0
  outer loop
    vertex 41.99999999999998 0.0 0.0
    vertex 18.51848432976369 4.4313466520526985 0.0
    vertex 18.953408570255426 4.765075759508273 0.0
  endloop
endfacet
facet normal -3.443488106004301e-16 3.2270423805617043e-16 -1.0
  outer loop
    vertex 41.99999999999998 0.0 0.0
    vertex 18.953408570255426 4.765075759508273 0.0
    vertex 19.287137677711005 5.200000000000024 0.0
  endloop
endfacet
facet normal -3.443488106004301e-16 3.2270423805617043e-16 -1.0
  outer loop
    vertex 41.99999999999998 0.0 0.0
    vertex 19.287137677711005 5.200000000000024 0.0
    vertex 19.496928564970723 5.706480005284729 0.0
  endloop
endfacet
facet normal -3.443488106004301e-16 3.2270423805617043e-16 -1.0
  outer loop
    vertex 41.99999999999998 0.0 0.0
    vertex 19.496928564970723 5.706480005284729 0.0
    vertex 19.568484329763677 6.250000000000022 0.0
  endloop
endfacet
facet normal -3.443488106004301e-16 3.2270423805617043e-16 -1.0
  outer loop
    vertex 41.99999999999998 0.0 0.0
    vertex 19.568484329763677 6.250000000000022 0.0
    vertex 41.99999999999998 12.500000000000044 0.0
  endloop
endfacet
facet normal -0.9914448613738107 0.13052619222004924 3.835242141967243e-16
  outer loop
    vertex 0.14830383323672783 9.274097072291145 6.000000000000013
    vertex 0.0 8.147617621050346 1.3084500523546321e-14
    vertex 0.0 8.147617621050346 6.000000000000013
  endloop
endfacet
facet normal -0.9914448613738107 0.13052619222004924 3.835242141967243e-16
  outer loop
    vertex 0.0 8.147617621050346 1.3084500523546321e-14
    vertex 0.14830383323672783 9.274097072291145 6.000000000000013
    vertex 0.14830383323672783 9.274097072291147 1.3355900370572174e-14
  endloop
endfacet
endsolid top
