solid suport_fsr_bed__top_v2_x3
facet normal -0.7933533402912296 0.608761429008728 4.696401722214104e-16
  outer loop
    vertex 1.287137677711009 -1.050000000000001 -0.5000000000000004
    vertex 0.9534085702554297 -1.4849242404917529 -4.499999999999999
    vertex 0.9534085702554297 -1.4849242404917529 -0.5000000000000004
  endloop
endfacet
facet normal -0.7933533402912296 0.608761429008728 4.696401722214104e-16
  outer loop
    vertex 0.9534085702554297 -1.4849242404917529 -4.499999999999999
    vertex 1.287137677711009 -1.050000000000001 -0.5000000000000004
    vertex 1.287137677711009 -1.050000000000001 -4.499999999999999
  endloop
endfacet
facet normal -0.9238795325112882 0.3826834323650865 4.4163038361643877e-16
  outer loop
    vertex 1.4969285649707287 -0.5435199947152961 -0.5000000000000004
    vertex 1.287137677711009 -1.050000000000001 -4.499999999999999
    vertex 1.287137677711009 -1.050000000000001 -0.5000000000000004
  endloop
endfacet
facet normal -0.9238795325112882 0.3826834323650865 4.4163038361643877e-16
  outer loop
    vertex 1.287137677711009 -1.050000000000001 -4.499999999999999
    vertex 1.4969285649707287 -0.5435199947152961 -0.5000000000000004
    vertex 1.4969285649707287 -0.5435199947152961 -4.499999999999999
  endloop
endfacet
facet normal 0.13052619222004874 0.9914448613738109 2.749969195211643e-16
  outer loop
    vertex -12.720691884794045 -2.028444235207046 -0.5000000000000004
    vertex -12.177171890078768 -2.0999999999999988 -4.499999999999999
    vertex -12.720691884794045 -2.028444235207046 -4.499999999999999
  endloop
endfacet
facet normal 0.13052619222004874 0.9914448613738109 2.749969195211643e-16
  outer loop
    vertex -12.177171890078768 -2.0999999999999988 -4.499999999999999
    vertex -12.720691884794045 -2.028444235207046 -0.5000000000000004
    vertex -12.177171890078768 -2.0999999999999988 -0.5000000000000004
  endloop
endfacet
facet normal -0.38268343236508295 0.9238795325112897 4.299164253661531e-16
  outer loop
    vertex 0.012004324478984118 -2.028444235207046 -0.5000000000000004
    vertex 0.5184843297636945 -1.8186533479473268 -4.499999999999999
    vertex 0.012004324478984118 -2.028444235207046 -4.499999999999999
  endloop
endfacet
facet normal -0.38268343236508295 0.9238795325112897 4.299164253661531e-16
  outer loop
    vertex 0.5184843297636945 -1.8186533479473268 -4.499999999999999
    vertex 0.012004324478984118 -2.028444235207046 -0.5000000000000004
    vertex 0.5184843297636945 -1.8186533479473268 -0.5000000000000004
  endloop
endfacet
facet normal -0.7933533402912296 -0.608761429008728 7.674038600891615e-17
  outer loop
    vertex 0.9534085702554297 1.4849242404917473 -0.5000000000000004
    vertex 1.287137677711009 1.0499999999999952 -4.499999999999999
    vertex 1.287137677711009 1.0499999999999952 -0.5000000000000004
  endloop
endfacet
facet normal -0.7933533402912296 -0.608761429008728 7.674038600891615e-17
  outer loop
    vertex 1.287137677711009 1.0499999999999952 -4.499999999999999
    vertex 0.9534085702554297 1.4849242404917473 -0.5000000000000004
    vertex 0.9534085702554297 1.4849242404917473 -4.499999999999999
  endloop
endfacet
facet normal -3.443488106004301e-16 3.2270423805617043e-16 -1.0
  outer loop
    vertex -13.64761762105029 6.250000000000025 -4.499999999999992
    vertex -14.277171890078742 -2.8199664825478975e-15 -4.499999999999999
    vertex -14.774097072291095 6.101696166763294 -4.499999999999988
  endloop
endfacet
facet normal -3.443488106004301e-16 3.2270423805617043e-16 -1.0
  outer loop
    vertex -14.277171890078742 -2.8199664825478975e-15 -4.499999999999999
    vertex -13.64761762105029 6.250000000000025 -4.499999999999992
    vertex -14.205616125285811 0.5435199947152904 -4.499999999999999
  endloop
endfacet
facet normal -3.443488106004301e-16 3.2270423805617043e-16 -1.0
  outer loop
    vertex -14.205616125285811 0.5435199947152904 -4.499999999999999
    vertex -13.64761762105029 6.250000000000025 -4.499999999999992
    vertex -13.995825238026093 1.0499999999999952 -4.499999999999999
  endloop
endfacet
facet normal -3.443488106004301e-16 3.2270423805617043e-16 -1.0
  outer loop
    vertex -13.995825238026093 1.0499999999999952 -4.499999999999999
    vertex -13.64761762105029 6.250000000000025 -4.499999999999992
    vertex -13.66209613057049 1.4849242404917473 -4.499999999999999
  endloop
endfacet
facet normal -3.443488106004301e-16 3.2270423805617043e-16 -1.0
  outer loop
    vertex -13.66209613057049 1.4849242404917473 -4.499999999999999
    vertex -13.64761762105029 6.250000000000025 -4.499999999999992
    vertex -13.227171890078756 1.8186533479473155 -4.499999999999999
  endloop
endfacet
facet normal -3.443488106004301e-16 3.2270423805617043e-16 -1.0
  outer loop
    vertex -13.227171890078756 1.8186533479473155 -4.499999999999999
    vertex -13.64761762105029 6.250000000000025 -4.499999999999992
    vertex -12.720691884794045 2.0284442352070404 -4.499999999999999
  endloop
endfacet
facet normal -3.443488106004301e-16 3.2270423805617043e-16 -1.0
  outer loop
    vertex -12.720691884794045 2.0284442352070404 -4.499999999999999
    vertex -13.64761762105029 6.250000000000025 -4.499999999999992
    vertex 17.999999999999996 6.2500000000000195 -4.499999999999999
  endloop
endfacet
facet normal -3.443488106004301e-16 3.2270423805617043e-16 -1.0
  outer loop
    vertex -12.720691884794045 2.0284442352070404 -4.499999999999999
    vertex 17.999999999999996 6.2500000000000195 -4.499999999999999
    vertex -12.177171890078768 2.0999999999999934 -4.499999999999999
  endloop
endfacet
facet normal -3.443488106004301e-16 3.2270423805617043e-16 -1.0
  outer loop
    vertex -12.720691884794045 2.0284442352070404 -4.499999999999999
    vertex -12.177171890078768 2.0999999999999934 -4.499999999999999
    vertex -12.521138169809484 2.0459214542870505 -4.499999999999992
  endloop
endfacet
facet normal -3.443488106004301e-16 3.2270423805617043e-16 -1.0
  outer loop
    vertex -12.177171890078768 2.0999999999999934 -4.499999999999999
    vertex 17.999999999999996 6.2500000000000195 -4.499999999999999
    vertex -0.5315156702363149 2.0999999999999934 -4.499999999999999
  endloop
endfacet
facet normal -3.443488106004301e-16 3.2270423805617043e-16 -1.0
  outer loop
    vertex -0.5315156702363149 2.0999999999999934 -4.499999999999999
    vertex 17.999999999999996 6.2500000000000195 -4.499999999999999
    vertex 0.012004324478984118 2.0284442352070404 -4.499999999999999
  endloop
endfacet
facet normal -3.443488106004301e-16 3.2270423805617043e-16 -1.0
  outer loop
    vertex 0.012004324478984118 2.0284442352070404 -4.499999999999999
    vertex 17.999999999999996 6.2500000000000195 -4.499999999999999
    vertex 0.5184843297636945 1.818653347947321 -4.499999999999999
  endloop
endfacet
facet normal -3.443488106004301e-16 3.2270423805617043e-16 -1.0
  outer loop
    vertex 0.5184843297636945 1.818653347947321 -4.499999999999999
    vertex 17.999999999999996 6.2500000000000195 -4.499999999999999
    vertex 0.9534085702554297 1.4849242404917473 -4.499999999999999
  endloop
endfacet
facet normal -3.443488106004301e-16 3.2270423805617043e-16 -1.0
  outer loop
    vertex 0.9534085702554297 1.4849242404917473 -4.499999999999999
    vertex 17.999999999999996 6.2500000000000195 -4.499999999999999
    vertex 1.287137677711009 1.0499999999999952 -4.499999999999999
  endloop
endfacet
facet normal -3.443488106004301e-16 3.2270423805617043e-16 -1.0
  outer loop
    vertex 1.287137677711009 1.0499999999999952 -4.499999999999999
    vertex 17.999999999999996 6.2500000000000195 -4.499999999999999
    vertex 1.4969285649707287 0.5435199947152904 -4.499999999999999
  endloop
endfacet
facet normal -3.443488106004301e-16 3.2270423805617043e-16 -1.0
  outer loop
    vertex 1.4969285649707287 0.5435199947152904 -4.499999999999999
    vertex 17.999999999999996 6.2500000000000195 -4.499999999999999
    vertex 1.5684843297636812 -2.8199664825478975e-15 -4.499999999999999
  endloop
endfacet
facet normal -3.443488106004301e-16 3.2270423805617043e-16 -1.0
  outer loop
    vertex -17.85169616676327 3.024097072291121 -4.499999999999986
    vertex -17.999999999999996 -1.8976176210503426 -4.499999999999989
    vertex -17.999999999999996 1.89761762105032 -4.499999999999986
  endloop
endfacet
facet normal -3.443488106004301e-16 3.2270423805617043e-16 -1.0
  outer loop
    vertex -17.999999999999996 -1.8976176210503426 -4.499999999999989
    vertex -17.85169616676327 3.024097072291121 -4.499999999999986
    vertex -17.851696166763233 -3.0240970722911364 -4.499999999999989
  endloop
endfacet
facet normal -3.443488106004301e-16 3.2270423805617043e-16 -1.0
  outer loop
    vertex -17.851696166763233 -3.0240970722911364 -4.499999999999989
    vertex -17.85169616676327 3.024097072291121 -4.499999999999986
    vertex -17.416891328204482 4.073808810525173 -4.499999999999985
  endloop
endfacet
facet normal -3.443488106004301e-16 3.2270423805617043e-16 -1.0
  outer loop
    vertex -17.851696166763233 -3.0240970722911364 -4.499999999999989
    vertex -17.416891328204482 4.073808810525173 -4.499999999999985
    vertex -17.41689132820447 -4.0738088105251835 -4.499999999999989
  endloop
endfacet
facet normal -3.443488106004301e-16 3.2270423805617043e-16 -1.0
  outer loop
    vertex -17.41689132820447 -4.0738088105251835 -4.499999999999989
    vertex -17.416891328204482 4.073808810525173 -4.499999999999985
    vertex -16.725216715522464 4.975216715522495 -4.499999999999986
  endloop
endfacet
facet normal -3.443488106004301e-16 3.2270423805617043e-16 -1.0
  outer loop
    vertex -17.41689132820447 -4.0738088105251835 -4.499999999999989
    vertex -16.725216715522464 4.975216715522495 -4.499999999999986
    vertex -16.72521671552245 -4.975216715522504 -4.499999999999989
  endloop
endfacet
facet normal -3.443488106004301e-16 3.2270423805617043e-16 -1.0
  outer loop
    vertex -16.72521671552245 -4.975216715522504 -4.499999999999989
    vertex -16.725216715522464 4.975216715522495 -4.499999999999986
    vertex -15.823808810525142 5.666891328204514 -4.499999999999986
  endloop
endfacet
facet normal -3.443488106004301e-16 3.2270423805617043e-16 -1.0
  outer loop
    vertex -16.72521671552245 -4.975216715522504 -4.499999999999989
    vertex -15.823808810525142 5.666891328204514 -4.499999999999986
    vertex -15.82380881052512 -5.666891328204514 -4.499999999999989
  endloop
endfacet
facet normal -3.443488106004301e-16 3.2270423805617043e-16 -1.0
  outer loop
    vertex -15.82380881052512 -5.666891328204514 -4.499999999999989
    vertex -15.823808810525142 5.666891328204514 -4.499999999999986
    vertex -14.774097072291095 6.101696166763294 -4.499999999999988
  endloop
endfacet
facet normal -3.443488106004301e-16 3.2270423805617043e-16 -1.0
  outer loop
    vertex -15.82380881052512 -5.666891328204514 -4.499999999999989
    vertex -14.774097072291095 6.101696166763294 -4.499999999999988
    vertex -14.774097072291118 -6.101696166763297 -4.499999999999989
  endloop
endfacet
facet normal -3.443488106004301e-16 3.2270423805617043e-16 -1.0
  outer loop
    vertex -14.774097072291118 -6.101696166763297 -4.499999999999989
    vertex -14.774097072291095 6.101696166763294 -4.499999999999988
    vertex -14.277171890078742 -2.8199664825478975e-15 -4.499999999999999
  endloop
endfacet
facet normal -3.443488106004301e-16 3.2270423805617043e-16 -1.0
  outer loop
    vertex -14.774097072291118 -6.101696166763297 -4.499999999999989
    vertex -14.277171890078742 -2.8199664825478975e-15 -4.499999999999999
    vertex -13.64761762105029 -6.250000000000025 -4.499999999999989
  endloop
endfacet
facet normal -3.443488106004301e-16 3.2270423805617043e-16 -1.0
  outer loop
    vertex -13.64761762105029 -6.250000000000025 -4.499999999999989
    vertex -14.277171890078742 -2.8199664825478975e-15 -4.499999999999999
    vertex -14.205616125285811 -0.5435199947153018 -4.499999999999999
  endloop
endfacet
facet normal -3.443488106004301e-16 3.2270423805617043e-16 -1.0
  outer loop
    vertex -13.64761762105029 -6.250000000000025 -4.499999999999989
    vertex -14.205616125285811 -0.5435199947153018 -4.499999999999999
    vertex -13.995825238026093 -1.050000000000001 -4.499999999999999
  endloop
endfacet
facet normal -3.443488106004301e-16 3.2270423805617043e-16 -1.0
  outer loop
    vertex -13.64761762105029 -6.250000000000025 -4.499999999999989
    vertex -13.995825238026093 -1.050000000000001 -4.499999999999999
    vertex -13.66209613057049 -1.4849242404917529 -4.499999999999999
  endloop
endfacet
facet normal -3.443488106004301e-16 3.2270423805617043e-16 -1.0
  outer loop
    vertex -13.64761762105029 -6.250000000000025 -4.499999999999989
    vertex -13.66209613057049 -1.4849242404917529 -4.499999999999999
    vertex -13.227171890078756 -1.8186533479473268 -4.499999999999999
  endloop
endfacet
facet normal -3.443488106004301e-16 3.2270423805617043e-16 -1.0
  outer loop
    vertex -13.64761762105029 -6.250000000000025 -4.499999999999989
    vertex -13.227171890078756 -1.8186533479473268 -4.499999999999999
    vertex -12.720691884794045 -2.028444235207046 -4.499999999999999
  endloop
endfacet
facet normal -3.443488106004301e-16 3.2270423805617043e-16 -1.0
  outer loop
    vertex -13.64761762105029 -6.250000000000025 -4.499999999999989
    vertex -12.720691884794045 -2.028444235207046 -4.499999999999999
    vertex 17.999999999999996 -6.250000000000025 -4.499999999999999
  endloop
endfacet
facet normal -3.443488106004301e-16 3.2270423805617043e-16 -1.0
  outer loop
    vertex 17.999999999999996 -6.250000000000025 -4.499999999999999
    vertex -12.720691884794045 -2.028444235207046 -4.499999999999999
    vertex -12.177171890078768 -2.0999999999999988 -4.499999999999999
  endloop
endfacet
facet normal -3.443488106004301e-16 3.2270423805617043e-16 -1.0
  outer loop
    vertex 17.999999999999996 -6.250000000000025 -4.499999999999999
    vertex -12.177171890078768 -2.0999999999999988 -4.499999999999999
    vertex -0.5315156702363149 -2.0999999999999988 -4.499999999999999
  endloop
endfacet
facet normal -3.443488106004301e-16 3.2270423805617043e-16 -1.0
  outer loop
    vertex 17.999999999999996 -6.250000000000025 -4.499999999999999
    vertex -0.5315156702363149 -2.0999999999999988 -4.499999999999999
    vertex 0.012004324478984118 -2.028444235207046 -4.499999999999999
  endloop
endfacet
facet normal -3.443488106004301e-16 3.2270423805617043e-16 -1.0
  outer loop
    vertex 17.999999999999996 -6.250000000000025 -4.499999999999999
    vertex 0.012004324478984118 -2.028444235207046 -4.499999999999999
    vertex 0.5184843297636945 -1.8186533479473268 -4.499999999999999
  endloop
endfacet
facet normal -3.443488106004301e-16 3.2270423805617043e-16 -1.0
  outer loop
    vertex 17.999999999999996 -6.250000000000025 -4.499999999999999
    vertex 0.5184843297636945 -1.8186533479473268 -4.499999999999999
    vertex 0.9534085702554297 -1.4849242404917529 -4.499999999999999
  endloop
endfacet
facet normal -3.443488106004301e-16 3.2270423805617043e-16 -1.0
  outer loop
    vertex 17.999999999999996 -6.250000000000025 -4.499999999999999
    vertex 0.9534085702554297 -1.4849242404917529 -4.499999999999999
    vertex 1.287137677711009 -1.050000000000001 -4.499999999999999
  endloop
endfacet
facet normal -3.443488106004301e-16 3.2270423805617043e-16 -1.0
  outer loop
    vertex 17.999999999999996 -6.250000000000025 -4.499999999999999
    vertex 1.287137677711009 -1.050000000000001 -4.499999999999999
    vertex 1.4969285649707287 -0.5435199947152961 -4.499999999999999
  endloop
endfacet
facet normal -3.443488106004301e-16 3.2270423805617043e-16 -1.0
  outer loop
    vertex 17.999999999999996 -6.250000000000025 -4.499999999999999
    vertex 1.4969285649707287 -0.5435199947152961 -4.499999999999999
    vertex 1.5684843297636812 -2.8199664825478975e-15 -4.499999999999999
  endloop
endfacet
facet normal -3.443488106004301e-16 3.2270423805617043e-16 -1.0
  outer loop
    vertex 17.999999999999996 -6.250000000000025 -4.499999999999999
    vertex 1.5684843297636812 -2.8199664825478975e-15 -4.499999999999999
    vertex 17.999999999999996 6.2500000000000195 -4.499999999999999
  endloop
endfacet
facet normal -0.9914448613738107 0.13052619222004924 3.835242141967243e-16
  outer loop
    vertex -17.85169616676327 3.024097072291119 -0.49999999999998357
    vertex -17.999999999999996 1.89761762105032 -4.499999999999986
    vertex -17.999999999999996 1.89761762105032 -0.49999999999998357
  endloop
endfacet
facet normal -0.9914448613738107 0.13052619222004924 3.835242141967243e-16
  outer loop
    vertex -17.999999999999996 1.89761762105032 -4.499999999999986
    vertex -17.85169616676327 3.024097072291119 -0.49999999999998357
    vertex -17.85169616676327 3.024097072291121 -4.499999999999986
  endloop
endfacet
facet normal 1.4980849576899358e-16 1.0 3.227042380561704e-16
  outer loop
    vertex -13.64761762105029 6.250000000000022 -0.499999999999992
    vertex 7.858729679204435 6.2500000000000195 -0.49999999999999484
    vertex -13.64761762105029 6.250000000000025 -4.499999999999992
  endloop
endfacet
facet normal 1.4980849576899358e-16 1.0 3.227042380561704e-16
  outer loop
    vertex 17.999999999999996 6.2500000000000195 -4.499999999999999
    vertex 7.858729679204435 6.2500000000000195 -0.49999999999999484
    vertex 17.999999999999996 6.250000000000017 3.4999999999999964
  endloop
endfacet
facet normal 1.4980849576899358e-16 1.0 3.227042380561704e-16
  outer loop
    vertex 7.858729679204435 6.2500000000000195 -0.49999999999999484
    vertex 17.999999999999996 6.2500000000000195 -4.499999999999999
    vertex -13.64761762105029 6.250000000000025 -4.499999999999992
  endloop
endfacet
facet normal 1.4980849576899358e-16 1.0 3.227042380561704e-16
  outer loop
    vertex 17.999999999999996 6.250000000000017 3.4999999999999964
    vertex 7.858729679204435 6.2500000000000195 -0.49999999999999484
    vertex 7.858729679204435 6.2500000000000195 3.499999999999999
  endloop
endfacet
facet normal -0.7933533402912346 0.6087614290087217 4.6964017222141e-16
  outer loop
    vertex -16.725216715522464 4.9752167155224924 -0.49999999999998357
    vertex -17.416891328204482 4.073808810525173 -4.499999999999985
    vertex -17.416891328204482 4.07380881052517 -0.49999999999998357
  endloop
endfacet
facet normal -0.7933533402912346 0.6087614290087217 4.6964017222141e-16
  outer loop
    vertex -17.416891328204482 4.073808810525173 -4.499999999999985
    vertex -16.725216715522464 4.9752167155224924 -0.49999999999998357
    vertex -16.725216715522464 4.975216715522495 -4.499999999999986
  endloop
endfacet
facet normal -0.3826834323651077 -0.9238795325112794 -1.6636325582332837e-16
  outer loop
    vertex -14.774097072291118 -6.101696166763297 -0.49999999999998923
    vertex -15.82380881052512 -5.666891328204514 -4.499999999999989
    vertex -14.774097072291118 -6.101696166763297 -4.499999999999989
  endloop
endfacet
facet normal -0.3826834323651077 -0.9238795325112794 -1.6636325582332837e-16
  outer loop
    vertex -15.82380881052512 -5.666891328204514 -4.499999999999989
    vertex -14.774097072291118 -6.101696166763297 -0.49999999999998923
    vertex -15.82380881052512 -5.666891328204513 -0.49999999999998923
  endloop
endfacet
facet normal -0.13052619222004339 0.9914448613738115 3.6488999760751637e-16
  outer loop
    vertex -0.5315156702363149 -2.0999999999999988 -0.5000000000000004
    vertex 0.012004324478984118 -2.028444235207046 -4.499999999999999
    vertex -0.5315156702363149 -2.0999999999999988 -4.499999999999999
  endloop
endfacet
facet normal -0.13052619222004339 0.9914448613738115 3.6488999760751637e-16
  outer loop
    vertex 0.012004324478984118 -2.028444235207046 -4.499999999999999
    vertex -0.5315156702363149 -2.0999999999999988 -0.5000000000000004
    vertex 0.012004324478984118 -2.028444235207046 -0.5000000000000004
  endloop
endfacet
facet normal -0.7933533402912339 -0.6087614290087222 7.674038600891952e-17
  outer loop
    vertex -17.41689132820447 -4.0738088105251835 -0.49999999999998923
    vertex -16.72521671552245 -4.975216715522504 -4.499999999999989
    vertex -16.72521671552245 -4.975216715522504 -0.49999999999998923
  endloop
endfacet
facet normal -0.7933533402912339 -0.6087614290087222 7.674038600891952e-17
  outer loop
    vertex -16.72521671552245 -4.975216715522504 -4.499999999999989
    vertex -17.41689132820447 -4.0738088105251835 -0.49999999999998923
    vertex -17.41689132820447 -4.0738088105251835 -4.499999999999989
  endloop
endfacet
facet normal -0.9238795325112922 -0.38268343236507674 1.9464325270025276e-16
  outer loop
    vertex -17.851696166763233 -3.0240970722911364 -0.49999999999998923
    vertex -17.41689132820447 -4.0738088105251835 -4.499999999999989
    vertex -17.41689132820447 -4.0738088105251835 -0.49999999999998923
  endloop
endfacet
facet normal -0.9238795325112922 -0.38268343236507674 1.9464325270025276e-16
  outer loop
    vertex -17.41689132820447 -4.0738088105251835 -4.499999999999989
    vertex -17.851696166763233 -3.0240970722911364 -0.49999999999998923
    vertex -17.851696166763233 -3.0240970722911364 -4.499999999999989
  endloop
endfacet
facet normal -0.1305261922200462 -0.9914448613738112 -2.749969195211652e-16
  outer loop
    vertex -13.64761762105029 -6.250000000000025 -0.49999999999998923
    vertex -14.774097072291118 -6.101696166763297 -4.499999999999989
    vertex -13.64761762105029 -6.250000000000025 -4.499999999999989
  endloop
endfacet
facet normal -0.1305261922200462 -0.9914448613738112 -2.749969195211652e-16
  outer loop
    vertex -14.774097072291118 -6.101696166763297 -4.499999999999989
    vertex -13.64761762105029 -6.250000000000025 -0.49999999999998923
    vertex -14.774097072291118 -6.101696166763297 -0.49999999999998923
  endloop
endfacet
facet normal 0.9238795325112882 -0.3826834323650865 -4.4163038361643877e-16
  outer loop
    vertex -13.995825238026093 1.0499999999999952 -4.499999999999999
    vertex -14.205616125285811 0.5435199947152904 -0.5000000000000004
    vertex -14.205616125285811 0.5435199947152904 -4.499999999999999
  endloop
endfacet
facet normal 0.9238795325112882 -0.3826834323650865 -4.4163038361643877e-16
  outer loop
    vertex -14.205616125285811 0.5435199947152904 -0.5000000000000004
    vertex -13.995825238026093 1.0499999999999952 -4.499999999999999
    vertex -13.995825238026093 1.0499999999999952 -0.5000000000000004
  endloop
endfacet
facet normal -0.9238795325112857 0.3826834323650924 4.4163038361643985e-16
  outer loop
    vertex -17.416891328204482 4.07380881052517 -0.49999999999998357
    vertex -17.85169616676327 3.024097072291121 -4.499999999999986
    vertex -17.85169616676327 3.024097072291119 -0.49999999999998357
  endloop
endfacet
facet normal -0.9238795325112857 0.3826834323650924 4.4163038361643985e-16
  outer loop
    vertex -17.85169616676327 3.024097072291121 -4.499999999999986
    vertex -17.416891328204482 4.07380881052517 -0.49999999999998357
    vertex -17.416891328204482 4.073808810525173 -4.499999999999985
  endloop
endfacet
facet normal -0.6087614290087364 0.7933533402912232 4.656447592065734e-16
  outer loop
    vertex 0.5184843297636945 -1.8186533479473268 -0.5000000000000004
    vertex 0.9534085702554297 -1.4849242404917529 -4.499999999999999
    vertex 0.5184843297636945 -1.8186533479473268 -4.499999999999999
  endloop
endfacet
facet normal -0.6087614290087364 0.7933533402912232 4.656447592065734e-16
  outer loop
    vertex 0.9534085702554297 -1.4849242404917529 -4.499999999999999
    vertex 0.5184843297636945 -1.8186533479473268 -0.5000000000000004
    vertex 0.9534085702554297 -1.4849242404917529 -0.5000000000000004
  endloop
endfacet
facet normal -0.9238795325112882 -0.3826834323650865 1.946432527002482e-16
  outer loop
    vertex 1.287137677711009 1.0499999999999952 -0.5000000000000004
    vertex 1.4969285649707287 0.5435199947152904 -4.499999999999999
    vertex 1.4969285649707287 0.5435199947152904 -0.5000000000000004
  endloop
endfacet
facet normal -0.9238795325112882 -0.3826834323650865 1.946432527002482e-16
  outer loop
    vertex 1.4969285649707287 0.5435199947152904 -4.499999999999999
    vertex 1.287137677711009 1.0499999999999952 -0.5000000000000004
    vertex 1.287137677711009 1.0499999999999952 -4.499999999999999
  endloop
endfacet
facet normal 0.38268343236508295 0.9238795325112897 1.6636325582334023e-16
  outer loop
    vertex -13.227171890078756 -1.8186533479473268 -0.5000000000000004
    vertex -12.720691884794045 -2.028444235207046 -4.499999999999999
    vertex -13.227171890078756 -1.8186533479473268 -4.499999999999999
  endloop
endfacet
facet normal 0.38268343236508295 0.9238795325112897 1.6636325582334023e-16
  outer loop
    vertex -12.720691884794045 -2.028444235207046 -4.499999999999999
    vertex -13.227171890078756 -1.8186533479473268 -0.5000000000000004
    vertex -12.720691884794045 -2.028444235207046 -0.5000000000000004
  endloop
endfacet
facet normal -0.9914448613738114 -0.13052619222004475 2.9928150338323744e-16
  outer loop
    vertex 1.4969285649707287 0.5435199947152904 -0.5000000000000004
    vertex 1.5684843297636812 -2.8199664825478975e-15 -4.499999999999999
    vertex 1.5684843297636812 -2.8199664825478975e-15 -0.5000000000000004
  endloop
endfacet
facet normal -0.9914448613738114 -0.13052619222004475 2.9928150338323744e-16
  outer loop
    vertex 1.5684843297636812 -2.8199664825478975e-15 -4.499999999999999
    vertex 1.4969285649707287 0.5435199947152904 -0.5000000000000004
    vertex 1.4969285649707287 0.5435199947152904 -4.499999999999999
  endloop
endfacet
facet normal -0.6087614290087112 -0.7933533402912426 -4.639221116943521e-17
  outer loop
    vertex -15.82380881052512 -5.666891328204513 -0.49999999999998923
    vertex -16.72521671552245 -4.975216715522504 -4.499999999999989
    vertex -15.82380881052512 -5.666891328204514 -4.499999999999989
  endloop
endfacet
facet normal -0.6087614290087112 -0.7933533402912426 -4.639221116943521e-17
  outer loop
    vertex -16.72521671552245 -4.975216715522504 -4.499999999999989
    vertex -15.82380881052512 -5.666891328204513 -0.49999999999998923
    vertex -16.72521671552245 -4.975216715522504 -0.49999999999998923
  endloop
endfacet
facet normal 1.0 0.0 -3.443488106004302e-16
  outer loop
    vertex 17.999999999999996 6.2500000000000195 -4.499999999999999
    vertex 17.999999999999996 -6.250000000000025 3.4999999999999964
    vertex 17.999999999999996 -6.250000000000025 -4.499999999999999
  endloop
endfacet
facet normal 1.0 0.0 -3.443488106004302e-16
  outer loop
    vertex 17.999999999999996 -6.250000000000025 3.4999999999999964
    vertex 17.999999999999996 6.2500000000000195 -4.499999999999999
    vertex 17.999999999999996 6.250000000000017 3.4999999999999964
  endloop
endfacet
facet normal -0.9914448613738069 -0.13052619222007936 2.9928150338322477e-16
  outer loop
    vertex -17.999999999999996 -1.8976176210503426 -0.49999999999998923
    vertex -17.851696166763233 -3.0240970722911364 -4.499999999999989
    vertex -17.851696166763233 -3.0240970722911364 -0.49999999999998923
  endloop
endfacet
facet normal -0.9914448613738069 -0.13052619222007936 2.9928150338322477e-16
  outer loop
    vertex -17.851696166763233 -3.0240970722911364 -4.499999999999989
    vertex -17.999999999999996 -1.8976176210503426 -0.49999999999998923
    vertex -17.999999999999996 -1.8976176210503426 -4.499999999999989
  endloop
endfacet
facet normal 0.0 1.0 3.2270423805617043e-16
  outer loop
    vertex -12.177171890078768 -2.0999999999999988 -0.5000000000000004
    vertex -0.5315156702363149 -2.0999999999999988 -4.499999999999999
    vertex -12.177171890078768 -2.0999999999999988 -4.499999999999999
  endloop
endfacet
facet normal 0.0 1.0 3.2270423805617043e-16
  outer loop
    vertex -0.5315156702363149 -2.0999999999999988 -4.499999999999999
    vertex -12.177171890078768 -2.0999999999999988 -0.5000000000000004
    vertex -0.5315156702363149 -2.0999999999999988 -0.5000000000000004
  endloop
endfacet
facet normal -0.9914448613738114 0.13052619222004475 3.83524214196723e-16
  outer loop
    vertex 1.5684843297636812 -2.8199664825478975e-15 -0.5000000000000004
    vertex 1.4969285649707287 -0.5435199947152961 -4.499999999999999
    vertex 1.4969285649707287 -0.5435199947152961 -0.5000000000000004
  endloop
endfacet
facet normal -0.9914448613738114 0.13052619222004475 3.83524214196723e-16
  outer loop
    vertex 1.4969285649707287 -0.5435199947152961 -4.499999999999999
    vertex 1.5684843297636812 -2.8199664825478975e-15 -0.5000000000000004
    vertex 1.5684843297636812 -2.8199664825478975e-15 -4.499999999999999
  endloop
endfacet
facet normal 0.60876142900873 -0.7933533402912281 -4.656447592065727e-16
  outer loop
    vertex -13.227171890078756 1.8186533479473155 -0.5000000000000004
    vertex -13.66209613057049 1.4849242404917473 -4.499999999999999
    vertex -13.227171890078756 1.8186533479473155 -4.499999999999999
  endloop
endfacet
facet normal 0.60876142900873 -0.7933533402912281 -4.656447592065727e-16
  outer loop
    vertex -13.66209613057049 1.4849242404917473 -4.499999999999999
    vertex -13.227171890078756 1.8186533479473155 -0.5000000000000004
    vertex -13.66209613057049 1.4849242404917473 -0.5000000000000004
  endloop
endfacet
facet normal -1.0 -2.9166830440703316e-31 3.4434881060043017e-16
  outer loop
    vertex -17.999999999999996 1.89761762105032 -0.49999999999998357
    vertex -17.999999999999996 -1.8976176210503426 -4.499999999999989
    vertex -17.999999999999996 -1.8976176210503426 -0.49999999999998923
  endloop
endfacet
facet normal -1.0 -2.9166830440703316e-31 3.4434881060043017e-16
  outer loop
    vertex -17.999999999999996 -1.8976176210503426 -4.499999999999989
    vertex -17.999999999999996 1.89761762105032 -0.49999999999998357
    vertex -17.999999999999996 1.89761762105032 -4.499999999999986
  endloop
endfacet
facet normal 0.9238795325112866 0.38268343236509017 -1.9464325270024655e-16
  outer loop
    vertex -14.205616125285811 -0.5435199947153018 -4.499999999999999
    vertex -13.995825238026093 -1.050000000000001 -0.5000000000000004
    vertex -13.995825238026093 -1.050000000000001 -4.499999999999999
  endloop
endfacet
facet normal 0.9238795325112866 0.38268343236509017 -1.9464325270024655e-16
  outer loop
    vertex -13.995825238026093 -1.050000000000001 -0.5000000000000004
    vertex -14.205616125285811 -0.5435199947153018 -4.499999999999999
    vertex -14.205616125285811 -0.5435199947153018 -0.5000000000000004
  endloop
endfacet
facet normal 0.3826834323650916 -0.923879532511286 -4.299164253661549e-16
  outer loop
    vertex -12.720691884794045 2.0284442352070404 -0.5000000000000004
    vertex -13.227171890078756 1.8186533479473155 -4.499999999999999
    vertex -12.720691884794045 2.0284442352070404 -4.499999999999999
  endloop
endfacet
facet normal 0.3826834323650916 -0.923879532511286 -4.299164253661549e-16
  outer loop
    vertex -13.227171890078756 1.8186533479473155 -4.499999999999999
    vertex -12.720691884794045 2.0284442352070404 -0.5000000000000004
    vertex -13.227171890078756 1.8186533479473155 -0.5000000000000004
  endloop
endfacet
facet normal 0.9914448613738167 -0.13052619222000428 -3.835242141967118e-16
  outer loop
    vertex -14.205616125285811 0.5435199947152904 -4.499999999999999
    vertex -14.277171890078742 -2.8199664825478975e-15 -0.5000000000000004
    vertex -14.277171890078742 -2.8199664825478975e-15 -4.499999999999999
  endloop
endfacet
facet normal 0.9914448613738167 -0.13052619222000428 -3.835242141967118e-16
  outer loop
    vertex -14.277171890078742 -2.8199664825478975e-15 -0.5000000000000004
    vertex -14.205616125285811 0.5435199947152904 -4.499999999999999
    vertex -14.205616125285811 0.5435199947152904 -0.5000000000000004
  endloop
endfacet
facet normal 0.6087614290087364 0.7933533402912232 4.6392211169420284e-17
  outer loop
    vertex -13.66209613057049 -1.4849242404917529 -0.5000000000000004
    vertex -13.227171890078756 -1.8186533479473268 -4.499999999999999
    vertex -13.66209613057049 -1.4849242404917529 -4.499999999999999
  endloop
endfacet
facet normal 0.6087614290087364 0.7933533402912232 4.6392211169420284e-17
  outer loop
    vertex -13.227171890078756 -1.8186533479473268 -4.499999999999999
    vertex -13.66209613057049 -1.4849242404917529 -0.5000000000000004
    vertex -13.227171890078756 -1.8186533479473268 -0.5000000000000004
  endloop
endfacet
facet normal 0.15531267247472083 -0.9878653621667075 -3.722700730379345e-16
  outer loop
    vertex -12.177171890078768 2.0999999999999934 -0.5000000000000004
    vertex -12.521138169809484 2.0459214542870505 -4.499999999999992
    vertex -12.177171890078768 2.0999999999999934 -4.499999999999999
  endloop
endfacet
facet normal 0.15531267247472083 -0.9878653621667075 -3.722700730379345e-16
  outer loop
    vertex -12.521138169809484 2.0459214542870505 -4.499999999999992
    vertex -12.177171890078768 2.0999999999999934 -0.5000000000000004
    vertex -12.521138169809484 2.0459214542870505 -0.49999999999998923
  endloop
endfacet
facet normal 0.0872475490348715 -0.9961866618196652 -3.515172474021957e-16
  outer loop
    vertex -12.521138169809484 2.0459214542870505 -4.499999999999992
    vertex -12.720691884794045 2.0284442352070404 -0.5000000000000004
    vertex -12.720691884794045 2.0284442352070404 -4.499999999999999
  endloop
endfacet
facet normal 0.0872475490348715 -0.9961866618196652 -3.515172474021957e-16
  outer loop
    vertex -12.720691884794045 2.0284442352070404 -0.5000000000000004
    vertex -12.521138169809484 2.0459214542870505 -4.499999999999992
    vertex -12.521138169809484 2.0459214542870505 -0.49999999999998923
  endloop
endfacet
facet normal 0.9914448613738169 0.13052619222000297 -2.9928150338325287e-16
  outer loop
    vertex -14.277171890078742 -2.8199664825478975e-15 -4.499999999999999
    vertex -14.205616125285811 -0.5435199947153018 -0.5000000000000004
    vertex -14.205616125285811 -0.5435199947153018 -4.499999999999999
  endloop
endfacet
facet normal 0.9914448613738169 0.13052619222000297 -2.9928150338325287e-16
  outer loop
    vertex -14.205616125285811 -0.5435199947153018 -0.5000000000000004
    vertex -14.277171890078742 -2.8199664825478975e-15 -4.499999999999999
    vertex -14.277171890078742 -2.8199664825478975e-15 -0.5000000000000004
  endloop
endfacet
facet normal 0.7933533402912099 0.608761429008754 -7.674038600890097e-17
  outer loop
    vertex -13.995825238026093 -1.050000000000001 -4.499999999999999
    vertex -13.66209613057049 -1.4849242404917529 -0.5000000000000004
    vertex -13.66209613057049 -1.4849242404917529 -4.499999999999999
  endloop
endfacet
facet normal 0.7933533402912099 0.608761429008754 -7.674038600890097e-17
  outer loop
    vertex -13.66209613057049 -1.4849242404917529 -0.5000000000000004
    vertex -13.995825238026093 -1.050000000000001 -4.499999999999999
    vertex -13.995825238026093 -1.050000000000001 -0.5000000000000004
  endloop
endfacet
facet normal 0.7933533402912099 -0.608761429008754 -4.696401722214119e-16
  outer loop
    vertex -13.66209613057049 1.4849242404917473 -4.499999999999999
    vertex -13.995825238026093 1.0499999999999952 -0.5000000000000004
    vertex -13.995825238026093 1.0499999999999952 -4.499999999999999
  endloop
endfacet
facet normal 0.7933533402912099 -0.608761429008754 -4.696401722214119e-16
  outer loop
    vertex -13.995825238026093 1.0499999999999952 -0.5000000000000004
    vertex -13.66209613057049 1.4849242404917473 -4.499999999999999
    vertex -13.66209613057049 1.4849242404917473 -0.5000000000000004
  endloop
endfacet
facet normal -0.0 -1.0 -3.2270423805617043e-16
  outer loop
    vertex -0.5315156702363149 2.0999999999999934 -0.5000000000000004
    vertex -12.177171890078768 2.0999999999999934 -4.499999999999999
    vertex -0.5315156702363149 2.0999999999999934 -4.499999999999999
  endloop
endfacet
facet normal -0.0 -1.0 -3.2270423805617043e-16
  outer loop
    vertex -12.177171890078768 2.0999999999999934 -4.499999999999999
    vertex -0.5315156702363149 2.0999999999999934 -0.5000000000000004
    vertex -12.177171890078768 2.0999999999999934 -0.5000000000000004
  endloop
endfacet
facet normal -1.0 0.0 2.5310995975785056e-16
  outer loop
    vertex 7.858729679204435 6.2500000000000195 3.499999999999999
    vertex 7.858729679204435 -6.250000000000025 -0.49999999999999484
    vertex 7.858729679204435 -6.250000000000025 3.499999999999999
  endloop
endfacet
facet normal -1.0 0.0 2.5310995975785056e-16
  outer loop
    vertex 7.858729679204435 -6.250000000000025 -0.49999999999999484
    vertex 7.858729679204435 6.2500000000000195 3.499999999999999
    vertex 7.858729679204435 6.2500000000000195 -0.49999999999999484
  endloop
endfacet
facet normal 2.531099597578505e-16 -5.4717196546812024e-33 1.0
  outer loop
    vertex 17.999999999999996 -6.250000000000025 3.4999999999999964
    vertex 7.858729679204435 6.2500000000000195 3.499999999999999
    vertex 7.858729679204435 -6.250000000000025 3.499999999999999
  endloop
endfacet
facet normal 2.531099597578505e-16 -5.4717196546812024e-33 1.0
  outer loop
    vertex 7.858729679204435 6.2500000000000195 3.499999999999999
    vertex 17.999999999999996 -6.250000000000025 3.4999999999999964
    vertex 17.999999999999996 6.250000000000017 3.4999999999999964
  endloop
endfacet
facet normal -8.460171384257964e-32 -1.0 -3.227042380561705e-16
  outer loop
    vertex 17.999999999999996 -6.250000000000025 -4.499999999999999
    vertex 7.858729679204435 -6.250000000000025 -0.49999999999999484
    vertex -13.64761762105029 -6.250000000000025 -4.499999999999989
  endloop
endfacet
facet normal -8.460171384257964e-32 -1.0 -3.227042380561705e-16
  outer loop
    vertex 7.858729679204435 -6.250000000000025 -0.49999999999999484
    vertex 17.999999999999996 -6.250000000000025 -4.499999999999999
    vertex 17.999999999999996 -6.250000000000025 3.4999999999999964
  endloop
endfacet
facet normal -8.460171384257964e-32 -1.0 -3.227042380561705e-16
  outer loop
    vertex 7.858729679204435 -6.250000000000025 -0.49999999999999484
    vertex 17.999999999999996 -6.250000000000025 3.4999999999999964
    vertex 7.858729679204435 -6.250000000000025 3.499999999999999
  endloop
endfacet
facet normal -8.460171384257964e-32 -1.0 -3.227042380561705e-16
  outer loop
    vertex -13.64761762105029 -6.250000000000025 -0.49999999999998923
    vertex -13.64761762105029 -6.250000000000025 -4.499999999999989
    vertex 7.858729679204435 -6.250000000000025 -0.49999999999999484
  endloop
endfacet
facet normal -0.38268343236509156 0.9238795325112861 4.299164253661549e-16
  outer loop
    vertex -15.823808810525142 5.666891328204514 -4.499999999999986
    vertex -14.774097072291095 6.101696166763294 -0.4999999999999864
    vertex -14.774097072291095 6.101696166763294 -4.499999999999988
  endloop
endfacet
facet normal -0.38268343236509156 0.9238795325112861 4.299164253661549e-16
  outer loop
    vertex -14.774097072291095 6.101696166763294 -0.4999999999999864
    vertex -15.823808810525142 5.666891328204514 -4.499999999999986
    vertex -15.823808810525142 5.66689132820451 -0.4999999999999864
  endloop
endfacet
facet normal 2.9798611045023033e-16 -1.8519601215887624e-16 1.0
  outer loop
    vertex -17.851696166763233 -3.0240970722911364 -0.49999999999998923
    vertex -17.999999999999996 1.89761762105032 -0.49999999999998357
    vertex -17.999999999999996 -1.8976176210503426 -0.49999999999998923
  endloop
endfacet
facet normal 2.9798611045023033e-16 -1.8519601215887624e-16 1.0
  outer loop
    vertex -17.999999999999996 1.89761762105032 -0.49999999999998357
    vertex -17.851696166763233 -3.0240970722911364 -0.49999999999998923
    vertex -17.85169616676327 3.024097072291119 -0.49999999999998357
  endloop
endfacet
facet normal 2.9798611045023033e-16 -1.8519601215887624e-16 1.0
  outer loop
    vertex -17.85169616676327 3.024097072291119 -0.49999999999998357
    vertex -17.851696166763233 -3.0240970722911364 -0.49999999999998923
    vertex -17.416891328204482 4.07380881052517 -0.49999999999998357
  endloop
endfacet
facet normal 2.9798611045023033e-16 -1.8519601215887624e-16 1.0
  outer loop
    vertex -17.416891328204482 4.07380881052517 -0.49999999999998357
    vertex -17.851696166763233 -3.0240970722911364 -0.49999999999998923
    vertex -17.41689132820447 -4.0738088105251835 -0.49999999999998923
  endloop
endfacet
facet normal 2.9798611045023033e-16 -1.8519601215887624e-16 1.0
  outer loop
    vertex -17.416891328204482 4.07380881052517 -0.49999999999998357
    vertex -17.41689132820447 -4.0738088105251835 -0.49999999999998923
    vertex -16.725216715522464 4.9752167155224924 -0.49999999999998357
  endloop
endfacet
facet normal 2.9798611045023033e-16 -1.8519601215887624e-16 1.0
  outer loop
    vertex -16.725216715522464 4.9752167155224924 -0.49999999999998357
    vertex -17.41689132820447 -4.0738088105251835 -0.49999999999998923
    vertex -16.72521671552245 -4.975216715522504 -0.49999999999998923
  endloop
endfacet
facet normal 2.9798611045023033e-16 -1.8519601215887624e-16 1.0
  outer loop
    vertex -16.725216715522464 4.9752167155224924 -0.49999999999998357
    vertex -16.72521671552245 -4.975216715522504 -0.49999999999998923
    vertex -15.823808810525142 5.66689132820451 -0.4999999999999864
  endloop
endfacet
facet normal 2.9798611045023033e-16 -1.8519601215887624e-16 1.0
  outer loop
    vertex -15.823808810525142 5.66689132820451 -0.4999999999999864
    vertex -16.72521671552245 -4.975216715522504 -0.49999999999998923
    vertex -15.82380881052512 -5.666891328204513 -0.49999999999998923
  endloop
endfacet
facet normal 2.9798611045023033e-16 -1.8519601215887624e-16 1.0
  outer loop
    vertex -15.823808810525142 5.66689132820451 -0.4999999999999864
    vertex -15.82380881052512 -5.666891328204513 -0.49999999999998923
    vertex -14.774097072291095 6.101696166763294 -0.4999999999999864
  endloop
endfacet
facet normal 2.9798611045023033e-16 -1.8519601215887624e-16 1.0
  outer loop
    vertex -14.774097072291095 6.101696166763294 -0.4999999999999864
    vertex -15.82380881052512 -5.666891328204513 -0.49999999999998923
    vertex -14.774097072291118 -6.101696166763297 -0.49999999999998923
  endloop
endfacet
facet normal 2.9798611045023033e-16 -1.8519601215887624e-16 1.0
  outer loop
    vertex -14.774097072291095 6.101696166763294 -0.4999999999999864
    vertex -14.774097072291118 -6.101696166763297 -0.49999999999998923
    vertex -14.277171890078742 -2.8199664825478975e-15 -0.5000000000000004
  endloop
endfacet
facet normal 2.9798611045023033e-16 -1.8519601215887624e-16 1.0
  outer loop
    vertex -14.277171890078742 -2.8199664825478975e-15 -0.5000000000000004
    vertex -14.774097072291118 -6.101696166763297 -0.49999999999998923
    vertex -13.64761762105029 -6.250000000000025 -0.49999999999998923
  endloop
endfacet
facet normal 2.9798611045023033e-16 -1.8519601215887624e-16 1.0
  outer loop
    vertex -14.277171890078742 -2.8199664825478975e-15 -0.5000000000000004
    vertex -13.64761762105029 -6.250000000000025 -0.49999999999998923
    vertex -14.205616125285811 -0.5435199947153018 -0.5000000000000004
  endloop
endfacet
facet normal 2.9798611045023033e-16 -1.8519601215887624e-16 1.0
  outer loop
    vertex -14.205616125285811 -0.5435199947153018 -0.5000000000000004
    vertex -13.64761762105029 -6.250000000000025 -0.49999999999998923
    vertex -13.995825238026093 -1.050000000000001 -0.5000000000000004
  endloop
endfacet
facet normal 2.9798611045023033e-16 -1.8519601215887624e-16 1.0
  outer loop
    vertex -13.995825238026093 -1.050000000000001 -0.5000000000000004
    vertex -13.64761762105029 -6.250000000000025 -0.49999999999998923
    vertex -13.66209613057049 -1.4849242404917529 -0.5000000000000004
  endloop
endfacet
facet normal 2.9798611045023033e-16 -1.8519601215887624e-16 1.0
  outer loop
    vertex -13.66209613057049 -1.4849242404917529 -0.5000000000000004
    vertex -13.64761762105029 -6.250000000000025 -0.49999999999998923
    vertex -13.227171890078756 -1.8186533479473268 -0.5000000000000004
  endloop
endfacet
facet normal 2.9798611045023033e-16 -1.8519601215887624e-16 1.0
  outer loop
    vertex -13.227171890078756 -1.8186533479473268 -0.5000000000000004
    vertex -13.64761762105029 -6.250000000000025 -0.49999999999998923
    vertex -12.720691884794045 -2.028444235207046 -0.5000000000000004
  endloop
endfacet
facet normal 2.9798611045023033e-16 -1.8519601215887624e-16 1.0
  outer loop
    vertex -12.720691884794045 -2.028444235207046 -0.5000000000000004
    vertex -13.64761762105029 -6.250000000000025 -0.49999999999998923
    vertex 7.858729679204435 -6.250000000000025 -0.49999999999999484
  endloop
endfacet
facet normal 2.9798611045023033e-16 -1.8519601215887624e-16 1.0
  outer loop
    vertex -12.720691884794045 -2.028444235207046 -0.5000000000000004
    vertex 7.858729679204435 -6.250000000000025 -0.49999999999999484
    vertex -12.177171890078768 -2.0999999999999988 -0.5000000000000004
  endloop
endfacet
facet normal 2.9798611045023033e-16 -1.8519601215887624e-16 1.0
  outer loop
    vertex -12.177171890078768 -2.0999999999999988 -0.5000000000000004
    vertex 7.858729679204435 -6.250000000000025 -0.49999999999999484
    vertex -0.5315156702363149 -2.0999999999999988 -0.5000000000000004
  endloop
endfacet
facet normal 2.9798611045023033e-16 -1.8519601215887624e-16 1.0
  outer loop
    vertex -0.5315156702363149 -2.0999999999999988 -0.5000000000000004
    vertex 7.858729679204435 -6.250000000000025 -0.49999999999999484
    vertex 0.012004324478984118 -2.028444235207046 -0.5000000000000004
  endloop
endfacet
facet normal 2.9798611045023033e-16 -1.8519601215887624e-16 1.0
  outer loop
    vertex 0.012004324478984118 -2.028444235207046 -0.5000000000000004
    vertex 7.858729679204435 -6.250000000000025 -0.49999999999999484
    vertex 0.5184843297636945 -1.8186533479473268 -0.5000000000000004
  endloop
endfacet
facet normal 2.9798611045023033e-16 -1.8519601215887624e-16 1.0
  outer loop
    vertex 0.5184843297636945 -1.8186533479473268 -0.5000000000000004
    vertex 7.858729679204435 -6.250000000000025 -0.49999999999999484
    vertex 0.9534085702554297 -1.4849242404917529 -0.5000000000000004
  endloop
endfacet
facet normal 2.9798611045023033e-16 -1.8519601215887624e-16 1.0
  outer loop
    vertex 0.9534085702554297 -1.4849242404917529 -0.5000000000000004
    vertex 7.858729679204435 -6.250000000000025 -0.49999999999999484
    vertex 1.287137677711009 -1.050000000000001 -0.5000000000000004
  endloop
endfacet
facet normal 2.9798611045023033e-16 -1.8519601215887624e-16 1.0
  outer loop
    vertex 1.287137677711009 -1.050000000000001 -0.5000000000000004
    vertex 7.858729679204435 -6.250000000000025 -0.49999999999999484
    vertex 1.4969285649707287 -0.5435199947152961 -0.5000000000000004
  endloop
endfacet
facet normal 2.9798611045023033e-16 -1.8519601215887624e-16 1.0
  outer loop
    vertex 1.4969285649707287 -0.5435199947152961 -0.5000000000000004
    vertex 7.858729679204435 -6.250000000000025 -0.49999999999999484
    vertex 1.5684843297636812 -2.8199664825478975e-15 -0.5000000000000004
  endloop
endfacet
facet normal 2.9798611045023033e-16 -1.8519601215887624e-16 1.0
  outer loop
    vertex -14.277171890078742 -2.8199664825478975e-15 -0.5000000000000004
    vertex -13.64761762105029 6.250000000000022 -0.499999999999992
    vertex -14.774097072291095 6.101696166763294 -0.4999999999999864
  endloop
endfacet
facet normal 2.9798611045023033e-16 -1.8519601215887624e-16 1.0
  outer loop
    vertex -13.64761762105029 6.250000000000022 -0.499999999999992
    vertex -14.277171890078742 -2.8199664825478975e-15 -0.5000000000000004
    vertex -14.205616125285811 0.5435199947152904 -0.5000000000000004
  endloop
endfacet
facet normal 2.9798611045023033e-16 -1.8519601215887624e-16 1.0
  outer loop
    vertex -13.64761762105029 6.250000000000022 -0.499999999999992
    vertex -14.205616125285811 0.5435199947152904 -0.5000000000000004
    vertex -13.995825238026093 1.0499999999999952 -0.5000000000000004
  endloop
endfacet
facet normal 2.9798611045023033e-16 -1.8519601215887624e-16 1.0
  outer loop
    vertex -13.64761762105029 6.250000000000022 -0.499999999999992
    vertex -13.995825238026093 1.0499999999999952 -0.5000000000000004
    vertex -13.66209613057049 1.4849242404917473 -0.5000000000000004
  endloop
endfacet
facet normal 2.9798611045023033e-16 -1.8519601215887624e-16 1.0
  outer loop
    vertex -13.64761762105029 6.250000000000022 -0.499999999999992
    vertex -13.66209613057049 1.4849242404917473 -0.5000000000000004
    vertex -13.227171890078756 1.8186533479473155 -0.5000000000000004
  endloop
endfacet
facet normal 2.9798611045023033e-16 -1.8519601215887624e-16 1.0
  outer loop
    vertex -13.64761762105029 6.250000000000022 -0.499999999999992
    vertex -13.227171890078756 1.8186533479473155 -0.5000000000000004
    vertex -12.720691884794045 2.0284442352070404 -0.5000000000000004
  endloop
endfacet
facet normal 2.9798611045023033e-16 -1.8519601215887624e-16 1.0
  outer loop
    vertex -13.64761762105029 6.250000000000022 -0.499999999999992
    vertex -12.720691884794045 2.0284442352070404 -0.5000000000000004
    vertex 7.858729679204435 6.2500000000000195 -0.49999999999999484
  endloop
endfacet
facet normal 2.9798611045023033e-16 -1.8519601215887624e-16 1.0
  outer loop
    vertex 7.858729679204435 6.2500000000000195 -0.49999999999999484
    vertex -12.720691884794045 2.0284442352070404 -0.5000000000000004
    vertex -12.521138169809484 2.0459214542870505 -0.49999999999998923
  endloop
endfacet
facet normal 2.9798611045023033e-16 -1.8519601215887624e-16 1.0
  outer loop
    vertex 7.858729679204435 6.2500000000000195 -0.49999999999999484
    vertex -12.521138169809484 2.0459214542870505 -0.49999999999998923
    vertex -12.177171890078768 2.0999999999999934 -0.5000000000000004
  endloop
endfacet
facet normal 2.9798611045023033e-16 -1.8519601215887624e-16 1.0
  outer loop
    vertex 7.858729679204435 6.2500000000000195 -0.49999999999999484
    vertex -12.177171890078768 2.0999999999999934 -0.5000000000000004
    vertex -0.5315156702363149 2.0999999999999934 -0.5000000000000004
  endloop
endfacet
facet normal 2.9798611045023033e-16 -1.8519601215887624e-16 1.0
  outer loop
    vertex 7.858729679204435 6.2500000000000195 -0.49999999999999484
    vertex -0.5315156702363149 2.0999999999999934 -0.5000000000000004
    vertex 0.012004324478984118 2.0284442352070404 -0.5000000000000004
  endloop
endfacet
facet normal 2.9798611045023033e-16 -1.8519601215887624e-16 1.0
  outer loop
    vertex 7.858729679204435 6.2500000000000195 -0.49999999999999484
    vertex 0.012004324478984118 2.0284442352070404 -0.5000000000000004
    vertex 0.5184843297636945 1.818653347947321 -0.5000000000000004
  endloop
endfacet
facet normal 2.9798611045023033e-16 -1.8519601215887624e-16 1.0
  outer loop
    vertex 7.858729679204435 6.2500000000000195 -0.49999999999999484
    vertex 0.5184843297636945 1.818653347947321 -0.5000000000000004
    vertex 0.9534085702554297 1.4849242404917473 -0.5000000000000004
  endloop
endfacet
facet normal 2.9798611045023033e-16 -1.8519601215887624e-16 1.0
  outer loop
    vertex 7.858729679204435 6.2500000000000195 -0.49999999999999484
    vertex 0.9534085702554297 1.4849242404917473 -0.5000000000000004
    vertex 1.287137677711009 1.0499999999999952 -0.5000000000000004
  endloop
endfacet
facet normal 2.9798611045023033e-16 -1.8519601215887624e-16 1.0
  outer loop
    vertex 7.858729679204435 6.2500000000000195 -0.49999999999999484
    vertex 1.287137677711009 1.0499999999999952 -0.5000000000000004
    vertex 1.4969285649707287 0.5435199947152904 -0.5000000000000004
  endloop
endfacet
facet normal 2.9798611045023033e-16 -1.8519601215887624e-16 1.0
  outer loop
    vertex 7.858729679204435 6.2500000000000195 -0.49999999999999484
    vertex 1.4969285649707287 0.5435199947152904 -0.5000000000000004
    vertex 1.5684843297636812 -2.8199664825478975e-15 -0.5000000000000004
  endloop
endfacet
facet normal 2.9798611045023033e-16 -1.8519601215887624e-16 1.0
  outer loop
    vertex 7.858729679204435 6.2500000000000195 -0.49999999999999484
    vertex 1.5684843297636812 -2.8199664825478975e-15 -0.5000000000000004
    vertex 7.858729679204435 -6.250000000000025 -0.49999999999999484
  endloop
endfacet
facet normal -0.38268343236508295 -0.9238795325112897 -1.6636325582334023e-16
  outer loop
    vertex 0.5184843297636945 1.818653347947321 -0.5000000000000004
    vertex 0.012004324478984118 2.0284442352070404 -4.499999999999999
    vertex 0.5184843297636945 1.818653347947321 -4.499999999999999
  endloop
endfacet
facet normal -0.38268343236508295 -0.9238795325112897 -1.6636325582334023e-16
  outer loop
    vertex 0.012004324478984118 2.0284442352070404 -4.499999999999999
    vertex 0.5184843297636945 1.818653347947321 -0.5000000000000004
    vertex 0.012004324478984118 2.0284442352070404 -0.5000000000000004
  endloop
endfacet
facet normal -0.6087614290087214 0.7933533402912345 4.656447592065719e-16
  outer loop
    vertex -16.725216715522464 4.9752167155224924 -0.49999999999998357
    vertex -15.823808810525142 5.666891328204514 -4.499999999999986
    vertex -16.725216715522464 4.975216715522495 -4.499999999999986
  endloop
endfacet
facet normal -0.6087614290087214 0.7933533402912345 4.656447592065719e-16
  outer loop
    vertex -15.823808810525142 5.666891328204514 -4.499999999999986
    vertex -16.725216715522464 4.9752167155224924 -0.49999999999998357
    vertex -15.823808810525142 5.66689132820451 -0.4999999999999864
  endloop
endfacet
facet normal -0.13052619222004339 -0.9914448613738115 -2.7499691952116626e-16
  outer loop
    vertex 0.012004324478984118 2.0284442352070404 -0.5000000000000004
    vertex -0.5315156702363149 2.0999999999999934 -4.499999999999999
    vertex 0.012004324478984118 2.0284442352070404 -4.499999999999999
  endloop
endfacet
facet normal -0.13052619222004339 -0.9914448613738115 -2.7499691952116626e-16
  outer loop
    vertex -0.5315156702363149 2.0999999999999934 -4.499999999999999
    vertex 0.012004324478984118 2.0284442352070404 -0.5000000000000004
    vertex -0.5315156702363149 2.0999999999999934 -0.5000000000000004
  endloop
endfacet
facet normal -0.1305261922200512 0.9914448613738105 3.6488999760751873e-16
  outer loop
    vertex -14.774097072291095 6.101696166763294 -4.499999999999988
    vertex -13.64761762105029 6.250000000000022 -0.499999999999992
    vertex -13.64761762105029 6.250000000000025 -4.499999999999992
  endloop
endfacet
facet normal -0.1305261922200512 0.9914448613738105 3.6488999760751873e-16
  outer loop
    vertex -13.64761762105029 6.250000000000022 -0.499999999999992
    vertex -14.774097072291095 6.101696166763294 -4.499999999999988
    vertex -14.774097072291095 6.101696166763294 -0.4999999999999864
  endloop
endfacet
facet normal -0.6087614290087364 -0.7933533402912232 -4.6392211169420284e-17
  outer loop
    vertex 0.9534085702554297 1.4849242404917473 -0.5000000000000004
    vertex 0.5184843297636945 1.818653347947321 -4.499999999999999
    vertex 0.9534085702554297 1.4849242404917473 -4.499999999999999
  endloop
endfacet
facet normal -0.6087614290087364 -0.7933533402912232 -4.6392211169420284e-17
  outer loop
    vertex 0.5184843297636945 1.818653347947321 -4.499999999999999
    vertex 0.9534085702554297 1.4849242404917473 -0.5000000000000004
    vertex 0.5184843297636945 1.818653347947321 -0.5000000000000004
  endloop
endfacet
endsolid suport_fsr_bed__top_v2_x3
