solid testPerfil
facet normal 1.5874745837133308e-09 -1.2143543273239259e-10 -1.0
  outer loop
    vertex -4.9999982509441905 25.000000003480153 9.683215698751357e-08
    vertex 1.047287747546477e-06 20.00000000752935 6.395993050745119e-08
    vertex 0.0 12.538220750726417 1.490415453275773e-08
  endloop
endfacet
facet normal 1.5874745837133308e-09 -1.2143543273239259e-10 -1.0
  outer loop
    vertex 1.047287747546477e-06 20.00000000752935 6.395993050745119e-08
    vertex -4.9999982509441905 25.000000003480153 9.683215698751357e-08
    vertex 25.000000020878737 25.000000027775357 3.1084263739631754e-08
  endloop
endfacet
facet normal 1.5874745837133308e-09 -1.2143543273239259e-10 -1.0
  outer loop
    vertex 1.047287747546477e-06 20.00000000752935 6.395993050745119e-08
    vertex 25.000000020878737 25.000000027775357 3.1084263739631754e-08
    vertex 20.000000012501822 20.00000002372616 6.395649014834248e-08
  endloop
endfacet
facet normal 1.5874745837133308e-09 -1.2143543273239259e-10 -1.0
  outer loop
    vertex 20.000000012501822 20.00000002372616 6.395649014834248e-08
    vertex 25.000000020878737 25.000000027775357 3.1084263739631754e-08
    vertex 20.000000025003175 7.461779296724648 1.490072545351495e-08
  endloop
endfacet
facet normal 1.5874745837133308e-09 -1.2143543273239259e-10 -1.0
  outer loop
    vertex 20.000000025003175 7.461779296724648 1.490072545351495e-08
    vertex 25.000000020878737 25.000000027775357 3.1084263739631754e-08
    vertex 20.000004294254456 0.0 6.395650142820841e-08
  endloop
endfacet
facet normal 1.5874745837133308e-09 -1.2143543273239259e-10 -1.0
  outer loop
    vertex -4.9999982509441905 25.000000003480153 9.683215698751357e-08
    vertex -4.999999995875391 -4.999999970343881 3.108943555802116e-08
    vertex -5.000000082019965 11.147311735237201 4.067236186312001e-07
  endloop
endfacet
facet normal 1.5874745837133308e-09 -1.2143543273239259e-10 -1.0
  outer loop
    vertex -4.999999995875391 -4.999999970343881 3.108943555802116e-08
    vertex -4.9999982509441905 25.000000003480153 9.683215698751357e-08
    vertex 1.250203940372785e-08 2.372489689150825e-08 6.395994178731712e-08
  endloop
endfacet
facet normal 1.5874745837133308e-09 -1.2143543273239259e-10 -1.0
  outer loop
    vertex -4.999999995875391 -4.999999970343881 3.108943555802116e-08
    vertex 1.250203940372785e-08 2.372489689150825e-08 6.395994178731712e-08
    vertex 25.000007155001423 -5.000000005931226 9.682700755298903e-08
  endloop
endfacet
facet normal 1.5874745837133308e-09 -1.2143543273239259e-10 -1.0
  outer loop
    vertex 1.250203940372785e-08 2.372489689150825e-08 6.395994178731712e-08
    vertex -4.9999982509441905 25.000000003480153 9.683215698751357e-08
    vertex 0.0 12.538220750726417 1.490415453275773e-08
  endloop
endfacet
facet normal 1.5874745837133308e-09 -1.2143543273239259e-10 -1.0
  outer loop
    vertex 25.000007155001423 -5.000000005931226 9.682700755298903e-08
    vertex 1.250203940372785e-08 2.372489689150825e-08 6.395994178731712e-08
    vertex 20.000004294254456 0.0 6.395650142820841e-08
  endloop
endfacet
facet normal 1.5874745837133308e-09 -1.2143543273239259e-10 -1.0
  outer loop
    vertex 25.000007155001423 -5.000000005931226 9.682700755298903e-08
    vertex 20.000004294254456 0.0 6.395650142820841e-08
    vertex 25.000000020878737 25.000000027775357 3.1084263739631754e-08
  endloop
endfacet
facet normal 1.5874745837133308e-09 -1.2143543273239259e-10 -1.0
  outer loop
    vertex 20.000000000000483 12.53822075072644 1.1301226612303593e-07
    vertex 19.00000002152452 7.6951126151490135 0.0
    vertex 18.99999995397238 12.228445948481294 1.624300693947589e-12
  endloop
endfacet
facet normal 1.5874745837133308e-09 -1.2143543273239259e-10 -1.0
  outer loop
    vertex 19.00000002152452 7.6951126151490135 0.0
    vertex 20.000000000000483 12.53822075072644 1.1301226612303593e-07
    vertex 20.000000025003175 7.461779296724648 1.490072545351495e-08
  endloop
endfacet
facet normal 1.5874745837133308e-09 -1.2143543273239259e-10 -1.0
  outer loop
    vertex 20.000000025003175 7.461779296724648 1.490072545351495e-08
    vertex 20.000000000000483 12.53822075072644 1.1301226612303593e-07
    vertex 20.000000012501822 20.00000002372616 6.395649014834248e-08
  endloop
endfacet
facet normal 1.5874745837133308e-09 -1.2143543273239259e-10 -1.0
  outer loop
    vertex 0.0 12.538220750726417 1.490415453275773e-08
    vertex 2.500414648665128e-08 7.461779296724625 1.1301571776201058e-07
    vertex 1.250203940372785e-08 2.372489689150825e-08 6.395994178731712e-08
  endloop
endfacet
facet normal 1.5874745837133308e-09 -1.2143543273239259e-10 -1.0
  outer loop
    vertex 2.500414648665128e-08 7.461779296724625 1.1301571776201058e-07
    vertex 0.0 12.538220750726417 1.490415453275773e-08
    vertex 1.0000000034793857 12.304887432302074 2.980500406479791e-08
  endloop
endfacet
facet normal 1.5874745837133308e-09 -1.2143543273239259e-10 -1.0
  outer loop
    vertex 2.500414648665128e-08 7.461779296724625 1.1301571776201058e-07
    vertex 1.0000000034793857 12.304887432302074 2.980500406479791e-08
    vertex 1.0000000710315249 7.771554098969772 2.980662836549186e-08
  endloop
endfacet
facet normal -1.5874745837133308e-09 1.2143543273239259e-10 1.0
  outer loop
    vertex -1.5874745837133312e-08 12.538220751940768 10.000000014904153
    vertex 9.129400649517967e-09 7.4617792979389765 10.000000113015716
    vertex 0.9999999876046398 12.304887433516425 10.000000029805003
  endloop
endfacet
facet normal -1.5874745837133308e-09 1.2143543273239259e-10 1.0
  outer loop
    vertex 9.129400649517967e-09 7.4617792979389765 10.000000113015716
    vertex -1.5874745837133312e-08 12.538220751940768 10.000000014904153
    vertex -3.372706433405459e-09 2.4939251218832163e-08 10.00000006395994
  endloop
endfacet
facet normal -1.5874745837133308e-09 1.2143543273239259e-10 1.0
  outer loop
    vertex 0.9999999876046398 12.304887433516425 10.000000029805003
    vertex 9.129400649517967e-09 7.4617792979389765 10.000000113015716
    vertex 1.000000055156779 7.771554100184123 10.000000029806627
  endloop
endfacet
facet normal -1.5874745837133308e-09 1.2143543273239259e-10 1.0
  outer loop
    vertex 19.000000005649774 7.695112616363365 9.999999999999998
    vertex 19.999999984125736 12.538220751940791 10.000000113012264
    vertex 18.999999938097634 12.228445949695644 10.000000000001624
  endloop
endfacet
facet normal -1.5874745837133308e-09 1.2143543273239259e-10 1.0
  outer loop
    vertex 19.999999984125736 12.538220751940791 10.000000113012264
    vertex 19.000000005649774 7.695112616363365 9.999999999999998
    vertex 20.000000009128428 7.461779297938999 10.000000014900724
  endloop
endfacet
facet normal -1.5874745837133308e-09 1.2143543273239259e-10 1.0
  outer loop
    vertex 19.999999984125736 12.538220751940791 10.000000113012264
    vertex 20.000000009128428 7.461779297938999 10.000000014900724
    vertex 19.999999996627075 20.000000024940515 10.000000063956488
  endloop
endfacet
facet normal -1.5874745837133308e-09 1.2143543273239259e-10 1.0
  outer loop
    vertex -5.000000011750138 -4.999999969129526 10.000000031089433
    vertex -4.999998266818937 25.000000004694513 10.000000096832157
    vertex -5.000000097894712 11.147311736451552 10.000000406723617
  endloop
endfacet
facet normal -1.5874745837133308e-09 1.2143543273239259e-10 1.0
  outer loop
    vertex -4.999998266818937 25.000000004694513 10.000000096832157
    vertex -5.000000011750138 -4.999999969129526 10.000000031089433
    vertex -3.372706433405459e-09 2.4939251218832163e-08 10.00000006395994
  endloop
endfacet
facet normal -1.5874745837133308e-09 1.2143543273239259e-10 1.0
  outer loop
    vertex -3.372706433405459e-09 2.4939251218832163e-08 10.00000006395994
    vertex -5.000000011750138 -4.999999969129526 10.000000031089433
    vertex 25.000007139126676 -5.000000004716872 10.000000096827007
  endloop
endfacet
facet normal -1.5874745837133308e-09 1.2143543273239259e-10 1.0
  outer loop
    vertex -4.999998266818937 25.000000004694513 10.000000096832157
    vertex -3.372706433405459e-09 2.4939251218832163e-08 10.00000006395994
    vertex -1.5874745837133312e-08 12.538220751940768 10.000000014904153
  endloop
endfacet
facet normal -1.5874745837133308e-09 1.2143543273239259e-10 1.0
  outer loop
    vertex -3.372706433405459e-09 2.4939251218832163e-08 10.00000006395994
    vertex 25.000007139126676 -5.000000004716872 10.000000096827007
    vertex 20.000004278379706 1.2143543273239257e-09 10.0000000639565
  endloop
endfacet
facet normal -1.5874745837133308e-09 1.2143543273239259e-10 1.0
  outer loop
    vertex 20.000004278379706 1.2143543273239257e-09 10.0000000639565
    vertex 25.000007139126676 -5.000000004716872 10.000000096827007
    vertex 25.00000000500399 25.000000028989717 10.000000031084262
  endloop
endfacet
facet normal -1.5874745837133308e-09 1.2143543273239259e-10 1.0
  outer loop
    vertex -4.999998266818937 25.000000004694513 10.000000096832157
    vertex 1.0314130017093437e-06 20.00000000874371 10.000000063959929
    vertex 25.00000000500399 25.000000028989717 10.000000031084262
  endloop
endfacet
facet normal -1.5874745837133308e-09 1.2143543273239259e-10 1.0
  outer loop
    vertex 1.0314130017093437e-06 20.00000000874371 10.000000063959929
    vertex -4.999998266818937 25.000000004694513 10.000000096832157
    vertex -1.5874745837133312e-08 12.538220751940768 10.000000014904153
  endloop
endfacet
facet normal -1.5874745837133308e-09 1.2143543273239259e-10 1.0
  outer loop
    vertex 25.00000000500399 25.000000028989717 10.000000031084262
    vertex 1.0314130017093437e-06 20.00000000874371 10.000000063959929
    vertex 19.999999996627075 20.000000024940515 10.000000063956488
  endloop
endfacet
facet normal -1.5874745837133308e-09 1.2143543273239259e-10 1.0
  outer loop
    vertex 25.00000000500399 25.000000028989717 10.000000031084262
    vertex 19.999999996627075 20.000000024940515 10.000000063956488
    vertex 20.000000009128428 7.461779297938999 10.000000014900724
  endloop
endfacet
facet normal -1.5874745837133308e-09 1.2143543273239259e-10 1.0
  outer loop
    vertex 25.00000000500399 25.000000028989717 10.000000031084262
    vertex 20.000000009128428 7.461779297938999 10.000000014900724
    vertex 20.000004278379706 1.2143543273239257e-09 10.0000000639565
  endloop
endfacet
facet normal -8.098401833501206e-10 1.0 -1.214354340179933e-10
  outer loop
    vertex -4.9999982509441905 25.000000003480153 9.683215698751357e-08
    vertex 25.00000000500399 25.000000028989717 10.000000031084262
    vertex 25.000000020878737 25.000000027775357 3.1084263739631754e-08
  endloop
endfacet
facet normal -8.098401833501206e-10 1.0 -1.214354340179933e-10
  outer loop
    vertex 25.00000000500399 25.000000028989717 10.000000031084262
    vertex -4.9999982509441905 25.000000003480153 9.683215698751357e-08
    vertex -4.999998266818937 25.000000004694513 10.000000096832157
  endloop
endfacet
facet normal 0.9999999999999736 2.3059558175322532e-07 1.587547618306612e-09
  outer loop
    vertex 25.000000020878737 25.000000027775357 3.1084263739631754e-08
    vertex 25.000007139126676 -5.000000004716872 10.000000096827007
    vertex 25.000007155001423 -5.000000005931226 9.682700755298903e-08
  endloop
endfacet
facet normal 0.9999999999999736 2.3059558175322532e-07 1.587547618306612e-09
  outer loop
    vertex 25.000007139126676 -5.000000004716872 10.000000096827007
    vertex 25.000000020878737 25.000000027775357 3.1084263739631754e-08
    vertex 25.00000000500399 25.000000028989717 10.000000031084262
  endloop
endfacet
facet normal -1.1862445855849324e-09 -1.0 1.21435439264044e-10
  outer loop
    vertex 25.000007155001423 -5.000000005931226 9.682700755298903e-08
    vertex 10.520229856157549 -4.99999998838326 3.0584891539430408
    vertex 10.000003575610206 -4.999999987774462 2.9900000639582216
  endloop
endfacet
facet normal -1.1862445855849324e-09 -1.0 1.21435439264044e-10
  outer loop
    vertex 10.520229856157549 -4.99999998838326 3.0584891539430408
    vertex 25.000007155001423 -5.000000005931226 9.682700755298903e-08
    vertex 11.005003575182718 -4.999999988933936 3.2592890039469125
  endloop
endfacet
facet normal -1.1862445855849324e-09 -1.0 1.21435439264044e-10
  outer loop
    vertex 11.005003575182718 -4.999999988933936 3.2592890039469125
    vertex 25.000007155001423 -5.000000005931226 9.682700755298903e-08
    vertex 25.000007139126676 -5.000000004716872 10.000000096827007
  endloop
endfacet
facet normal -1.1862445855849324e-09 -1.0 1.21435439264044e-10
  outer loop
    vertex 11.005003575182718 -4.999999988933936 3.2592890039469125
    vertex 25.000007139126676 -5.000000004716872 10.000000096827007
    vertex 11.421288204860595 -4.999999989388963 3.5787154360295146
  endloop
endfacet
facet normal -1.1862445855849324e-09 -1.0 1.21435439264044e-10
  outer loop
    vertex 11.421288204860595 -4.999999989388963 3.5787154360295146
    vertex 25.000007139126676 -5.000000004716872 10.000000096827007
    vertex 11.740714635621515 -4.999999989717328 3.9950000667215573
  endloop
endfacet
facet normal -1.1862445855849324e-09 -1.0 1.21435439264044e-10
  outer loop
    vertex 11.740714635621515 -4.999999989717328 3.9950000667215573
    vertex 25.000007139126676 -5.000000004716872 10.000000096827007
    vertex 11.941514484086255 -4.999999989896657 4.479773786384255
  endloop
endfacet
facet normal -1.1862445855849324e-09 -1.0 1.21435439264044e-10
  outer loop
    vertex 11.941514484086255 -4.999999989896657 4.479773786384255
    vertex 25.000007139126676 -5.000000004716872 10.000000096827007
    vertex 12.010003572419382 -4.999999989914729 5.000000067149046
  endloop
endfacet
facet normal -1.1862445855849324e-09 -1.0 1.21435439264044e-10
  outer loop
    vertex 12.010003572419382 -4.999999989914729 5.000000067149046
    vertex 25.000007139126676 -5.000000004716872 10.000000096827007
    vertex 11.941514482434561 -4.99999998977031 5.520226347696388
  endloop
endfacet
facet normal -1.1862445855849324e-09 -1.0 1.21435439264044e-10
  outer loop
    vertex 11.941514482434561 -4.99999998977031 5.520226347696388
    vertex 25.000007139126676 -5.000000004716872 10.000000096827007
    vertex 11.740714632430691 -4.999999989473244 6.005000066721557
  endloop
endfacet
facet normal -1.1862445855849324e-09 -1.0 1.21435439264044e-10
  outer loop
    vertex 11.740714632430691 -4.999999989473244 6.005000066721557
    vertex 25.000007139126676 -5.000000004716872 10.000000096827007
    vertex 11.421288200348089 -4.999999989043774 6.421284696399435
  endloop
endfacet
facet normal -1.1862445855849324e-09 -1.0 1.21435439264044e-10
  outer loop
    vertex 11.421288200348089 -4.999999989043774 6.421284696399435
    vertex 25.000007139126676 -5.000000004716872 10.000000096827007
    vertex 11.005003569656045 -4.999999988511169 6.740711127160355
  endloop
endfacet
facet normal -1.1862445855849324e-09 -1.0 1.21435439264044e-10
  outer loop
    vertex 11.005003569656045 -4.999999988511169 6.740711127160355
    vertex 25.000007139126676 -5.000000004716872 10.000000096827007
    vertex 10.520229849993349 -4.999999987911725 6.9415109756250954
  endloop
endfacet
facet normal -1.1862445855849324e-09 -1.0 1.21435439264044e-10
  outer loop
    vertex 10.520229849993349 -4.999999987911725 6.9415109756250954
    vertex 25.000007139126676 -5.000000004716872 10.000000096827007
    vertex 10.000003569228557 -4.999999987286292 7.010000063958222
  endloop
endfacet
facet normal -1.1862445855849324e-09 -1.0 1.21435439264044e-10
  outer loop
    vertex 10.000003569228557 -4.999999987286292 7.010000063958222
    vertex 25.000007139126676 -5.000000004716872 10.000000096827007
    vertex -5.000000011750138 -4.999999969129526 10.000000031089433
  endloop
endfacet
facet normal -1.1862445855849324e-09 -1.0 1.21435439264044e-10
  outer loop
    vertex -4.999999995875391 -4.999999970343881 3.108943555802116e-08
    vertex 8.995003575182716 -4.999999986549585 3.259289000756087
    vertex -5.000000011750138 -4.999999969129526 10.000000031089433
  endloop
endfacet
facet normal -1.1862445855849324e-09 -1.0 1.21435439264044e-10
  outer loop
    vertex 8.995003575182716 -4.999999986549585 3.259289000756087
    vertex -4.999999995875391 -4.999999970343881 3.108943555802116e-08
    vertex 9.479777294845416 -4.999999987149029 3.058489152291348
  endloop
endfacet
facet normal -1.1862445855849324e-09 -1.0 1.21435439264044e-10
  outer loop
    vertex 9.479777294845416 -4.999999987149029 3.058489152291348
    vertex -4.999999995875391 -4.999999970343881 3.108943555802116e-08
    vertex 25.000007155001423 -5.000000005931226 9.682700755298903e-08
  endloop
endfacet
facet normal -1.1862445855849324e-09 -1.0 1.21435439264044e-10
  outer loop
    vertex 9.479777294845416 -4.999999987149029 3.058489152291348
    vertex 25.000007155001423 -5.000000005931226 9.682700755298903e-08
    vertex 10.000003575610206 -4.999999987774462 2.9900000639582216
  endloop
endfacet
facet normal -1.1862445855849324e-09 -1.0 1.21435439264044e-10
  outer loop
    vertex -5.000000011750138 -4.999999969129526 10.000000031089433
    vertex 8.995003575182716 -4.999999986549585 3.259289000756087
    vertex 8.578718944490674 -4.99999998601698 3.5787154315170064
  endloop
endfacet
facet normal -1.1862445855849324e-09 -1.0 1.21435439264044e-10
  outer loop
    vertex -5.000000011750138 -4.999999969129526 10.000000031089433
    vertex 8.578718944490674 -4.99999998601698 3.5787154315170064
    vertex 8.259292512408072 -4.99999998558751 3.995000061194886
  endloop
endfacet
facet normal -1.1862445855849324e-09 -1.0 1.21435439264044e-10
  outer loop
    vertex -5.000000011750138 -4.999999969129526 10.000000031089433
    vertex 8.259292512408072 -4.99999998558751 3.995000061194886
    vertex 8.0584926624042 -4.999999985290444 4.479773780220054
  endloop
endfacet
facet normal -1.1862445855849324e-09 -1.0 1.21435439264044e-10
  outer loop
    vertex -5.000000011750138 -4.999999969129526 10.000000031089433
    vertex 8.0584926624042 -4.999999985290444 4.479773780220054
    vertex 7.99000357241938 -4.999999985146025 5.0000000607673964
  endloop
endfacet
facet normal -1.1862445855849324e-09 -1.0 1.21435439264044e-10
  outer loop
    vertex -5.000000011750138 -4.999999969129526 10.000000031089433
    vertex 7.99000357241938 -4.999999985146025 5.0000000607673964
    vertex 8.058492660752506 -4.999999985164097 5.5202263415321875
  endloop
endfacet
facet normal -1.1862445855849324e-09 -1.0 1.21435439264044e-10
  outer loop
    vertex -5.000000011750138 -4.999999969129526 10.000000031089433
    vertex 8.058492660752506 -4.999999985164097 5.5202263415321875
    vertex 8.259292509217246 -4.999999985343425 6.0050000611948855
  endloop
endfacet
facet normal -1.1862445855849324e-09 -1.0 1.21435439264044e-10
  outer loop
    vertex -5.000000011750138 -4.999999969129526 10.000000031089433
    vertex 8.259292509217246 -4.999999985343425 6.0050000611948855
    vertex 8.578718939978167 -4.999999985671791 6.421284691886928
  endloop
endfacet
facet normal -1.1862445855849324e-09 -1.0 1.21435439264044e-10
  outer loop
    vertex -5.000000011750138 -4.999999969129526 10.000000031089433
    vertex 8.578718939978167 -4.999999985671791 6.421284691886928
    vertex 8.995003569656046 -4.999999986126817 6.740711123969531
  endloop
endfacet
facet normal -1.1862445855849324e-09 -1.0 1.21435439264044e-10
  outer loop
    vertex -5.000000011750138 -4.999999969129526 10.000000031089433
    vertex 8.995003569656046 -4.999999986126817 6.740711123969531
    vertex 9.479777288681213 -4.999999986677493 6.941510973973402
  endloop
endfacet
facet normal -1.1862445855849324e-09 -1.0 1.21435439264044e-10
  outer loop
    vertex -5.000000011750138 -4.999999969129526 10.000000031089433
    vertex 9.479777288681213 -4.999999986677493 6.941510973973402
    vertex 10.000003569228557 -4.999999987286292 7.010000063958222
  endloop
endfacet
facet normal -1.0 -5.334917376367772e-09 -1.5874745830654828e-09
  outer loop
    vertex -5.000000011750138 -4.999999969129526 10.000000031089433
    vertex -5.000000082019965 11.147311735237201 4.067236186312001e-07
    vertex -4.999999995875391 -4.999999970343881 3.108943555802116e-08
  endloop
endfacet
facet normal -1.0 -5.334917376367772e-09 -1.5874745830654828e-09
  outer loop
    vertex -5.000000082019965 11.147311735237201 4.067236186312001e-07
    vertex -5.000000011750138 -4.999999969129526 10.000000031089433
    vertex -5.000000097894712 11.147311736451552 10.000000406723617
  endloop
endfacet
facet normal -0.9999999999999913 1.321819807667815e-07 -1.5874745997648933e-09
  outer loop
    vertex -5.000000097894712 11.147311736451552 10.000000406723617
    vertex -4.9999982509441905 25.000000003480153 9.683215698751357e-08
    vertex -5.000000082019965 11.147311735237201 4.067236186312001e-07
  endloop
endfacet
facet normal -0.9999999999999913 1.321819807667815e-07 -1.5874745997648933e-09
  outer loop
    vertex -4.9999982509441905 25.000000003480153 9.683215698751357e-08
    vertex -5.000000097894712 11.147311736451552 10.000000406723617
    vertex -4.999998266818937 25.000000004694513 10.000000096832157
  endloop
endfacet
facet normal 1.0 -1.6754860608161921e-09 1.587474583916794e-09
  outer loop
    vertex 2.500414648665128e-08 7.461779296724625 1.1301571776201058e-07
    vertex -3.372706433405459e-09 2.4939251218832163e-08 10.00000006395994
    vertex 1.250203940372785e-08 2.372489689150825e-08 6.395994178731712e-08
  endloop
endfacet
facet normal 1.0 -1.6754860608161921e-09 1.587474583916794e-09
  outer loop
    vertex -3.372706433405459e-09 2.4939251218832163e-08 10.00000006395994
    vertex 2.500414648665128e-08 7.461779296724625 1.1301571776201058e-07
    vertex 9.129400649517967e-09 7.4617792979389765 10.000000113015716
  endloop
endfacet
facet normal 1.1862445906151093e-09 1.0 -1.214354308492586e-10
  outer loop
    vertex 1.250203940372785e-08 2.372489689150825e-08 6.395994178731712e-08
    vertex 9.479777300776632 1.2850968661437533e-08 3.0584891516841726
    vertex 10.000003581541423 1.2225539575139165e-08 2.990000063351046
  endloop
endfacet
facet normal 1.1862445906151093e-09 1.0 -1.214354308492586e-10
  outer loop
    vertex 9.479777300776632 1.2850968661437533e-08 3.0584891516841726
    vertex 1.250203940372785e-08 2.372489689150825e-08 6.395994178731712e-08
    vertex 8.995003581113934 1.3450414576565705e-08 3.259289000148912
  endloop
endfacet
facet normal 1.1862445906151093e-09 1.0 -1.214354308492586e-10
  outer loop
    vertex 8.995003581113934 1.3450414576565705e-08 3.259289000148912
    vertex 1.250203940372785e-08 2.372489689150825e-08 6.395994178731712e-08
    vertex -3.372706433405459e-09 2.4939251218832163e-08 10.00000006395994
  endloop
endfacet
facet normal 1.1862445906151093e-09 1.0 -1.214354308492586e-10
  outer loop
    vertex 8.995003581113934 1.3450414576565705e-08 3.259289000148912
    vertex -3.372706433405459e-09 2.4939251218832163e-08 10.00000006395994
    vertex 8.57871895042189 1.3983021646124526e-08 3.5787154309098312
  endloop
endfacet
facet normal 1.1862445906151093e-09 1.0 -1.214354308492586e-10
  outer loop
    vertex 8.57871895042189 1.3983021646124526e-08 3.5787154309098312
    vertex -3.372706433405459e-09 2.4939251218832163e-08 10.00000006395994
    vertex 8.259292518339288 1.4412491261550641e-08 3.9950000605877083
  endloop
endfacet
facet normal 1.1862445906151093e-09 1.0 -1.214354308492586e-10
  outer loop
    vertex 8.259292518339288 1.4412491261550641e-08 3.9950000605877083
    vertex -3.372706433405459e-09 2.4939251218832163e-08 10.00000006395994
    vertex 8.058492668335418 1.4709557810688166e-08 4.479773779612876
  endloop
endfacet
facet normal 1.1862445906151093e-09 1.0 -1.214354308492586e-10
  outer loop
    vertex 8.058492668335418 1.4709557810688166e-08 4.479773779612876
    vertex -3.372706433405459e-09 2.4939251218832163e-08 10.00000006395994
    vertex 7.990003578350597 1.4853973934192409e-08 5.000000060160219
  endloop
endfacet
facet normal 1.1862445906151093e-09 1.0 -1.214354308492586e-10
  outer loop
    vertex 7.990003578350597 1.4853973934192409e-08 5.000000060160219
    vertex -3.372706433405459e-09 2.4939251218832163e-08 10.00000006395994
    vertex 8.058492666683724 1.4835903588972242e-08 5.52022634092501
  endloop
endfacet
facet normal 1.1862445906151093e-09 1.0 -1.214354308492586e-10
  outer loop
    vertex 8.058492666683724 1.4835903588972242e-08 5.52022634092501
    vertex -3.372706433405459e-09 2.4939251218832163e-08 10.00000006395994
    vertex 8.259292515148465 1.4656576280414056e-08 6.005000060587707
  endloop
endfacet
facet normal 1.1862445906151093e-09 1.0 -1.214354308492586e-10
  outer loop
    vertex 8.259292515148465 1.4656576280414056e-08 6.005000060587707
    vertex -3.372706433405459e-09 2.4939251218832163e-08 10.00000006395994
    vertex 8.578718945909385 1.432820810332025e-08 6.421284691279751
  endloop
endfacet
facet normal 1.1862445906151093e-09 1.0 -1.214354308492586e-10
  outer loop
    vertex 8.578718945909385 1.432820810332025e-08 6.421284691279751
    vertex -3.372706433405459e-09 2.4939251218832163e-08 10.00000006395994
    vertex 8.995003575587262 1.3873183951629286e-08 6.7407111233623525
  endloop
endfacet
facet normal 1.1862445906151093e-09 1.0 -1.214354308492586e-10
  outer loop
    vertex 8.995003575587262 1.3873183951629286e-08 6.7407111233623525
    vertex -3.372706433405459e-09 2.4939251218832163e-08 10.00000006395994
    vertex 9.479777294612429 1.3322506536850297e-08 6.941510973366229
  endloop
endfacet
facet normal 1.1862445906151093e-09 1.0 -1.214354308492586e-10
  outer loop
    vertex 9.479777294612429 1.3322506536850297e-08 6.941510973366229
    vertex -3.372706433405459e-09 2.4939251218832163e-08 10.00000006395994
    vertex 10.000003575159774 1.2713709612865998e-08 7.010000063351048
  endloop
endfacet
facet normal 1.1862445906151093e-09 1.0 -1.214354308492586e-10
  outer loop
    vertex 10.000003575159774 1.2713709612865998e-08 7.010000063351048
    vertex -3.372706433405459e-09 2.4939251218832163e-08 10.00000006395994
    vertex 20.000004278379706 1.2143543273239257e-09 10.0000000639565
  endloop
endfacet
facet normal 1.1862445906151093e-09 1.0 -1.214354308492586e-10
  outer loop
    vertex 20.000004294254456 0.0 6.395650142820841e-08
    vertex 11.005003581113934 1.1066065236375877e-08 3.259289003339737
    vertex 20.000004278379706 1.2143543273239257e-09 10.0000000639565
  endloop
endfacet
facet normal 1.1862445906151093e-09 1.0 -1.214354308492586e-10
  outer loop
    vertex 11.005003581113934 1.1066065236375877e-08 3.259289003339737
    vertex 20.000004294254456 0.0 6.395650142820841e-08
    vertex 10.520229862088765 1.1616739831188382e-08 3.058489153335865
  endloop
endfacet
facet normal 1.1862445906151093e-09 1.0 -1.214354308492586e-10
  outer loop
    vertex 10.520229862088765 1.1616739831188382e-08 3.058489153335865
    vertex 20.000004294254456 0.0 6.395650142820841e-08
    vertex 1.250203940372785e-08 2.372489689150825e-08 6.395994178731712e-08
  endloop
endfacet
facet normal 1.1862445906151093e-09 1.0 -1.214354308492586e-10
  outer loop
    vertex 10.520229862088765 1.1616739831188382e-08 3.058489153335865
    vertex 1.250203940372785e-08 2.372489689150825e-08 6.395994178731712e-08
    vertex 10.000003581541423 1.2225539575139165e-08 2.990000063351046
  endloop
endfacet
facet normal 1.1862445906151093e-09 1.0 -1.214354308492586e-10
  outer loop
    vertex 20.000004278379706 1.2143543273239257e-09 10.0000000639565
    vertex 11.005003581113934 1.1066065236375877e-08 3.259289003339737
    vertex 11.421288210791813 1.0611035444751948e-08 3.5787154354223394
  endloop
endfacet
facet normal 1.1862445906151093e-09 1.0 -1.214354308492586e-10
  outer loop
    vertex 20.000004278379706 1.2143543273239257e-09 10.0000000639565
    vertex 11.421288210791813 1.0611035444751948e-08 3.5787154354223394
    vertex 11.740714641552733 1.0282672907591106e-08 3.9950000661143794
  endloop
endfacet
facet normal 1.1862445906151093e-09 1.0 -1.214354308492586e-10
  outer loop
    vertex 20.000004278379706 1.2143543273239257e-09 10.0000000639565
    vertex 11.740714641552733 1.0282672907591106e-08 3.9950000661143794
    vertex 11.941514490017473 1.0103342779066437e-08 4.479773785777077
  endloop
endfacet
facet normal 1.1862445906151093e-09 1.0 -1.214354308492586e-10
  outer loop
    vertex 20.000004278379706 1.2143543273239257e-09 10.0000000639565
    vertex 11.941514490017473 1.0103342779066437e-08 4.479773785777077
    vertex 12.010003578350599 1.0085269613879787e-08 5.000000066541869
  endloop
endfacet
facet normal 1.1862445906151093e-09 1.0 -1.214354308492586e-10
  outer loop
    vertex 20.000004278379706 1.2143543273239257e-09 10.0000000639565
    vertex 12.010003578350599 1.0085269613879787e-08 5.000000066541869
    vertex 11.94151448836578 1.0229691377316996e-08 5.520226347089211
  endloop
endfacet
facet normal 1.1862445906151093e-09 1.0 -1.214354308492586e-10
  outer loop
    vertex 20.000004278379706 1.2143543273239257e-09 10.0000000639565
    vertex 11.94151448836578 1.0229691377316996e-08 5.520226347089211
    vertex 11.740714638361908 1.0526757926454521e-08 6.005000066114379
  endloop
endfacet
facet normal 1.1862445906151093e-09 1.0 -1.214354308492586e-10
  outer loop
    vertex 20.000004278379706 1.2143543273239257e-09 10.0000000639565
    vertex 11.740714638361908 1.0526757926454521e-08 6.005000066114379
    vertex 11.421288206279305 1.0956227541880636e-08 6.4212846957922585
  endloop
endfacet
facet normal 1.1862445906151093e-09 1.0 -1.214354308492586e-10
  outer loop
    vertex 20.000004278379706 1.2143543273239257e-09 10.0000000639565
    vertex 11.421288206279305 1.0956227541880636e-08 6.4212846957922585
    vertex 11.005003575587263 1.1488828971506493e-08 6.740711126553179
  endloop
endfacet
facet normal 1.1862445906151093e-09 1.0 -1.214354308492586e-10
  outer loop
    vertex 20.000004278379706 1.2143543273239257e-09 10.0000000639565
    vertex 11.005003575587263 1.1488828971506493e-08 6.740711126553179
    vertex 10.520229855924565 1.2088274886634664e-08 6.941510975017921
  endloop
endfacet
facet normal 1.1862445906151093e-09 1.0 -1.214354308492586e-10
  outer loop
    vertex 20.000004278379706 1.2143543273239257e-09 10.0000000639565
    vertex 10.520229855924565 1.2088274886634664e-08 6.941510975017921
    vertex 10.000003575159774 1.2713709612865998e-08 7.010000063351048
  endloop
endfacet
facet normal -0.9999999999998365 -5.721492302518297e-07 -1.587474514233882e-09
  outer loop
    vertex 20.000004278379706 1.2143543273239257e-09 10.0000000639565
    vertex 20.000000025003175 7.461779296724648 1.490072545351495e-08
    vertex 20.000004294254456 0.0 6.395650142820841e-08
  endloop
endfacet
facet normal -0.9999999999998365 -5.721492302518297e-07 -1.587474514233882e-09
  outer loop
    vertex 20.000000025003175 7.461779296724648 1.490072545351495e-08
    vertex 20.000004278379706 1.2143543273239257e-09 10.0000000639565
    vertex 20.000000009128428 7.461779297938999 10.000000014900724
  endloop
endfacet
facet normal -0.22722960108747428 -0.9738412131295469 -2.4246238726465977e-10
  outer loop
    vertex 20.000000025003175 7.461779296724648 1.490072545351495e-08
    vertex 19.000000005649774 7.695112616363365 9.999999999999998
    vertex 19.00000002152452 7.6951126151490135 0.0
  endloop
endfacet
facet normal -0.22722960108747428 -0.9738412131295469 -2.4246238726465977e-10
  outer loop
    vertex 19.000000005649774 7.695112616363365 9.999999999999998
    vertex 20.000000025003175 7.461779296724648 1.490072545351495e-08
    vertex 20.000000009128428 7.461779297938999 10.000000014900724
  endloop
endfacet
facet normal -1.0 -1.4901207170145217e-08 -1.5874745819037963e-09
  outer loop
    vertex 19.000000005649774 7.695112616363365 9.999999999999998
    vertex 18.99999995397238 12.228445948481294 1.624300693947589e-12
    vertex 19.00000002152452 7.6951126151490135 0.0
  endloop
endfacet
facet normal -1.0 -1.4901207170145217e-08 -1.5874745819037963e-09
  outer loop
    vertex 18.99999995397238 12.228445948481294 1.624300693947589e-12
    vertex 19.000000005649774 7.695112616363365 9.999999999999998
    vertex 18.999999938097634 12.228445949695644 10.000000000001624
  endloop
endfacet
facet normal -0.2959024993743948 0.9552181483116756 -5.857350262081645e-10
  outer loop
    vertex 18.999999938097634 12.228445949695644 10.000000000001624
    vertex 20.000000000000483 12.53822075072644 1.1301226612303593e-07
    vertex 18.99999995397238 12.228445948481294 1.624300693947589e-12
  endloop
endfacet
facet normal -0.2959024993743948 0.9552181483116756 -5.857350262081645e-10
  outer loop
    vertex 20.000000000000483 12.53822075072644 1.1301226612303593e-07
    vertex 18.999999938097634 12.228445949695644 10.000000000001624
    vertex 19.999999984125736 12.538220751940791 10.000000113012264
  endloop
endfacet
facet normal -1.0 1.6753832453073494e-09 -1.5874745839167815e-09
  outer loop
    vertex 19.999999984125736 12.538220751940791 10.000000113012264
    vertex 20.000000012501822 20.00000002372616 6.395649014834248e-08
    vertex 20.000000000000483 12.53822075072644 1.1301226612303593e-07
  endloop
endfacet
facet normal -1.0 1.6753832453073494e-09 -1.5874745839167815e-09
  outer loop
    vertex 20.000000012501822 20.00000002372616 6.395649014834248e-08
    vertex 19.999999984125736 12.538220751940791 10.000000113012264
    vertex 19.999999996627075 20.000000024940515 10.000000063956488
  endloop
endfacet
facet normal 8.098402723318779e-10 -1.0 1.2143543401799344e-10
  outer loop
    vertex 19.999999996627075 20.000000024940515 10.000000063956488
    vertex 1.047287747546477e-06 20.00000000752935 6.395993050745119e-08
    vertex 20.000000012501822 20.00000002372616 6.395649014834248e-08
  endloop
endfacet
facet normal 8.098402723318779e-10 -1.0 1.2143543401799344e-10
  outer loop
    vertex 1.047287747546477e-06 20.00000000752935 6.395993050745119e-08
    vertex 19.999999996627075 20.000000024940515 10.000000063956488
    vertex 1.0314130017093437e-06 20.00000000874371 10.000000063959929
  endloop
endfacet
facet normal 0.9999999999999902 -1.4035362231729448e-07 1.587474600757218e-09
  outer loop
    vertex 1.047287747546477e-06 20.00000000752935 6.395993050745119e-08
    vertex -1.5874745837133312e-08 12.538220751940768 10.000000014904153
    vertex 0.0 12.538220750726417 1.490415453275773e-08
  endloop
endfacet
facet normal 0.9999999999999902 -1.4035362231729448e-07 1.587474600757218e-09
  outer loop
    vertex -1.5874745837133312e-08 12.538220751940768 10.000000014904153
    vertex 1.047287747546477e-06 20.00000000752935 6.395993050745119e-08
    vertex 1.0314130017093437e-06 20.00000000874371 10.000000063959929
  endloop
endfacet
facet normal 0.2272296010872954 0.9738412131295885 2.424623872643708e-10
  outer loop
    vertex -1.5874745837133312e-08 12.538220751940768 10.000000014904153
    vertex 1.0000000034793857 12.304887432302074 2.980500406479791e-08
    vertex 0.0 12.538220750726417 1.490415453275773e-08
  endloop
endfacet
facet normal 0.2272296010872954 0.9738412131295885 2.424623872643708e-10
  outer loop
    vertex 1.0000000034793857 12.304887432302074 2.980500406479791e-08
    vertex -1.5874745837133312e-08 12.538220751940768 10.000000014904153
    vertex 0.9999999876046398 12.304887433516425 10.000000029805003
  endloop
endfacet
facet normal 1.0 1.490120717014628e-08 1.5874745819037963e-09
  outer loop
    vertex 1.0000000034793857 12.304887432302074 2.980500406479791e-08
    vertex 1.000000055156779 7.771554100184123 10.000000029806627
    vertex 1.0000000710315249 7.771554098969772 2.980662836549186e-08
  endloop
endfacet
facet normal 1.0 1.490120717014628e-08 1.5874745819037963e-09
  outer loop
    vertex 1.000000055156779 7.771554100184123 10.000000029806627
    vertex 1.0000000034793857 12.304887432302074 2.980500406479791e-08
    vertex 0.9999999876046398 12.304887433516425 10.000000029805003
  endloop
endfacet
facet normal 0.2959024993745898 -0.9552181483116153 5.857350262084669e-10
  outer loop
    vertex 1.000000055156779 7.771554100184123 10.000000029806627
    vertex 2.500414648665128e-08 7.461779296724625 1.1301571776201058e-07
    vertex 1.0000000710315249 7.771554098969772 2.980662836549186e-08
  endloop
endfacet
facet normal 0.2959024993745898 -0.9552181483116153 5.857350262084669e-10
  outer loop
    vertex 2.500414648665128e-08 7.461779296724625 1.1301571776201058e-07
    vertex 1.000000055156779 7.771554100184123 10.000000029806627
    vertex 9.129400649517967e-09 7.4617792979389765 10.000000113015716
  endloop
endfacet
facet normal -0.13052619064615775 3.443992195471907e-11 -0.9914448615810174
  outer loop
    vertex 10.000003575159774 1.2713709612865998e-08 7.010000063351048
    vertex 10.520229849993349 -4.999999987911725 6.9415109756250954
    vertex 10.000003569228557 -4.999999987286292 7.010000063958222
  endloop
endfacet
facet normal -0.13052619064615775 3.443992195471907e-11 -0.9914448615810174
  outer loop
    vertex 10.520229849993349 -4.999999987911725 6.9415109756250954
    vertex 10.000003575159774 1.2713709612865998e-08 7.010000063351048
    vertex 10.520229855924565 1.2088274886634664e-08 6.941510975017921
  endloop
endfacet
facet normal 0.13052619379394523 -2.7523175569335675e-10 -0.9914448611666035
  outer loop
    vertex 9.479777294612429 1.3322506536850297e-08 6.941510973366229
    vertex 10.000003569228557 -4.999999987286292 7.010000063958222
    vertex 9.479777288681213 -4.999999986677493 6.941510973973402
  endloop
endfacet
facet normal 0.13052619379394523 -2.7523175569335675e-10 -0.9914448611666035
  outer loop
    vertex 10.000003569228557 -4.999999987286292 7.010000063958222
    vertex 9.479777294612429 1.3322506536850297e-08 6.941510973366229
    vertex 10.000003575159774 1.2713709612865998e-08 7.010000063351048
  endloop
endfacet
facet normal 0.3826834338317296 -5.6614723368116e-10 -0.9238795319037847
  outer loop
    vertex 8.995003575587262 1.3873183951629286e-08 6.7407111233623525
    vertex 9.479777288681213 -4.999999986677493 6.941510973973402
    vertex 8.995003569656046 -4.999999986126817 6.740711123969531
  endloop
endfacet
facet normal 0.3826834338317296 -5.6614723368116e-10 -0.9238795319037847
  outer loop
    vertex 9.479777288681213 -4.999999986677493 6.941510973973402
    vertex 8.995003575587262 1.3873183951629286e-08 6.7407111233623525
    vertex 9.479777294612429 1.3322506536850297e-08 6.941510973366229
  endloop
endfacet
facet normal 0.6087614302681499 -8.184805221887682e-10 -0.7933533393248411
  outer loop
    vertex 8.578718945909385 1.432820810332025e-08 6.421284691279751
    vertex 8.995003569656046 -4.999999986126817 6.740711123969531
    vertex 8.578718939978167 -4.999999985671791 6.421284691886928
  endloop
endfacet
facet normal 0.6087614302681499 -8.184805221887682e-10 -0.7933533393248411
  outer loop
    vertex 8.995003569656046 -4.999999986126817 6.740711123969531
    vertex 8.578718945909385 1.432820810332025e-08 6.421284691279751
    vertex 8.995003575587262 1.3873183951629286e-08 6.7407111233623525
  endloop
endfacet
facet normal 0.7933533412576291 -1.0150354474988476e-09 -0.6087614277492917
  outer loop
    vertex 8.259292509217246 -4.999999985343425 6.0050000611948855
    vertex 8.578718945909385 1.432820810332025e-08 6.421284691279751
    vertex 8.578718939978167 -4.999999985671791 6.421284691886928
  endloop
endfacet
facet normal 0.7933533412576291 -1.0150354474988476e-09 -0.6087614277492917
  outer loop
    vertex 8.578718945909385 1.432820810332025e-08 6.421284691279751
    vertex 8.259292509217246 -4.999999985343425 6.0050000611948855
    vertex 8.259292515148465 1.4656576280414056e-08 6.005000060587707
  endloop
endfacet
facet normal 0.9238795331187868 -1.1424174153082177e-09 -0.38268343089845497
  outer loop
    vertex 8.058492660752506 -4.999999985164097 5.5202263415321875
    vertex 8.259292515148465 1.4656576280414056e-08 6.005000060587707
    vertex 8.259292509217246 -4.999999985343425 6.0050000611948855
  endloop
endfacet
facet normal 0.9238795331187868 -1.1424174153082177e-09 -0.38268343089845497
  outer loop
    vertex 8.259292515148465 1.4656576280414056e-08 6.005000060587707
    vertex 8.058492660752506 -4.999999985164097 5.5202263415321875
    vertex 8.058492666683724 1.4835903588972242e-08 5.52022634092501
  endloop
endfacet
facet normal 0.9914448615810174 -1.19194547256114e-09 -0.1305261906461579
  outer loop
    vertex 7.99000357241938 -4.999999985146025 5.0000000607673964
    vertex 8.058492666683724 1.4835903588972242e-08 5.52022634092501
    vertex 8.058492660752506 -4.999999985164097 5.5202263415321875
  endloop
endfacet
facet normal 0.9914448615810174 -1.19194547256114e-09 -0.1305261906461579
  outer loop
    vertex 8.058492666683724 1.4835903588972242e-08 5.52022634092501
    vertex 7.99000357241938 -4.999999985146025 5.0000000607673964
    vertex 7.990003578350597 1.4853973934192409e-08 5.000000060160219
  endloop
endfacet
facet normal 0.991444861166603 -1.1602444425337858e-09 0.1305261937939482
  outer loop
    vertex 8.058492668335418 1.4709557810688166e-08 4.479773779612876
    vertex 7.99000357241938 -4.999999985146025 5.0000000607673964
    vertex 8.0584926624042 -4.999999985290444 4.479773780220054
  endloop
endfacet
facet normal 0.991444861166603 -1.1602444425337858e-09 0.1305261937939482
  outer loop
    vertex 7.99000357241938 -4.999999985146025 5.0000000607673964
    vertex 8.058492668335418 1.4709557810688166e-08 4.479773779612876
    vertex 7.990003578350597 1.4853973934192409e-08 5.000000060160219
  endloop
endfacet
facet normal 0.9238795319037869 -1.0494746708358708e-09 0.382683433831724
  outer loop
    vertex 8.259292518339288 1.4412491261550641e-08 3.9950000605877083
    vertex 8.0584926624042 -4.999999985290444 4.479773780220054
    vertex 8.259292512408072 -4.99999998558751 3.995000061194886
  endloop
endfacet
facet normal 0.9238795319037869 -1.0494746708358708e-09 0.382683433831724
  outer loop
    vertex 8.0584926624042 -4.999999985290444 4.479773780220054
    vertex 8.259292518339288 1.4412491261550641e-08 3.9950000605877083
    vertex 8.058492668335418 1.4709557810688166e-08 4.479773779612876
  endloop
endfacet
facet normal 0.7933533393248406 -8.671850655333826e-10 0.6087614302681504
  outer loop
    vertex 8.57871895042189 1.3983021646124526e-08 3.5787154309098312
    vertex 8.259292512408072 -4.99999998558751 3.995000061194886
    vertex 8.578718944490674 -4.99999998601698 3.5787154315170064
  endloop
endfacet
facet normal 0.7933533393248406 -8.671850655333826e-10 0.6087614302681504
  outer loop
    vertex 8.259292512408072 -4.99999998558751 3.995000061194886
    vertex 8.57871895042189 1.3983021646124526e-08 3.5787154309098312
    vertex 8.259292518339288 1.4412491261550641e-08 3.9950000605877083
  endloop
endfacet
facet normal 0.6087614277492913 -6.257983130570964e-10 0.7933533412576292
  outer loop
    vertex 8.995003575182716 -4.999999986549585 3.259289000756087
    vertex 8.57871895042189 1.3983021646124526e-08 3.5787154309098312
    vertex 8.578718944490674 -4.99999998601698 3.5787154315170064
  endloop
endfacet
facet normal 0.6087614277492913 -6.257983130570964e-10 0.7933533412576292
  outer loop
    vertex 8.57871895042189 1.3983021646124526e-08 3.5787154309098312
    vertex 8.995003575182716 -4.999999986549585 3.259289000756087
    vertex 8.995003581113934 1.3450414576565705e-08 3.259289000148912
  endloop
endfacet
facet normal 0.3826834308984532 -3.4176431374847724e-10 0.9238795331187876
  outer loop
    vertex 9.479777294845416 -4.999999987149029 3.058489152291348
    vertex 8.995003581113934 1.3450414576565705e-08 3.259289000148912
    vertex 8.995003575182716 -4.999999986549585 3.259289000756087
  endloop
endfacet
facet normal 0.3826834308984532 -3.4176431374847724e-10 0.9238795331187876
  outer loop
    vertex 8.995003581113934 1.3450414576565705e-08 3.259289000148912
    vertex 9.479777294845416 -4.999999987149029 3.058489152291348
    vertex 9.479777300776632 1.2850968661437533e-08 3.0584891516841726
  endloop
endfacet
facet normal 0.1305261906461581 -3.443964145642446e-11 0.9914448615810174
  outer loop
    vertex 10.000003575610206 -4.999999987774462 2.9900000639582216
    vertex 9.479777300776632 1.2850968661437533e-08 3.0584891516841726
    vertex 9.479777294845416 -4.999999987149029 3.058489152291348
  endloop
endfacet
facet normal 0.1305261906461581 -3.443964145642446e-11 0.9914448615810174
  outer loop
    vertex 9.479777300776632 1.2850968661437533e-08 3.0584891516841726
    vertex 10.000003575610206 -4.999999987774462 2.9900000639582216
    vertex 10.000003581541423 1.2225539575139165e-08 2.990000063351046
  endloop
endfacet
facet normal -0.13052619379394556 2.7523203498919274e-10 0.9914448611666035
  outer loop
    vertex 10.520229856157549 -4.99999998838326 3.0584891539430408
    vertex 10.000003581541423 1.2225539575139165e-08 2.990000063351046
    vertex 10.000003575610206 -4.999999987774462 2.9900000639582216
  endloop
endfacet
facet normal -0.13052619379394556 2.7523203498919274e-10 0.9914448611666035
  outer loop
    vertex 10.000003581541423 1.2225539575139165e-08 2.990000063351046
    vertex 10.520229856157549 -4.99999998838326 3.0584891539430408
    vertex 10.520229862088765 1.1616739831188382e-08 3.058489153335865
  endloop
endfacet
facet normal -0.3826834338317252 5.661471050225566e-10 0.9238795319037866
  outer loop
    vertex 11.005003575182718 -4.999999988933936 3.2592890039469125
    vertex 10.520229862088765 1.1616739831188382e-08 3.058489153335865
    vertex 10.520229856157549 -4.99999998838326 3.0584891539430408
  endloop
endfacet
facet normal -0.3826834338317252 5.661471050225566e-10 0.9238795319037866
  outer loop
    vertex 10.520229862088765 1.1616739831188382e-08 3.058489153335865
    vertex 11.005003575182718 -4.999999988933936 3.2592890039469125
    vertex 11.005003581113934 1.1066065236375877e-08 3.259289003339737
  endloop
endfacet
facet normal -0.60876143026815 8.184801824678845e-10 0.7933533393248411
  outer loop
    vertex 11.421288204860595 -4.999999989388963 3.5787154360295146
    vertex 11.005003581113934 1.1066065236375877e-08 3.259289003339737
    vertex 11.005003575182718 -4.999999988933936 3.2592890039469125
  endloop
endfacet
facet normal -0.60876143026815 8.184801824678845e-10 0.7933533393248411
  outer loop
    vertex 11.005003581113934 1.1066065236375877e-08 3.259289003339737
    vertex 11.421288204860595 -4.999999989388963 3.5787154360295146
    vertex 11.421288210791813 1.0611035444751948e-08 3.5787154354223394
  endloop
endfacet
facet normal -0.793353341257628 1.0150353201707734e-09 0.6087614277492931
  outer loop
    vertex 11.740714641552733 1.0282672907591106e-08 3.9950000661143794
    vertex 11.421288204860595 -4.999999989388963 3.5787154360295146
    vertex 11.740714635621515 -4.999999989717328 3.9950000667215573
  endloop
endfacet
facet normal -0.793353341257628 1.0150353201707734e-09 0.6087614277492931
  outer loop
    vertex 11.421288204860595 -4.999999989388963 3.5787154360295146
    vertex 11.740714641552733 1.0282672907591106e-08 3.9950000661143794
    vertex 11.421288210791813 1.0611035444751948e-08 3.5787154354223394
  endloop
endfacet
facet normal -0.923879533118787 1.1424173891292975e-09 0.38268343089845486
  outer loop
    vertex 11.941514490017473 1.0103342779066437e-08 4.479773785777077
    vertex 11.740714635621515 -4.999999989717328 3.9950000667215573
    vertex 11.941514484086255 -4.999999989896657 4.479773786384255
  endloop
endfacet
facet normal -0.923879533118787 1.1424173891292975e-09 0.38268343089845486
  outer loop
    vertex 11.740714635621515 -4.999999989717328 3.9950000667215573
    vertex 11.941514490017473 1.0103342779066437e-08 4.479773785777077
    vertex 11.740714641552733 1.0282672907591106e-08 3.9950000661143794
  endloop
endfacet
facet normal -0.9914448615810174 1.1919454727456803e-09 0.13052619064615792
  outer loop
    vertex 12.010003578350599 1.0085269613879787e-08 5.000000066541869
    vertex 11.941514484086255 -4.999999989896657 4.479773786384255
    vertex 12.010003572419382 -4.999999989914729 5.000000067149046
  endloop
endfacet
facet normal -0.9914448615810174 1.1919454727456803e-09 0.13052619064615792
  outer loop
    vertex 11.941514484086255 -4.999999989896657 4.479773786384255
    vertex 12.010003578350599 1.0085269613879787e-08 5.000000066541869
    vertex 11.941514490017473 1.0103342779066437e-08 4.479773785777077
  endloop
endfacet
facet normal -0.991444861166603 1.1602444422462746e-09 -0.13052619379394834
  outer loop
    vertex 11.941514482434561 -4.99999998977031 5.520226347696388
    vertex 12.010003578350599 1.0085269613879787e-08 5.000000066541869
    vertex 12.010003572419382 -4.999999989914729 5.000000067149046
  endloop
endfacet
facet normal -0.991444861166603 1.1602444422462746e-09 -0.13052619379394834
  outer loop
    vertex 12.010003578350599 1.0085269613879787e-08 5.000000066541869
    vertex 11.941514482434561 -4.99999998977031 5.520226347696388
    vertex 11.94151448836578 1.0229691377316996e-08 5.520226347089211
  endloop
endfacet
facet normal -0.9238795319037874 1.0494746440677821e-09 -0.38268343383172326
  outer loop
    vertex 11.740714632430691 -4.999999989473244 6.005000066721557
    vertex 11.94151448836578 1.0229691377316996e-08 5.520226347089211
    vertex 11.941514482434561 -4.99999998977031 5.520226347696388
  endloop
endfacet
facet normal -0.9238795319037874 1.0494746440677821e-09 -0.38268343383172326
  outer loop
    vertex 11.94151448836578 1.0229691377316996e-08 5.520226347089211
    vertex 11.740714632430691 -4.999999989473244 6.005000066721557
    vertex 11.740714638361908 1.0526757926454521e-08 6.005000066114379
  endloop
endfacet
facet normal -0.793353339324841 8.671849360844669e-10 -0.6087614302681501
  outer loop
    vertex 11.421288200348089 -4.999999989043774 6.421284696399435
    vertex 11.740714638361908 1.0526757926454521e-08 6.005000066114379
    vertex 11.740714632430691 -4.999999989473244 6.005000066721557
  endloop
endfacet
facet normal -0.793353339324841 8.671849360844669e-10 -0.6087614302681501
  outer loop
    vertex 11.740714638361908 1.0526757926454521e-08 6.005000066114379
    vertex 11.421288200348089 -4.999999989043774 6.421284696399435
    vertex 11.421288206279305 1.0956227541880636e-08 6.4212846957922585
  endloop
endfacet
facet normal -0.6087614277492922 6.25798091697336e-10 -0.7933533412576288
  outer loop
    vertex 11.005003575587263 1.1488828971506493e-08 6.740711126553179
    vertex 11.421288200348089 -4.999999989043774 6.421284696399435
    vertex 11.005003569656045 -4.999999988511169 6.740711127160355
  endloop
endfacet
facet normal -0.6087614277492922 6.25798091697336e-10 -0.7933533412576288
  outer loop
    vertex 11.421288200348089 -4.999999989043774 6.421284696399435
    vertex 11.005003575587263 1.1488828971506493e-08 6.740711126553179
    vertex 11.421288206279305 1.0956227541880636e-08 6.4212846957922585
  endloop
endfacet
facet normal -0.3826834308984575 3.4176431504096023e-10 -0.9238795331187857
  outer loop
    vertex 10.520229855924565 1.2088274886634664e-08 6.941510975017921
    vertex 11.005003569656045 -4.999999988511169 6.740711127160355
    vertex 10.520229849993349 -4.999999987911725 6.9415109756250954
  endloop
endfacet
facet normal -0.3826834308984575 3.4176431504096023e-10 -0.9238795331187857
  outer loop
    vertex 11.005003569656045 -4.999999988511169 6.740711127160355
    vertex 10.520229855924565 1.2088274886634664e-08 6.941510975017921
    vertex 11.005003575587263 1.1488828971506493e-08 6.740711126553179
  endloop
endfacet
endsolid testPerfil
